{
.appVersion = "1075";
copyright = "\\(c\\) 2017 IBM Corp. All rights reserved.";
customParameters = (
{
name = vendorID;
value = "IBM ";
},
{
name = panose;
value = (
2,
11,
5,
9,
5,
0,
0,
0,
0,
0
);
},
{
name = unicodeRanges;
value = (
0,
1,
2,
3,
5,
6,
29,
31,
32,
33,
35,
36,
37,
38,
45,
60,
62
);
},
{
name = codePageRanges;
value = (
1252,
1250,
1254,
1257,
1258
);
},
{
name = glyphOrder;
value = (
.notdef,
a,
a.alt01,
b,
c,
d,
e,
f,
g,
g.alt01,
g.alt02,
h,
i,
j,
k,
l,
m,
n,
o,
p,
q,
r,
s,
t,
u,
v,
w,
x,
y,
z,
A,
B,
C,
D,
E,
F,
G,
H,
I,
J,
K,
L,
M,
N,
O,
P,
Q,
R,
S,
T,
U,
V,
W,
X,
Y,
Z,
zero,
zero.alt01,
zero.alt02,
one,
two,
three,
four,
five,
six,
seven,
eight,
nine,
ampersand,
at,
hyphen,
uni00AD,
endash,
emdash,
underscore,
period,
ellipsis,
colon,
comma,
semicolon,
quotesingle,
quotedbl,
quoteleft,
quoteright,
quotedblleft,
quotedblright,
quotesinglbase,
quotedblbase,
guilsinglleft,
guilsinglright,
guillemotleft,
guillemotright,
exclamdown,
exclam,
questiondown,
question,
parenleft,
parenright,
bracketleft,
bracketright,
braceleft,
braceright,
slash,
backslash,
fraction,
percent,
perthousand,
bar,
brokenbar,
section,
paragraph,
copyright,
registered,
trademark,
ordfeminine,
ordmasculine,
degree,
asterisk,
dagger,
daggerdbl,
numbersign,
asciicircum,
asciitilde,
plus,
minus,
plusminus,
multiply,
divide,
equal,
approxequal,
notequal,
less,
greater,
lessequal,
greaterequal,
periodcentered,
bullet,
lozenge,
logicalnot,
radical,
integral,
infinity,
uni212E,
uni2113,
uni2116,
partialdiff,
cent,
Euro,
florin,
sterling,
dollar,
yen,
uni0E3F,
uni20A1,
uni20A4,
uni20A6,
uni20A8,
uni20A9,
uni20AA,
uni20AB,
uni20AD,
uni20AE,
uni20B1,
uni20B2,
uni20B4,
uni20B5,
uni20B8,
uni20B9,
uni20BA,
uni20BD,
uni20BF,
fi,
fl,
aacute,
abreve,
acircumflex,
adieresis,
uni1EA1,
agrave,
uni1EA3,
amacron,
aogonek,
aring,
aringacute,
atilde,
uni1EAF,
uni1EB7,
uni1EB1,
uni1EB3,
uni1EB5,
uni1EA5,
uni1EAD,
uni1EA7,
uni1EA9,
uni1EAB,
aacute.alt01,
abreve.alt01,
acircumflex.alt01,

glyphs = (
{
glyphname = .notdef;
lastChange = "2017-11-24 23:49:52 +0000";
layers = (
{
layerId = "BE301D28-E982-4416-937B-B9987FF5461D";
paths = (
{
closed = 1;
nodes = (
"50 -250 LINE",
"550 -250 LINE",
"550 670 LINE",
"50 670 LINE"
);
}
);
width = 600;
}
);
note = .notdef;
},
{
glyphname = a;
lastChange = "2017-11-24 23:49:52 +0000";
layers = (
{
layerId = "BE301D28-E982-4416-937B-B9987FF5461D";
paths = (
{
closed = 1;
nodes = (
"461 0 LINE",
"547 516 LINE",
"469 516 LINE",
"454 426 LINE",
"451 426 LINE",
"429 493 OFFCURVE",
"376 528 OFFCURVE",
"300 528 CURVE SMOOTH",
"118 528 OFFCURVE",
"56 326 OFFCURVE",
"56 188 CURVE SMOOTH",
"56 56 OFFCURVE",
"113 -12 OFFCURVE",
"217 -12 CURVE SMOOTH",
"308 -12 OFFCURVE",
"360 41 OFFCURVE",
"400 122 CURVE",
"403 122 LINE",
"383 0 LINE"
);
},
{
closed = 1;
nodes = (
"172 57 OFFCURVE",
"135 103 OFFCURVE",
"135 180 CURVE SMOOTH",
"135 193 OFFCURVE",
"136 207 OFFCURVE",
"139 225 CURVE SMOOTH",
"151 297 LINE SMOOTH",
"167 393 OFFCURVE",
"224 459 OFFCURVE",
"323 459 CURVE SMOOTH",
"400 459 OFFCURVE",
"453 418 OFFCURVE",
"441 346 CURVE SMOOTH",
"422 232 LINE SMOOTH",
"414 184 OFFCURVE",
"391 143 OFFCURVE",
"365 114 CURVE SMOOTH",
"329 74 OFFCURVE",
"287 57 OFFCURVE",
"244 57 CURVE SMOOTH"
);
}
);
width = 600;
}
);
note = a;
unicode = 0061;
},
{
glyphname = a.alt01;
lastChange = "2017-11-24 23:49:52 +0000";
layers = (
{
layerId = "BE301D28-E982-4416-937B-B9987FF5461D";
paths = (
{
closed = 1;
nodes = (
"300 -12 OFFCURVE",
"356 32 OFFCURVE",
"386 91 CURVE",
"390 91 LINE",
"375 0 LINE",
"451 0 LINE",
"505 324 LINE SMOOTH",
"508 342 OFFCURVE",
"510 361 OFFCURVE",
"510 379 CURVE SMOOTH",
"510 463 OFFCURVE",
"442 528 OFFCURVE",
"329 528 CURVE SMOOTH",
"230 528 OFFCURVE",
"161 479 OFFCURVE",
"126 428 CURVE",
"176 384 LINE",
"211 432 OFFCURVE",
"254 461 OFFCURVE",
"323 461 CURVE SMOOTH",
"393 461 OFFCURVE",
"432 428 OFFCURVE",
"432 364 CURVE SMOOTH",
"432 354 OFFCURVE",
"431 343 OFFCURVE",
"429 331 CURVE SMOOTH",
"423 295 LINE",
"308 295 LINE SMOOTH",
"135 295 OFFCURVE",
"61 228 OFFCURVE",
"61 120 CURVE SMOOTH",
"61 39 OFFCURVE",
"121 -12 OFFCURVE",
"219 -12 CURVE SMOOTH"
);
},
{
closed = 1;
nodes = (
"177 55 OFFCURVE",
"140 78 OFFCURVE",
"140 119 CURVE SMOOTH",
"140 129 OFFCURVE",
"140 134 OFFCURVE",
"143 152 CURVE SMOOTH",
"152 206 OFFCURVE",
"201 235 OFFCURVE",
"297 235 CURVE SMOOTH",
"413 235 LINE",
"400 157 LINE SMOOTH",
"391 103 OFFCURVE",
"323 55 OFFCURVE",
"238 55 CURVE SMOOTH"
);
}
);
width = 600;
}
);
note = a.alt01;
},
{
glyphname = b;
lastChange = "2017-11-24 23:49:52 +0000";
layers = (
{
layerId = "BE301D28-E982-4416-937B-B9987FF5461D";
paths = (
{
closed = 1;
nodes = (
"53 0 LINE",
"131 0 LINE",
"146 90 LINE",
"149 90 LINE",
"171 23 OFFCURVE",
"224 -12 OFFCURVE",
"300 -12 CURVE SMOOTH",
"482 -12 OFFCURVE",
"544 190 OFFCURVE",
"544 328 CURVE SMOOTH",
"544 460 OFFCURVE",
"487 528 OFFCURVE",
"383 528 CURVE SMOOTH",
"292 528 OFFCURVE",
"240 475 OFFCURVE",
"200 394 CURVE",
"197 394 LINE",
"255 740 LINE",
"177 740 LINE"
);
},
{
closed = 1;
nodes = (
"199 57 OFFCURVE",
"147 98 OFFCURVE",
"159 170 CURVE SMOOTH",
"178 284 LINE SMOOTH",
"186 332 OFFCURVE",
"209 373 OFFCURVE",
"235 402 CURVE SMOOTH",
"271 442 OFFCURVE",
"313 459 OFFCURVE",
"356 459 CURVE SMOOTH",
"428 459 OFFCURVE",
"465 413 OFFCURVE",
"465 336 CURVE SMOOTH",
"465 323 OFFCURVE",
"464 309 OFFCURVE",
"461 291 CURVE SMOOTH",
"449 219 LINE SMOOTH",
"433 123 OFFCURVE",
"375 57 OFFCURVE",
"276 57 CURVE SMOOTH"
);
}
);
width = 600;
}
);
note = b;
unicode = 0062;
},
{
glyphname = c;
lastChange = "2017-11-24 23:49:52 +0000";
layers = (
{
layerId = "BE301D28-E982-4416-937B-B9987FF5461D";
paths = (
{
closed = 1;
nodes = (
"378 -12 OFFCURVE",
"443 44 OFFCURVE",
"508 149 CURVE",
"452 182 LINE",
"370 69 OFFCURVE",
"326 56 OFFCURVE",
"280 56 CURVE SMOOTH",
"205 56 OFFCURVE",
"154 97 OFFCURVE",
"154 185 CURVE SMOOTH",
"154 198 OFFCURVE",
"155 209 OFFCURVE",
"159 233 CURVE SMOOTH",
"169 293 LINE SMOOTH",
"187 401 OFFCURVE",
"244 460 OFFCURVE",
"332 460 CURVE SMOOTH",
"396 460 OFFCURVE",
"434 441 OFFCURVE",
"454 378 CURVE",
"521 404 LINE",
"503 472 OFFCURVE",
"450 528 OFFCURVE",
"341 528 CURVE SMOOTH",
"194 528 OFFCURVE",
"75 403 OFFCURVE",
"75 206 CURVE SMOOTH",
"75 77 OFFCURVE",
"142 -12 OFFCURVE",
"270 -12 CURVE SMOOTH"
);
}
);
width = 600;
}
);
note = c;
unicode = 0063;
},
{
glyphname = d;
lastChange = "2017-11-24 23:49:52 +0000";
layers = (
{
layerId = "BE301D28-E982-4416-937B-B9987FF5461D";
paths = (
{
closed = 1;
nodes = (
"383 0 LINE",
"461 0 LINE",
"585 740 LINE",
"507 740 LINE",
"454 426 LINE",
"451 426 LINE",
"429 493 OFFCURVE",
"376 528 OFFCURVE",
"300 528 CURVE SMOOTH",
"118 528 OFFCURVE",
"56 326 OFFCURVE",
"56 188 CURVE SMOOTH",
"56 56 OFFCURVE",
"113 -12 OFFCURVE",
"217 -12 CURVE SMOOTH",
"308 -12 OFFCURVE",
"360 41 OFFCURVE",
"400 122 CURVE",
"403 122 LINE"
);
},
{
closed = 1;
nodes = (
"172 57 OFFCURVE",
"135 103 OFFCURVE",
"135 180 CURVE SMOOTH",
"135 193 OFFCURVE",
"136 207 OFFCURVE",
"139 225 CURVE SMOOTH",
"151 297 LINE SMOOTH",
"167 393 OFFCURVE",
"224 459 OFFCURVE",
"323 459 CURVE SMOOTH",
"400 459 OFFCURVE",
"453 418 OFFCURVE",
"441 346 CURVE SMOOTH",
"422 232 LINE SMOOTH",
"414 184 OFFCURVE",
"391 143 OFFCURVE",
"365 114 CURVE SMOOTH",
"329 74 OFFCURVE",
"287 57 OFFCURVE",
"244 57 CURVE SMOOTH"
);
}
);
width = 600;
}
);
note = d;
unicode = 0064;
},
{
glyphname = e;
lastChange = "2017-11-24 23:49:52 +0000";
layers = (
{
layerId = "BE301D28-E982-4416-937B-B9987FF5461D";
paths = (
{
closed = 1;
nodes = (
"386 -12 OFFCURVE",
"456 40 OFFCURVE",
"514 135 CURVE",
"459 169 LINE",
"401 87 OFFCURVE",
"358 55 OFFCURVE",
"284 55 CURVE SMOOTH",
"176 55 OFFCURVE",
"155 122 OFFCURVE",
"155 194 CURVE SMOOTH",
"155 196 OFFCURVE",
"155 207 OFFCURVE",
"156 217 CURVE",
"485 226 OFFCURVE",
"532 316 OFFCURVE",
"532 389 CURVE SMOOTH",
"532 479 OFFCURVE",
"458 528 OFFCURVE",
"357 528 CURVE SMOOTH",
"191 528 OFFCURVE",
"73 396 OFFCURVE",
"73 209 CURVE SMOOTH",
"73 61 OFFCURVE",
"147 -12 OFFCURVE",
"277 -12 CURVE SMOOTH"
);
},
{
closed = 1;
nodes = (
"425 463 OFFCURVE",
"452 428 OFFCURVE",
"452 386 CURVE SMOOTH",
"452 336 OFFCURVE",
"414 279 OFFCURVE",
"162 271 CURVE",
"163 281 LINE SMOOTH",
"178 398 OFFCURVE",
"246 463 OFFCURVE",
"350 463 CURVE SMOOTH"
);
}
);
width = 600;
}
);
note = e;
unicode = 0065;
},
{
glyphname = f;
lastChange = "2017-11-24 23:49:52 +0000";
layers = (
{
layerId = "BE301D28-E982-4416-937B-B9987FF5461D";
paths = (
{
closed = 1;
nodes = (
"256 -212 OFFCURVE",
"283 -163 OFFCURVE",
"292 -107 CURVE SMOOTH",
"385 449 LINE",
"594 449 LINE",
"605 516 LINE",
"396 516 LINE",
"422 673 LINE",
"630 673 LINE",
"641 740 LINE",
"468 740 LINE SMOOTH",
"391 740 OFFCURVE",
"347 691 OFFCURVE",
"336 623 CURVE SMOOTH",
"318 516 LINE",
"134 516 LINE",
"123 449 LINE",
"307 449 LINE",
"209 -138 LINE",
"191 -142 LINE",
"37 22 LINE",
"-16 -26 LINE",
"45 -93 LINE SMOOTH",
"125 -180 OFFCURVE",
"154 -212 OFFCURVE",
"196 -212 CURVE SMOOTH"
);
}
);
width = 600;
}
);
note = f;
unicode = 0066;
},
{
glyphname = g;
lastChange = "2017-11-24 23:49:52 +0000";
layers = (
{
layerId = "BE301D28-E982-4416-937B-B9987FF5461D";
paths = (
{
closed = 1;
nodes = (
"341 -212 OFFCURVE",
"435 -152 OFFCURVE",
"461 0 CURVE SMOOTH",
"547 516 LINE",
"469 516 LINE",
"454 426 LINE",
"451 426 LINE",
"429 493 OFFCURVE",
"376 528 OFFCURVE",
"300 528 CURVE SMOOTH",
"122 528 OFFCURVE",
"57 334 OFFCURVE",
"57 201 CURVE SMOOTH",
"57 75 OFFCURVE",
"113 5 OFFCURVE",
"219 5 CURVE SMOOTH",
"310 5 OFFCURVE",
"364 56 OFFCURVE",
"403 139 CURVE",
"407 139 LINE",
"386 15 LINE SMOOTH",
"367 -99 OFFCURVE",
"311 -143 OFFCURVE",
"217 -143 CURVE SMOOTH",
"154 -143 OFFCURVE",
"112 -123 OFFCURVE",
"85 -89 CURVE",
"31 -141 LINE",
"68 -187 OFFCURVE",
"129 -212 OFFCURVE",
"212 -212 CURVE SMOOTH"
);
},
{
closed = 1;
nodes = (
"174 74 OFFCURVE",
"137 119 OFFCURVE",
"137 201 CURVE SMOOTH",
"137 215 OFFCURVE",
"139 227 OFFCURVE",
"142 245 CURVE SMOOTH",
"151 299 LINE SMOOTH",
"167 395 OFFCURVE",
"226 459 OFFCURVE",
"323 459 CURVE SMOOTH",
"400 459 OFFCURVE",
"453 418 OFFCURVE",
"441 346 CURVE SMOOTH",
"425 248 LINE SMOOTH",
"416 192 OFFCURVE",
"387 152 OFFCURVE",
"368 131 CURVE SMOOTH",
"331 90 OFFCURVE",
"289 74 OFFCURVE",
"246 74 CURVE SMOOTH"
);
}
);
width = 600;
}
);
note = g;
unicode = 0067;
},
{
glyphname = g.alt01;
lastChange = "2017-11-24 23:49:52 +0000";
layers = (
{
layerId = "BE301D28-E982-4416-937B-B9987FF5461D";
paths = (
{
closed = 1;
nodes = (
"420 -212 OFFCURVE",
"510 -152 OFFCURVE",
"510 -50 CURVE SMOOTH",
"510 28 OFFCURVE",
"458 75 OFFCURVE",
"337 75 CURVE SMOOTH",
"221 75 LINE SMOOTH",
"176 75 OFFCURVE",
"146 80 OFFCURVE",
"146 111 CURVE SMOOTH",
"146 151 OFFCURVE",
"200 172 OFFCURVE",
"234 178 CURVE",
"250 174 OFFCURVE",
"268 172 OFFCURVE",
"288 172 CURVE SMOOTH",
"420 172 OFFCURVE",
"515 259 OFFCURVE",
"515 372 CURVE SMOOTH",
"515 415 OFFCURVE",
"501 449 OFFCURVE",
"476 476 CURVE",
"483 516 LINE",
"597 516 LINE",
"609 585 LINE",
"516 585 LINE SMOOTH",
"471 585 OFFCURVE",
"449 556 OFFCURVE",
"442 516 CURVE SMOOTH",
"440 504 LINE",
"412 519 OFFCURVE",
"379 528 OFFCURVE",
"337 528 CURVE SMOOTH",
"206 528 OFFCURVE",
"110 441 OFFCURVE",
"110 328 CURVE SMOOTH",
"110 267 OFFCURVE",
"138 221 OFFCURVE",
"185 195 CURVE",
"184 189 LINE",
"120 175 OFFCURVE",
"77 148 OFFCURVE",
"77 92 CURVE SMOOTH",
"77 60 OFFCURVE",
"91 40 OFFCURVE",
"113 28 CURVE",
"111 17 LINE",
"45 1 OFFCURVE",
"8 -37 OFFCURVE",
"8 -93 CURVE SMOOTH",
"8 -169 OFFCURVE",
"77 -212 OFFCURVE",
"234 -212 CURVE SMOOTH"
);
},
{
closed = 1;
nodes = (
"84 -36 OFFCURVE",
"109 -10 OFFCURVE",
"151 5 CURVE",
"334 5 LINE SMOOTH",
"410 5 OFFCURVE",
"435 -18 OFFCURVE",
"435 -55 CURVE SMOOTH",
"435 -114 OFFCURVE",
"374 -148 OFFCURVE",
"277 -148 CURVE SMOOTH",
"196 -148 LINE SMOOTH",
"116 -148 OFFCURVE",
"84 -116 OFFCURVE",
"84 -74 CURVE SMOOTH"
);
},
{
closed = 1;
nodes = (
"223 232 OFFCURVE",
"189 264 OFFCURVE",
"189 314 CURVE SMOOTH",
"189 321 OFFCURVE",
"191 341 OFFCURVE",
"195 365 CURVE SMOOTH",
"206 431 OFFCURVE",
"251 468 OFFCURVE",
"332 468 CURVE SMOOTH",
"402 468 OFFCURVE",
"436 436 OFFCURVE",
"436 386 CURVE SMOOTH",
"436 379 OFFCURVE",
"434 359 OFFCURVE",
"430 335 CURVE SMOOTH",
"419 269 OFFCURVE",
"374 232 OFFCURVE",
"293 232 CURVE SMOOTH"
);
}
);
width = 600;
}
);
note = g.alt01;
},
{
glyphname = g.alt02;
lastChange = "2017-11-24 23:49:52 +0000";
layers = (
{
layerId = "BE301D28-E982-4416-937B-B9987FF5461D";
paths = (
{
closed = 1;
nodes = (
"420 -212 OFFCURVE",
"510 -152 OFFCURVE",
"510 -50 CURVE SMOOTH",
"510 28 OFFCURVE",
"458 75 OFFCURVE",
"337 75 CURVE SMOOTH",
"221 75 LINE SMOOTH",
"176 75 OFFCURVE",
"146 80 OFFCURVE",
"146 111 CURVE SMOOTH",
"146 151 OFFCURVE",
"200 172 OFFCURVE",
"234 178 CURVE",
"250 174 OFFCURVE",
"268 172 OFFCURVE",
"288 172 CURVE SMOOTH",
"420 172 OFFCURVE",
"515 259 OFFCURVE",
"515 372 CURVE SMOOTH",
"515 404 OFFCURVE",
"506 432 OFFCURVE",
"490 455 CURVE",
"570 455 LINE",
"580 516 LINE",
"413 516 LINE",
"391 524 OFFCURVE",
"366 528 OFFCURVE",
"337 528 CURVE SMOOTH",
"206 528 OFFCURVE",
"110 441 OFFCURVE",
"110 328 CURVE SMOOTH",
"110 267 OFFCURVE",
"138 221 OFFCURVE",
"185 195 CURVE",
"184 189 LINE",
"120 175 OFFCURVE",
"77 148 OFFCURVE",
"77 92 CURVE SMOOTH",
"77 60 OFFCURVE",
"91 40 OFFCURVE",
"113 28 CURVE",
"111 17 LINE",
"45 1 OFFCURVE",
"8 -37 OFFCURVE",
"8 -93 CURVE SMOOTH",
"8 -169 OFFCURVE",
"77 -212 OFFCURVE",
"234 -212 CURVE SMOOTH"
);
},
{
closed = 1;
nodes = (
"223 232 OFFCURVE",
"189 264 OFFCURVE",
"189 314 CURVE SMOOTH",
"189 321 OFFCURVE",
"191 341 OFFCURVE",
"195 365 CURVE SMOOTH",
"206 431 OFFCURVE",
"251 468 OFFCURVE",
"332 468 CURVE SMOOTH",
"402 468 OFFCURVE",
"436 436 OFFCURVE",
"436 386 CURVE SMOOTH",
"436 379 OFFCURVE",
"434 359 OFFCURVE",
"430 335 CURVE SMOOTH",
"419 269 OFFCURVE",
"374 232 OFFCURVE",
"293 232 CURVE SMOOTH"
);
},
{
closed = 1;
nodes = (
"435 -114 OFFCURVE",
"374 -148 OFFCURVE",
"277 -148 CURVE SMOOTH",
"196 -148 LINE SMOOTH",
"116 -148 OFFCURVE",
"84 -116 OFFCURVE",
"84 -74 CURVE SMOOTH",
"84 -36 OFFCURVE",
"109 -10 OFFCURVE",
"151 5 CURVE",
"334 5 LINE SMOOTH",
"410 5 OFFCURVE",
"435 -18 OFFCURVE",
"435 -55 CURVE SMOOTH"
);
}
);
width = 600;
}
);
note = g.alt02;
},
{
glyphname = h;
lastChange = "2017-11-24 23:49:52 +0000";
layers = (
{
layerId = "BE301D28-E982-4416-937B-B9987FF5461D";
paths = (
{
closed = 1;
nodes = (
"59 0 LINE",
"137 0 LINE",
"185 285 LINE SMOOTH",
"195 344 OFFCURVE",
"233 390 OFFCURVE",
"244 403 CURVE SMOOTH",
"273 437 OFFCURVE",
"308 459 OFFCURVE",
"353 459 CURVE SMOOTH",
"411 459 OFFCURVE",
"439 421 OFFCURVE",
"439 360 CURVE SMOOTH",
"439 349 OFFCURVE",
"438 329 OFFCURVE",
"434 305 CURVE SMOOTH",
"383 0 LINE",
"461 0 LINE",
"513 312 LINE SMOOTH",
"517 335 OFFCURVE",
"519 359 OFFCURVE",
"519 379 CURVE SMOOTH",
"519 473 OFFCURVE",
"465 528 OFFCURVE",
"379 528 CURVE SMOOTH",
"296 528 OFFCURVE",
"245 476 OFFCURVE",
"207 394 CURVE",
"203 394 LINE",
"261 740 LINE",
"183 740 LINE"
);
}
);
width = 600;
}
);
note = h;
unicode = 0068;
},
{
glyphname = i;
lastChange = "2017-11-24 23:49:52 +0000";
layers = (
{
layerId = "BE301D28-E982-4416-937B-B9987FF5461D";
paths = (
{
closed = 1;
nodes = (
"380 631 OFFCURVE",
"401 649 OFFCURVE",
"406 679 CURVE SMOOTH",
"408 691 OFFCURVE",
"410 700 OFFCURVE",
"410 708 CURVE SMOOTH",
"410 729 OFFCURVE",
"395 748 OFFCURVE",
"352 748 CURVE SMOOTH",
"312 748 OFFCURVE",
"291 730 OFFCURVE",
"286 700 CURVE SMOOTH",
"284 688 OFFCURVE",
"282 679 OFFCURVE",
"282 671 CURVE SMOOTH",
"282 650 OFFCURVE",
"297 631 OFFCURVE",
"340 631 CURVE SMOOTH"
);
},
{
closed = 1;
nodes = (
"317 -12 OFFCURVE",
"354 12 OFFCURVE",
"448 99 CURVE SMOOTH",
"539 183 LINE",
"492 227 LINE",
"295 57 LINE",
"272 66 LINE",
"359 516 LINE",
"93 516 LINE",
"82 449 LINE",
"268 449 LINE",
"200 97 LINE SMOOTH",
"198 85 OFFCURVE",
"195 70 OFFCURVE",
"195 57 CURVE SMOOTH",
"195 17 OFFCURVE",
"222 -12 OFFCURVE",
"272 -12 CURVE SMOOTH"
);
}
);
width = 600;
}
);
note = i;
unicode = 0069;
},
{
glyphname = j;
lastChange = "2017-11-24 23:49:52 +0000";
layers = (
{
layerId = "BE301D28-E982-4416-937B-B9987FF5461D";
paths = (
{
closed = 1;
nodes = (
"334 -212 OFFCURVE",
"361 -162 OFFCURVE",
"370 -107 CURVE SMOOTH",
"474 516 LINE",
"183 516 LINE",
"172 449 LINE",
"385 449 LINE",
"287 -138 LINE",
"269 -142 LINE",
"111 26 LINE",
"58 -22 LINE",
"123 -93 LINE SMOOTH",
"209 -187 OFFCURVE",
"234 -212 OFFCURVE",
"275 -212 CURVE SMOOTH"
);
},
{
closed = 1;
nodes = (
"497 631 OFFCURVE",
"518 649 OFFCURVE",
"523 679 CURVE SMOOTH",
"525 691 OFFCURVE",
"527 700 OFFCURVE",
"527 708 CURVE SMOOTH",
"527 729 OFFCURVE",
"512 748 OFFCURVE",
"469 748 CURVE SMOOTH",
"429 748 OFFCURVE",
"408 730 OFFCURVE",
"403 700 CURVE SMOOTH",
"401 688 OFFCURVE",
"399 679 OFFCURVE",
"399 671 CURVE SMOOTH",
"399 650 OFFCURVE",
"414 631 OFFCURVE",
"457 631 CURVE SMOOTH"
);
}
);
width = 600;
}
);
note = j;
unicode = 006A;
},
{
glyphname = k;
lastChange = "2017-11-24 23:49:52 +0000";
layers = (
{
layerId = "BE301D28-E982-4416-937B-B9987FF5461D";
paths = (
{
closed = 1;
nodes = (
"59 0 LINE",
"137 0 LINE",
"185 285 LINE SMOOTH",
"192 328 OFFCURVE",
"213 366 OFFCURVE",
"242 402 CURVE SMOOTH",
"270 436 OFFCURVE",
"304 461 OFFCURVE",
"355 461 CURVE SMOOTH",
"409 461 OFFCURVE",
"439 433 OFFCURVE",
"439 386 CURVE SMOOTH",
"439 325 OFFCURVE",
"388 268 OFFCURVE",
"221 227 CURVE",
"302 51 LINE SMOOTH",
"323 5 OFFCURVE",
"345 -12 OFFCURVE",
"379 -12 CURVE SMOOTH",
"417 -12 OFFCURVE",
"447 10 OFFCURVE",
"499 62 CURVE SMOOTH",
"570 133 LINE",
"527 178 LINE",
"394 56 LINE",
"381 58 LINE",
"310 213 LINE",
"485 256 OFFCURVE",
"519 339 OFFCURVE",
"519 401 CURVE SMOOTH",
"519 478 OFFCURVE",
"466 528 OFFCURVE",
"384 528 CURVE SMOOTH",
"298 528 OFFCURVE",
"244 473 OFFCURVE",
"207 394 CURVE",
"203 394 LINE",
"261 740 LINE",
"183 740 LINE"
);
}
);
width = 600;
}
);
note = k;
unicode = 006B;
},
{
glyphname = l;
lastChange = "2017-11-24 23:49:52 +0000";
layers = (
{
layerId = "BE301D28-E982-4416-937B-B9987FF5461D";
paths = (
{
closed = 1;
nodes = (
"289 -12 OFFCURVE",
"325 5 OFFCURVE",
"422 93 CURVE SMOOTH",
"526 187 LINE",
"481 231 LINE",
"276 57 LINE",
"251 65 LINE",
"381 740 LINE",
"118 740 LINE",
"107 673 LINE",
"289 673 LINE",
"177 91 LINE SMOOTH",
"175 82 OFFCURVE",
"174 68 OFFCURVE",
"174 59 CURVE SMOOTH",
"174 18 OFFCURVE",
"195 -12 OFFCURVE",
"249 -12 CURVE SMOOTH"
);
}
);
width = 600;
}
);
note = l;
unicode = 006C;
},
{
glyphname = m;
lastChange = "2017-11-24 23:49:52 +0000";
layers = (
{
layerId = "BE301D28-E982-4416-937B-B9987FF5461D";
paths = (
{
closed = 1;
nodes = (
"84 0 LINE",
"140 334 LINE SMOOTH",
"145 364 OFFCURVE",
"157 397 OFFCURVE",
"176 424 CURVE SMOOTH",
"192 447 OFFCURVE",
"215 464 OFFCURVE",
"243 464 CURVE SMOOTH",
"271 464 OFFCURVE",
"285 447 OFFCURVE",
"285 405 CURVE SMOOTH",
"285 389 OFFCURVE",
"283 370 OFFCURVE",
"279 346 CURVE SMOOTH",
"221 0 LINE",
"293 0 LINE",
"349 334 LINE SMOOTH",
"354 364 OFFCURVE",
"366 398 OFFCURVE",
"385 424 CURVE SMOOTH",
"402 447 OFFCURVE",
"422 464 OFFCURVE",
"450 464 CURVE SMOOTH",
"480 464 OFFCURVE",
"494 445 OFFCURVE",
"494 408 CURVE SMOOTH",
"494 394 OFFCURVE",
"491 370 OFFCURVE",
"487 346 CURVE SMOOTH",
"429 0 LINE",
"501 0 LINE",
"561 359 LINE SMOOTH",
"565 383 OFFCURVE",
"568 410 OFFCURVE",
"568 429 CURVE SMOOTH",
"568 492 OFFCURVE",
"537 528 OFFCURVE",
"480 528 CURVE SMOOTH",
"420 528 OFFCURVE",
"381 489 OFFCURVE",
"355 430 CURVE",
"352 430 LINE",
"356 486 OFFCURVE",
"331 528 OFFCURVE",
"273 528 CURVE SMOOTH",
"216 528 OFFCURVE",
"185 487 OFFCURVE",
"161 435 CURVE",
"157 435 LINE",
"170 516 LINE",
"98 516 LINE",
"12 0 LINE"
);
}
);
width = 600;
}
);
note = m;
unicode = 006D;
},
{
glyphname = n;
lastChange = "2017-11-24 23:49:52 +0000";
layers = (
{
layerId = "BE301D28-E982-4416-937B-B9987FF5461D";
paths = (
{
closed = 1;
nodes = (
"137 0 LINE",
"185 285 LINE SMOOTH",
"195 344 OFFCURVE",
"233 390 OFFCURVE",
"244 403 CURVE SMOOTH",
"273 437 OFFCURVE",
"308 459 OFFCURVE",
"353 459 CURVE SMOOTH",
"411 459 OFFCURVE",
"439 421 OFFCURVE",
"439 360 CURVE SMOOTH",
"439 349 OFFCURVE",
"438 329 OFFCURVE",
"434 305 CURVE SMOOTH",
"383 0 LINE",
"461 0 LINE",
"513 312 LINE SMOOTH",
"517 335 OFFCURVE",
"519 359 OFFCURVE",
"519 379 CURVE SMOOTH",
"519 473 OFFCURVE",
"465 528 OFFCURVE",
"379 528 CURVE SMOOTH",
"296 528 OFFCURVE",
"245 476 OFFCURVE",
"207 394 CURVE",
"203 394 LINE",
"223 516 LINE",
"145 516 LINE",
"59 0 LINE"
);
}
);
width = 600;
}
);
note = n;
unicode = 006E;
},
{
glyphname = o;
lastChange = "2017-11-24 23:49:52 +0000";
layers = (
{
layerId = "BE301D28-E982-4416-937B-B9987FF5461D";
paths = (
{
closed = 1;
nodes = (
"417 -12 OFFCURVE",
"536 113 OFFCURVE",
"536 310 CURVE SMOOTH",
"536 439 OFFCURVE",
"468 528 OFFCURVE",
"334 528 CURVE SMOOTH",
"183 528 OFFCURVE",
"64 403 OFFCURVE",
"64 206 CURVE SMOOTH",
"64 77 OFFCURVE",
"133 -12 OFFCURVE",
"265 -12 CURVE SMOOTH"
);
},
{
closed = 1;
nodes = (
"192 56 OFFCURVE",
"143 96 OFFCURVE",
"143 183 CURVE SMOOTH",
"143 195 OFFCURVE",
"144 210 OFFCURVE",
"148 234 CURVE SMOOTH",
"158 294 LINE SMOOTH",
"175 396 OFFCURVE",
"234 460 OFFCURVE",
"331 460 CURVE SMOOTH",
"408 460 OFFCURVE",
"457 420 OFFCURVE",
"457 333 CURVE SMOOTH",
"457 321 OFFCURVE",
"456 306 OFFCURVE",
"452 282 CURVE SMOOTH",
"442 222 LINE SMOOTH",
"425 120 OFFCURVE",
"366 56 OFFCURVE",
"269 56 CURVE SMOOTH"
);
}
);
width = 600;
}
);
note = o;
unicode = 006F;
},
{
glyphname = p;
lastChange = "2017-11-24 23:49:52 +0000";
layers = (
{
layerId = "BE301D28-E982-4416-937B-B9987FF5461D";
paths = (
{
closed = 1;
nodes = (
"19 -200 LINE",
"97 -200 LINE",
"146 90 LINE",
"149 90 LINE",
"171 23 OFFCURVE",
"224 -12 OFFCURVE",
"300 -12 CURVE SMOOTH",
"482 -12 OFFCURVE",
"544 190 OFFCURVE",
"544 328 CURVE SMOOTH",
"544 460 OFFCURVE",
"487 528 OFFCURVE",
"383 528 CURVE SMOOTH",
"292 528 OFFCURVE",
"240 475 OFFCURVE",
"200 394 CURVE",
"197 394 LINE",
"217 516 LINE",
"139 516 LINE"
);
},
{
closed = 1;
nodes = (
"200 57 OFFCURVE",
"147 98 OFFCURVE",
"159 170 CURVE SMOOTH",
"178 284 LINE SMOOTH",
"186 332 OFFCURVE",
"209 373 OFFCURVE",
"235 402 CURVE SMOOTH",
"271 442 OFFCURVE",
"313 459 OFFCURVE",
"356 459 CURVE SMOOTH",
"428 459 OFFCURVE",
"465 413 OFFCURVE",
"465 336 CURVE SMOOTH",
"465 323 OFFCURVE",
"464 309 OFFCURVE",
"461 291 CURVE SMOOTH",
"449 219 LINE SMOOTH",
"433 123 OFFCURVE",
"376 57 OFFCURVE",
"277 57 CURVE SMOOTH"
);
}
);
width = 600;
}
);
note = p;
unicode = 0070;
},
{
glyphname = q;
lastChange = "2017-11-24 23:49:52 +0000";
layers = (
{
layerId = "BE301D28-E982-4416-937B-B9987FF5461D";
paths = (
{
closed = 1;
nodes = (
"349 -200 LINE",
"427 -200 LINE",
"547 516 LINE",
"469 516 LINE",
"454 426 LINE",
"451 426 LINE",
"429 493 OFFCURVE",
"376 528 OFFCURVE",
"300 528 CURVE SMOOTH",
"118 528 OFFCURVE",
"56 326 OFFCURVE",
"56 188 CURVE SMOOTH",
"56 56 OFFCURVE",
"113 -12 OFFCURVE",
"217 -12 CURVE SMOOTH",
"308 -12 OFFCURVE",
"360 41 OFFCURVE",
"400 122 CURVE",
"403 122 LINE"
);
},
{
closed = 1;
nodes = (
"172 57 OFFCURVE",
"135 103 OFFCURVE",
"135 180 CURVE SMOOTH",
"135 193 OFFCURVE",
"136 207 OFFCURVE",
"139 225 CURVE SMOOTH",
"151 297 LINE SMOOTH",
"167 393 OFFCURVE",
"224 459 OFFCURVE",
"323 459 CURVE SMOOTH",
"400 459 OFFCURVE",
"453 418 OFFCURVE",
"441 346 CURVE SMOOTH",
"422 232 LINE SMOOTH",
"414 184 OFFCURVE",
"391 143 OFFCURVE",
"365 114 CURVE SMOOTH",
"329 74 OFFCURVE",
"287 57 OFFCURVE",
"244 57 CURVE SMOOTH"
);
}
);
width = 600;
}
);
note = q;
unicode = 0071;
},
{
glyphname = r;
lastChange = "2017-11-24 23:49:52 +0000";
layers = (
{
layerId = "BE301D28-E982-4416-937B-B9987FF5461D";
paths = (
{
closed = 1;
nodes = (
"256 0 LINE",
"301 269 LINE SMOOTH",
"311 329 OFFCURVE",
"347 371 OFFCURVE",
"360 386 CURVE SMOOTH",
"391 422 OFFCURVE",
"428 438 OFFCURVE",
"488 438 CURVE SMOOTH",
"576 438 LINE",
"589 516 LINE",
"511 516 LINE SMOOTH",
"412 516 OFFCURVE",
"360 460 OFFCURVE",
"324 378 CURVE",
"319 378 LINE",
"342 516 LINE",
"119 516 LINE",
"108 449 LINE",
"253 449 LINE",
"178 0 LINE"
);
}
);
width = 600;
}
);
note = r;
unicode = 0072;
},
{
glyphname = s;
lastChange = "2017-11-24 23:49:52 +0000";
layers = (
{
layerId = "BE301D28-E982-4416-937B-B9987FF5461D";
paths = (
{
closed = 1;
nodes = (
"406 -12 OFFCURVE",
"499 54 OFFCURVE",
"499 161 CURVE SMOOTH",
"499 263 OFFCURVE",
"414 279 OFFCURVE",
"348 290 CURVE SMOOTH",
"275 302 LINE SMOOTH",
"233 309 OFFCURVE",
"195 320 OFFCURVE",
"195 370 CURVE SMOOTH",
"195 426 OFFCURVE",
"242 462 OFFCURVE",
"331 462 CURVE SMOOTH",
"418 462 OFFCURVE",
"460 428 OFFCURVE",
"478 401 CURVE",
"533 449 LINE",
"494 498 OFFCURVE",
"430 528 OFFCURVE",
"340 528 CURVE SMOOTH",
"218 528 OFFCURVE",
"119 473 OFFCURVE",
"119 364 CURVE SMOOTH",
"119 268 OFFCURVE",
"197 243 OFFCURVE",
"272 232 CURVE SMOOTH",
"347 221 LINE SMOOTH",
"389 215 OFFCURVE",
"422 201 OFFCURVE",
"422 153 CURVE SMOOTH",
"422 91 OFFCURVE",
"366 54 OFFCURVE",
"275 54 CURVE SMOOTH",
"197 54 OFFCURVE",
"146 81 OFFCURVE",
"106 131 CURVE",
"48 85 LINE",
"93 23 OFFCURVE",
"168 -12 OFFCURVE",
"268 -12 CURVE SMOOTH"
);
}
);
width = 600;
}
);
note = s;
unicode = 0073;
},
{
glyphname = t;
lastChange = "2017-11-24 23:49:52 +0000";
layers = (
{
layerId = "BE301D28-E982-4416-937B-B9987FF5461D";
paths = (
{
closed = 1;
nodes = (
"280 -12 OFFCURVE",
"320 9 OFFCURVE",
"413 75 CURVE SMOOTH",
"526 155 LINE",
"487 205 LINE",
"262 55 LINE",
"242 67 LINE",
"306 449 LINE",
"519 449 LINE",
"530 516 LINE",
"317 516 LINE",
"348 698 LINE",
"274 698 LINE",
"251 563 LINE SMOOTH",
"245 528 OFFCURVE",
"229 516 OFFCURVE",
"195 516 CURVE SMOOTH",
"90 516 LINE",
"79 449 LINE",
"228 449 LINE",
"168 101 LINE SMOOTH",
"166 90 OFFCURVE",
"165 71 OFFCURVE",
"165 62 CURVE SMOOTH",
"165 14 OFFCURVE",
"192 -12 OFFCURVE",
"239 -12 CURVE SMOOTH"
);
}
);
width = 600;
}
);
note = t;
unicode = 0074;
},
{
glyphname = u;
lastChange = "2017-11-24 23:49:52 +0000";
layers = (
{
layerId = "BE301D28-E982-4416-937B-B9987FF5461D";
paths = (
{
closed = 1;
nodes = (
"379 0 LINE",
"457 0 LINE",
"543 516 LINE",
"465 516 LINE",
"417 231 LINE SMOOTH",
"407 172 OFFCURVE",
"369 126 OFFCURVE",
"358 113 CURVE SMOOTH",
"329 79 OFFCURVE",
"294 57 OFFCURVE",
"249 57 CURVE SMOOTH",
"191 57 OFFCURVE",
"163 95 OFFCURVE",
"163 156 CURVE SMOOTH",
"163 167 OFFCURVE",
"164 187 OFFCURVE",
"168 211 CURVE SMOOTH",
"219 516 LINE",
"141 516 LINE",
"89 204 LINE SMOOTH",
"85 181 OFFCURVE",
"83 157 OFFCURVE",
"83 137 CURVE SMOOTH",
"83 43 OFFCURVE",
"137 -12 OFFCURVE",
"223 -12 CURVE SMOOTH",
"306 -12 OFFCURVE",
"357 40 OFFCURVE",
"395 122 CURVE",
"399 122 LINE"
);
}
);
width = 600;
}
);
note = u;
unicode = 0075;
},
{
glyphname = v;
lastChange = "2017-11-24 23:49:52 +0000";
layers = (
{
layerId = "BE301D28-E982-4416-937B-B9987FF5461D";
paths = (
{
closed = 1;
nodes = (
"77 516 LINE",
"66 449 LINE",
"176 449 LINE",
"124 101 LINE SMOOTH",
"122 89 OFFCURVE",
"120 74 OFFCURVE",
"120 64 CURVE SMOOTH",
"120 19 OFFCURVE",
"145 -8 OFFCURVE",
"197 -8 CURVE SMOOTH",
"383 -8 OFFCURVE",
"541 167 OFFCURVE",
"541 377 CURVE SMOOTH",
"541 431 OFFCURVE",
"529 482 OFFCURVE",
"508 522 CURVE",
"433 500 LINE",
"452 463 OFFCURVE",
"461 418 OFFCURVE",
"461 373 CURVE SMOOTH",
"461 224 OFFCURVE",
"374 75 OFFCURVE",
"208 53 CURVE",
"195 62 LINE",
"263 516 LINE"
);
}
);
width = 600;
}
);
note = v;
unicode = 0076;
},
{
glyphname = w;
lastChange = "2017-11-24 23:49:52 +0000";
layers = (
{
layerId = "BE301D28-E982-4416-937B-B9987FF5461D";
paths = (
{
closed = 1;
nodes = (
"196 -10 OFFCURVE",
"231 30 OFFCURVE",
"260 95 CURVE",
"265 95 LINE",
"260 17 OFFCURVE",
"296 -10 OFFCURVE",
"350 -10 CURVE SMOOTH",
"405 -10 OFFCURVE",
"453 16 OFFCURVE",
"489 66 CURVE SMOOTH",
"539 136 OFFCURVE",
"567 251 OFFCURVE",
"567 371 CURVE SMOOTH",
"567 432 OFFCURVE",
"556 486 OFFCURVE",
"540 521 CURVE",
"474 501 LINE",
"489 469 OFFCURVE",
"497 417 OFFCURVE",
"497 367 CURVE SMOOTH",
"497 220 OFFCURVE",
"441 54 OFFCURVE",
"366 54 CURVE SMOOTH",
"335 54 OFFCURVE",
"322 71 OFFCURVE",
"322 112 CURVE SMOOTH",
"322 129 OFFCURVE",
"323 148 OFFCURVE",
"327 173 CURVE SMOOTH",
"383 516 LINE",
"315 516 LINE",
"258 186 LINE SMOOTH",
"253 160 OFFCURVE",
"244 120 OFFCURVE",
"225 94 CURVE SMOOTH",
"207 70 OFFCURVE",
"188 54 OFFCURVE",
"161 54 CURVE SMOOTH",
"132 54 OFFCURVE",
"116 71 OFFCURVE",
"116 111 CURVE SMOOTH",
"116 129 OFFCURVE",
"118 150 OFFCURVE",
"122 173 CURVE SMOOTH",
"178 516 LINE",
"108 516 LINE",
"49 159 LINE SMOOTH",
"45 133 OFFCURVE",
"43 113 OFFCURVE",
"43 92 CURVE SMOOTH",
"43 30 OFFCURVE",
"73 -10 OFFCURVE",
"133 -10 CURVE SMOOTH"
);
}
);
width = 600;
}
);
note = w;
unicode = 0077;
},
{
glyphname = x;
lastChange = "2017-11-24 23:49:52 +0000";
layers = (
{
layerId = "BE301D28-E982-4416-937B-B9987FF5461D";
paths = (
{
closed = 1;
nodes = (
"185 -12 OFFCURVE",
"241 40 OFFCURVE",
"268 166 CURVE",
"275 165 LINE",
"275 79 OFFCURVE",
"276 -12 OFFCURVE",
"356 -12 CURVE SMOOTH",
"387 -12 OFFCURVE",
"428 2 OFFCURVE",
"501 65 CURVE SMOOTH",
"551 108 LINE",
"518 154 LINE",
"370 50 LINE",
"355 57 LINE",
"340 87 OFFCURVE",
"337 151 OFFCURVE",
"337 179 CURVE SMOOTH",
"337 285 OFFCURVE",
"383 466 OFFCURVE",
"475 466 CURVE SMOOTH",
"507 466 OFFCURVE",
"519 443 OFFCURVE",
"519 393 CURVE SMOOTH",
"519 379 OFFCURVE",
"518 359 OFFCURVE",
"515 336 CURVE",
"588 342 LINE",
"593 377 OFFCURVE",
"593 397 OFFCURVE",
"593 409 CURVE SMOOTH",
"593 489 OFFCURVE",
"561 528 OFFCURVE",
"494 528 CURVE SMOOTH",
"415 528 OFFCURVE",
"359 476 OFFCURVE",
"332 350 CURVE",
"325 351 LINE",
"325 434 OFFCURVE",
"324 528 OFFCURVE",
"246 528 CURVE SMOOTH",
"205 528 OFFCURVE",
"159 502 OFFCURVE",
"109 465 CURVE SMOOTH",
"43 416 LINE",
"74 369 LINE",
"232 466 LINE",
"247 459 LINE",
"260 430 OFFCURVE",
"263 364 OFFCURVE",
"263 337 CURVE SMOOTH",
"263 231 OFFCURVE",
"217 50 OFFCURVE",
"125 50 CURVE SMOOTH",
"93 50 OFFCURVE",
"81 73 OFFCURVE",
"81 123 CURVE SMOOTH",
"81 137 OFFCURVE",
"82 157 OFFCURVE",
"85 180 CURVE",
"12 174 LINE",
"7 138 OFFCURVE",
"7 119 OFFCURVE",
"7 107 CURVE SMOOTH",
"7 27 OFFCURVE",
"39 -12 OFFCURVE",
"106 -12 CURVE SMOOTH"
);
}
);
width = 600;
}
);
note = x;
unicode = 0078;
},
{
glyphname = y;
lastChange = "2017-11-24 23:49:52 +0000";
layers = (
{
layerId = "BE301D28-E982-4416-937B-B9987FF5461D";
paths = (
{
closed = 1;
nodes = (
"337 -212 OFFCURVE",
"431 -152 OFFCURVE",
"457 0 CURVE SMOOTH",
"543 516 LINE",
"465 516 LINE",
"420 246 LINE SMOOTH",
"410 187 OFFCURVE",
"372 141 OFFCURVE",
"361 128 CURVE SMOOTH",
"332 94 OFFCURVE",
"297 72 OFFCURVE",
"252 72 CURVE SMOOTH",
"194 72 OFFCURVE",
"165 110 OFFCURVE",
"165 171 CURVE SMOOTH",
"165 182 OFFCURVE",
"166 200 OFFCURVE",
"170 223 CURVE SMOOTH",
"219 516 LINE",
"141 516 LINE",
"91 216 LINE SMOOTH",
"87 189 OFFCURVE",
"85 170 OFFCURVE",
"85 152 CURVE SMOOTH",
"85 58 OFFCURVE",
"140 3 OFFCURVE",
"226 3 CURVE SMOOTH",
"309 3 OFFCURVE",
"361 55 OFFCURVE",
"399 137 CURVE",
"402 137 LINE",
"382 15 LINE SMOOTH",
"364 -97 OFFCURVE",
"308 -143 OFFCURVE",
"213 -143 CURVE SMOOTH",
"150 -143 OFFCURVE",
"108 -123 OFFCURVE",
"81 -89 CURVE",
"27 -141 LINE",
"64 -187 OFFCURVE",
"125 -212 OFFCURVE",
"208 -212 CURVE SMOOTH"
);
}
);
width = 600;
}
);
note = y;
unicode = 0079;
},
{
glyphname = z;
lastChange = "2017-11-24 23:49:52 +0000";
layers = (
{
layerId = "BE301D28-E982-4416-937B-B9987FF5461D";
paths = (
{
closed = 1;
nodes = (
"487 -10 OFFCURVE",
"524 32 OFFCURVE",
"524 76 CURVE SMOOTH",
"524 107 OFFCURVE",
"512 146 OFFCURVE",
"498 180 CURVE SMOOTH",
"482 220 LINE",
"425 200 LINE",
"456 64 LINE",
"445 53 LINE",
"190 112 LINE",
"548 440 LINE",
"559 516 LINE",
"480 516 LINE",
"470 453 LINE",
"465 449 LINE",
"445 461 LINE SMOOTH",
"368 507 OFFCURVE",
"313 528 OFFCURVE",
"258 528 CURVE SMOOTH",
"159 528 OFFCURVE",
"102 466 OFFCURVE",
"102 353 CURVE SMOOTH",
"102 341 LINE",
"166 341 LINE",
"166 403 OFFCURVE",
"177 462 OFFCURVE",
"255 462 CURVE SMOOTH",
"292 462 OFFCURVE",
"338 449 OFFCURVE",
"420 407 CURVE",
"62 78 LINE",
"51 0 LINE",
"130 0 LINE",
"140 66 LINE",
"145 70 LINE",
"324 10 LINE SMOOTH",
"367 -4 OFFCURVE",
"397 -10 OFFCURVE",
"425 -10 CURVE SMOOTH"
);
}
);
width = 600;
}
);
note = z;
unicode = 007A;
},
{
glyphname = A;
lastChange = "2017-11-24 23:49:52 +0000";
layers = (
{
layerId = "BE301D28-E982-4416-937B-B9987FF5461D";
paths = (
{
closed = 1;
nodes = (
"528 0 LINE",
"431 698 LINE",
"321 698 LINE",
"-9 0 LINE",
"79 0 LINE",
"171 199 LINE",
"417 199 LINE",
"442 0 LINE"
);
},
{
closed = 1;
nodes = (
"409 272 LINE",
"202 272 LINE",
"357 614 LINE",
"366 614 LINE"
);
}
);
width = 600;
}
);
note = A;
unicode = 0041;
},
{
glyphname = B;
lastChange = "2017-11-24 23:49:52 +0000";
layers = (
{
layerId = "BE301D28-E982-4416-937B-B9987FF5461D";
paths = (
{
closed = 1;
nodes = (
"46 0 LINE",
"313 0 LINE SMOOTH",
"442 0 OFFCURVE",
"531 106 OFFCURVE",
"531 222 CURVE SMOOTH",
"531 305 OFFCURVE",
"485 343 OFFCURVE",
"423 362 CURVE",
"424 366 LINE",
"501 387 OFFCURVE",
"556 445 OFFCURVE",
"556 537 CURVE SMOOTH",
"556 635 OFFCURVE",
"497 698 OFFCURVE",
"388 698 CURVE SMOOTH",
"163 698 LINE"
);
},
{
closed = 1;
nodes = (
"139 72 LINE",
"182 327 LINE",
"338 327 LINE SMOOTH",
"407 327 OFFCURVE",
"447 296 OFFCURVE",
"447 245 CURVE SMOOTH",
"447 232 OFFCURVE",
"445 220 OFFCURVE",
"443 208 CURVE SMOOTH",
"438 178 LINE SMOOTH",
"426 106 OFFCURVE",
"376 72 OFFCURVE",
"296 72 CURVE SMOOTH"
);
},
{
closed = 1;
nodes = (
"193 395 LINE",
"231 626 LINE",
"374 626 LINE SMOOTH",
"434 626 OFFCURVE",
"472 604 OFFCURVE",
"472 551 CURVE SMOOTH",
"472 541 OFFCURVE",
"471 531 OFFCURVE",
"469 519 CURVE SMOOTH",
"464 489 LINE SMOOTH",
"454 429 OFFCURVE",
"411 395 OFFCURVE",
"336 395 CURVE SMOOTH"
);
}
);
width = 600;
}
);
note = B;
unicode = 0042;
},
{
glyphname = C;
lastChange = "2017-11-24 23:49:52 +0000";
layers = (
{
layerId = "BE301D28-E982-4416-937B-B9987FF5461D";
paths = (
{
closed = 1;
nodes = (
"412 -12 OFFCURVE",
"479 55 OFFCURVE",
"532 165 CURVE",
"467 198 LINE",
"414 104 OFFCURVE",
"376 60 OFFCURVE",
"296 60 CURVE SMOOTH",
"200 60 OFFCURVE",
"160 123 OFFCURVE",
"160 219 CURVE SMOOTH",
"160 247 OFFCURVE",
"163 277 OFFCURVE",
"168 307 CURVE SMOOTH",
"184 403 LINE SMOOTH",
"208 547 OFFCURVE",
"273 638 OFFCURVE",
"385 638 CURVE SMOOTH",
"468 638 OFFCURVE",
"494 588 OFFCURVE",
"508 528 CURVE",
"582 552 LINE",
"567 629 OFFCURVE",
"520 710 OFFCURVE",
"391 710 CURVE SMOOTH",
"138 710 OFFCURVE",
"78 401 OFFCURVE",
"78 240 CURVE SMOOTH",
"78 78 OFFCURVE",
"142 -12 OFFCURVE",
"287 -12 CURVE SMOOTH"
);
}
);
width = 600;
}
);
note = C;
unicode = 0043;
},
{
glyphname = D;
lastChange = "2017-11-24 23:49:52 +0000";
layers = (
{
layerId = "BE301D28-E982-4416-937B-B9987FF5461D";
paths = (
{
closed = 1;
nodes = (
"55 0 LINE",
"248 0 LINE SMOOTH",
"443 0 OFFCURVE",
"565 148 OFFCURVE",
"565 473 CURVE SMOOTH",
"565 602 OFFCURVE",
"489 698 OFFCURVE",
"343 698 CURVE SMOOTH",
"172 698 LINE"
);
},
{
closed = 1;
nodes = (
"149 72 LINE",
"242 626 LINE",
"333 626 LINE SMOOTH",
"431 626 OFFCURVE",
"483 572 OFFCURVE",
"483 471 CURVE SMOOTH",
"483 443 OFFCURVE",
"480 409 OFFCURVE",
"476 385 CURVE SMOOTH",
"460 289 LINE SMOOTH",
"436 146 OFFCURVE",
"366 72 OFFCURVE",
"255 72 CURVE SMOOTH"
);
}
);
width = 600;
}
);
note = D;
unicode = 0044;
},
{
glyphname = E;
lastChange = "2017-11-24 23:49:52 +0000";
layers = (
{
layerId = "BE301D28-E982-4416-937B-B9987FF5461D";
paths = (
{
closed = 1;
nodes = (
"477 0 LINE",
"489 72 LINE",
"141 72 LINE",
"182 318 LINE",
"517 318 LINE",
"529 390 LINE",
"194 390 LINE",
"234 626 LINE",
"580 626 LINE",
"592 698 LINE",
"164 698 LINE",
"47 0 LINE"
);
}
);
width = 600;
}
);
note = E;
unicode = 0045;
},
{
glyphname = F;
lastChange = "2017-11-24 23:49:52 +0000";
layers = (
{
layerId = "BE301D28-E982-4416-937B-B9987FF5461D";
paths = (
{
closed = 1;
nodes = (
"129 0 LINE",
"182 317 LINE",
"509 317 LINE",
"521 389 LINE",
"194 389 LINE",
"234 626 LINE",
"590 626 LINE",
"602 698 LINE",
"164 698 LINE",
"47 0 LINE"
);
}
);
width = 600;
}
);
note = F;
unicode = 0046;
},
{
glyphname = G;
lastChange = "2017-11-24 23:49:52 +0000";
layers = (
{
layerId = "BE301D28-E982-4416-937B-B9987FF5461D";
paths = (
{
closed = 1;
nodes = (
"404 0 LINE",
"480 0 LINE",
"537 344 LINE",
"315 344 LINE",
"304 278 LINE",
"450 278 LINE",
"441 224 LINE SMOOTH",
"426 134 OFFCURVE",
"367 58 OFFCURVE",
"272 58 CURVE SMOOTH",
"184 58 OFFCURVE",
"150 123 OFFCURVE",
"150 225 CURVE SMOOTH",
"150 242 OFFCURVE",
"151 276 OFFCURVE",
"156 306 CURVE SMOOTH",
"172 402 LINE SMOOTH",
"196 545 OFFCURVE",
"259 638 OFFCURVE",
"373 638 CURVE SMOOTH",
"456 638 OFFCURVE",
"482 588 OFFCURVE",
"496 528 CURVE",
"570 552 LINE",
"555 629 OFFCURVE",
"508 710 OFFCURVE",
"379 710 CURVE SMOOTH",
"127 710 OFFCURVE",
"66 401 OFFCURVE",
"66 240 CURVE SMOOTH",
"66 74 OFFCURVE",
"128 -12 OFFCURVE",
"246 -12 CURVE SMOOTH",
"337 -12 OFFCURVE",
"379 40 OFFCURVE",
"416 102 CURVE",
"421 102 LINE"
);
}
);
width = 600;
}
);
note = G;
unicode = 0047;
},
{
glyphname = H;
lastChange = "2017-11-24 23:49:52 +0000";
layers = (
{
layerId = "BE301D28-E982-4416-937B-B9987FF5461D";
paths = (
{
closed = 1;
nodes = (
"393 0 LINE",
"475 0 LINE",
"592 698 LINE",
"510 698 LINE",
"458 390 LINE",
"186 390 LINE",
"238 698 LINE",
"156 698 LINE",
"39 0 LINE",
"121 0 LINE",
"174 318 LINE",
"446 318 LINE"
);
}
);
width = 600;
}
);
note = H;
unicode = 0048;
},
{
glyphname = I;
lastChange = "2017-11-24 23:49:52 +0000";
layers = (
{
layerId = "BE301D28-E982-4416-937B-B9987FF5461D";
paths = (
{
closed = 1;
nodes = (
"473 0 LINE",
"484 66 LINE",
"309 66 LINE",
"404 632 LINE",
"579 632 LINE",
"590 698 LINE",
"158 698 LINE",
"147 632 LINE",
"322 632 LINE",
"227 66 LINE",
"52 66 LINE",
"41 0 LINE"
);
}
);
width = 600;
}
);
note = I;
unicode = 0049;
},
{
glyphname = J;
lastChange = "2017-11-24 23:49:52 +0000";
layers = (
{
layerId = "BE301D28-E982-4416-937B-B9987FF5461D";
paths = (
{
closed = 1;
nodes = (
"217 698 LINE",
"205 626 LINE",
"459 626 LINE",
"387 195 LINE SMOOTH",
"372 105 OFFCURVE",
"326 61 OFFCURVE",
"251 61 CURVE SMOOTH",
"166 61 OFFCURVE",
"144 109 OFFCURVE",
"137 168 CURVE",
"58 151 LINE",
"69 43 OFFCURVE",
"142 -12 OFFCURVE",
"249 -12 CURVE SMOOTH",
"362 -12 OFFCURVE",
"444 45 OFFCURVE",
"465 170 CURVE SMOOTH",
"553 698 LINE"
);
}
);
width = 600;
}
);
note = J;
unicode = 004A;
},
{
glyphname = K;
lastChange = "2017-11-24 23:49:52 +0000";
layers = (
{
layerId = "BE301D28-E982-4416-937B-B9987FF5461D";
paths = (
{
closed = 1;
nodes = (
"440 0 LINE",
"530 0 LINE",
"347 402 LINE",
"645 698 LINE",
"541 698 LINE",
"319 477 LINE",
"185 335 LINE",
"181 335 LINE",
"242 698 LINE",
"160 698 LINE",
"43 0 LINE",
"125 0 LINE",
"162 221 LINE",
"287 345 LINE"
);
}
);
width = 600;
}
);
note = K;
unicode = 004B;
},
{
glyphname = L;
lastChange = "2017-11-24 23:49:52 +0000";
layers = (
{
layerId = "BE301D28-E982-4416-937B-B9987FF5461D";
paths = (
{
closed = 1;
nodes = (
"491 0 LINE",
"503 72 LINE",
"172 72 LINE",
"276 698 LINE",
"195 698 LINE",
"78 0 LINE"
);
}
);
width = 600;
}
);
note = L;
unicode = 004C;
},
{
glyphname = M;
lastChange = "2017-11-24 23:49:52 +0000";
layers = (
{
layerId = "BE301D28-E982-4416-937B-B9987FF5461D";
paths = (
{
closed = 1;
nodes = (
"413 0 LINE",
"488 0 LINE",
"605 698 LINE",
"500 698 LINE",
"323 389 LINE",
"317 389 LINE",
"243 698 LINE",
"143 698 LINE",
"26 0 LINE",
"101 0 LINE",
"159 350 LINE",
"196 574 LINE",
"203 574 LINE",
"292 214 LINE",
"503 574 LINE",
"510 574 LINE",
"472 350 LINE"
);
}
);
width = 600;
}
);
note = M;
unicode = 004D;
},
{
glyphname = N;
lastChange = "2017-11-24 23:49:52 +0000";
layers = (
{
layerId = "BE301D28-E982-4416-937B-B9987FF5461D";
paths = (
{
closed = 1;
nodes = (
"356 0 LINE",
"475 0 LINE",
"592 698 LINE",
"516 698 LINE",
"415 96 LINE",
"408 96 LINE",
"275 698 LINE",
"156 698 LINE",
"39 0 LINE",
"115 0 LINE",
"216 602 LINE",
"223 602 LINE"
);
}
);
width = 600;
}
);
note = N;
unicode = 004E;
},
{
glyphname = O;
lastChange = "2017-11-24 23:49:52 +0000";
layers = (
{
layerId = "BE301D28-E982-4416-937B-B9987FF5461D";
paths = (
{
closed = 1;
nodes = (
"510 -12 OFFCURVE",
"570 297 OFFCURVE",
"570 473 CURVE SMOOTH",
"570 625 OFFCURVE",
"508 710 OFFCURVE",
"372 710 CURVE SMOOTH",
"122 710 OFFCURVE",
"62 401 OFFCURVE",
"62 225 CURVE SMOOTH",
"62 73 OFFCURVE",
"124 -12 OFFCURVE",
"260 -12 CURVE SMOOTH"
);
},
{
closed = 1;
nodes = (
"178 60 OFFCURVE",
"143 115 OFFCURVE",
"143 210 CURVE SMOOTH",
"143 233 OFFCURVE",
"145 262 OFFCURVE",
"150 292 CURVE SMOOTH",
"169 406 LINE SMOOTH",
"193 549 OFFCURVE",
"259 638 OFFCURVE",
"366 638 CURVE SMOOTH",
"454 638 OFFCURVE",
"489 583 OFFCURVE",
"489 488 CURVE SMOOTH",
"489 465 OFFCURVE",
"487 436 OFFCURVE",
"482 406 CURVE SMOOTH",
"463 292 LINE SMOOTH",
"439 149 OFFCURVE",
"373 60 OFFCURVE",
"266 60 CURVE SMOOTH"
);
}
);
width = 600;
}
);
note = O;
unicode = 004F;
},
{
glyphname = P;
lastChange = "2017-11-24 23:49:52 +0000";
layers = (
{
layerId = "BE301D28-E982-4416-937B-B9987FF5461D";
paths = (
{
closed = 1;
nodes = (
"129 0 LINE",
"179 297 LINE",
"355 297 LINE SMOOTH",
"501 297 OFFCURVE",
"584 386 OFFCURVE",
"584 534 CURVE SMOOTH",
"584 631 OFFCURVE",
"530 698 OFFCURVE",
"413 698 CURVE SMOOTH",
"164 698 LINE",
"47 0 LINE"
);
},
{
closed = 1;
nodes = (
"234 626 LINE",
"403 626 LINE SMOOTH",
"464 626 OFFCURVE",
"500 598 OFFCURVE",
"500 543 CURVE SMOOTH",
"500 530 OFFCURVE",
"499 516 OFFCURVE",
"497 504 CURVE SMOOTH",
"491 468 LINE SMOOTH",
"481 408 OFFCURVE",
"438 369 OFFCURVE",
"363 369 CURVE SMOOTH",
"191 369 LINE"
);
}
);
width = 600;
}
);
note = P;
unicode = 0050;
},
{
glyphname = Q;
lastChange = "2017-11-24 23:49:52 +0000";
layers = (
{
layerId = "BE301D28-E982-4416-937B-B9987FF5461D";
paths = (
{
closed = 1;
nodes = (
"421 -182 OFFCURVE",
"441 -163 OFFCURVE",
"484 -122 CURVE SMOOTH",
"545 -64 LINE",
"501 -27 LINE",
"401 -117 LINE",
"388 -114 LINE",
"316 -6 LINE",
"517 35 OFFCURVE",
"570 307 OFFCURVE",
"570 473 CURVE SMOOTH",
"570 625 OFFCURVE",
"508 710 OFFCURVE",
"372 710 CURVE SMOOTH",
"122 710 OFFCURVE",
"62 401 OFFCURVE",
"62 225 CURVE SMOOTH",
"62 85 OFFCURVE",
"114 1 OFFCURVE",
"229 -10 CURVE",
"316 -137 LINE SMOOTH",
"334 -163 OFFCURVE",
"353 -182 OFFCURVE",
"384 -182 CURVE SMOOTH"
);
},
{
closed = 1;
nodes = (
"178 60 OFFCURVE",
"143 115 OFFCURVE",
"143 210 CURVE SMOOTH",
"143 233 OFFCURVE",
"145 262 OFFCURVE",
"150 292 CURVE SMOOTH",
"169 406 LINE SMOOTH",
"193 549 OFFCURVE",
"259 638 OFFCURVE",
"366 638 CURVE SMOOTH",
"454 638 OFFCURVE",
"489 583 OFFCURVE",
"489 488 CURVE SMOOTH",
"489 465 OFFCURVE",
"487 436 OFFCURVE",
"482 406 CURVE SMOOTH",
"463 292 LINE SMOOTH",
"439 149 OFFCURVE",
"373 60 OFFCURVE",
"266 60 CURVE SMOOTH"
);
}
);
width = 600;
}
);
note = Q;
unicode = 0051;
},
{
glyphname = R;
lastChange = "2017-11-24 23:49:52 +0000";
layers = (
{
layerId = "BE301D28-E982-4416-937B-B9987FF5461D";
paths = (
{
closed = 1;
nodes = (
"179 299 LINE",
"293 299 LINE",
"412 0 LINE",
"501 0 LINE",
"374 302 LINE",
"506 311 OFFCURVE",
"584 395 OFFCURVE",
"584 534 CURVE SMOOTH",
"584 631 OFFCURVE",
"530 698 OFFCURVE",
"413 698 CURVE SMOOTH",
"164 698 LINE",
"47 0 LINE",
"129 0 LINE"
);
},
{
closed = 1;
nodes = (
"191 369 LINE",
"234 626 LINE",
"403 626 LINE SMOOTH",
"464 626 OFFCURVE",
"500 598 OFFCURVE",
"500 543 CURVE SMOOTH",
"500 530 OFFCURVE",
"499 516 OFFCURVE",
"497 504 CURVE SMOOTH",
"491 468 LINE SMOOTH",
"480 402 OFFCURVE",
"431 369 OFFCURVE",
"363 369 CURVE SMOOTH"
);
}
);
width = 600;
}
);
note = R;
unicode = 0052;
},
{
glyphname = S;
lastChange = "2017-11-24 23:49:52 +0000";
layers = (
{
layerId = "BE301D28-E982-4416-937B-B9987FF5461D";
paths = (
{
closed = 1;
nodes = (
"429 -12 OFFCURVE",
"532 80 OFFCURVE",
"532 212 CURVE SMOOTH",
"532 297 OFFCURVE",
"490 355 OFFCURVE",
"374 382 CURVE SMOOTH",
"301 399 LINE SMOOTH",
"227 416 OFFCURVE",
"188 444 OFFCURVE",
"188 508 CURVE SMOOTH",
"188 589 OFFCURVE",
"250 640 OFFCURVE",
"351 640 CURVE SMOOTH",
"430 640 OFFCURVE",
"484 609 OFFCURVE",
"523 551 CURVE",
"583 595 LINE",
"547 658 OFFCURVE",
"476 710 OFFCURVE",
"355 710 CURVE SMOOTH",
"206 710 OFFCURVE",
"104 631 OFFCURVE",
"104 502 CURVE SMOOTH",
"104 412 OFFCURVE",
"153 356 OFFCURVE",
"263 331 CURVE SMOOTH",
"338 314 LINE SMOOTH",
"419 296 OFFCURVE",
"448 262 OFFCURVE",
"448 205 CURVE SMOOTH",
"448 116 OFFCURVE",
"379 59 OFFCURVE",
"270 59 CURVE SMOOTH",
"186 59 OFFCURVE",
"130 93 OFFCURVE",
"87 160 CURVE",
"25 111 LINE",
"66 39 OFFCURVE",
"145 -12 OFFCURVE",
"266 -12 CURVE SMOOTH"
);
}
);
width = 600;
}
);
note = S;
unicode = 0053;
},
{
glyphname = T;
lastChange = "2017-11-24 23:49:52 +0000";
layers = (
{
layerId = "BE301D28-E982-4416-937B-B9987FF5461D";
paths = (
{
closed = 1;
nodes = (
"637 626 LINE",
"649 698 LINE",
"99 698 LINE",
"87 626 LINE",
"321 626 LINE",
"216 0 LINE",
"298 0 LINE",
"403 626 LINE"
);
}
);
width = 600;
}
);
note = T;
unicode = 0054;
},
{
glyphname = U;
lastChange = "2017-11-24 23:49:52 +0000";
layers = (
{
layerId = "BE301D28-E982-4416-937B-B9987FF5461D";
paths = (
{
closed = 1;
nodes = (
"154 698 LINE",
"91 323 LINE SMOOTH",
"82 269 OFFCURVE",
"73 209 OFFCURVE",
"73 166 CURVE SMOOTH",
"73 52 OFFCURVE",
"126 -12 OFFCURVE",
"269 -12 CURVE SMOOTH",
"452 -12 OFFCURVE",
"489 84 OFFCURVE",
"524 291 CURVE SMOOTH",
"592 698 LINE",
"510 698 LINE",
"439 274 LINE SMOOTH",
"416 137 OFFCURVE",
"398 60 OFFCURVE",
"266 60 CURVE SMOOTH",
"177 60 OFFCURVE",
"154 104 OFFCURVE",
"154 173 CURVE SMOOTH",
"154 198 OFFCURVE",
"157 226 OFFCURVE",
"169 298 CURVE SMOOTH",
"236 698 LINE"
);
}
);
width = 600;
}
);
note = U;
unicode = 0055;
},
{
glyphname = V;
lastChange = "2017-11-24 23:49:52 +0000";
layers = (
{
layerId = "BE301D28-E982-4416-937B-B9987FF5461D";
paths = (
{
closed = 1;
nodes = (
"313 0 LINE",
"635 698 LINE",
"549 698 LINE",
"392 349 LINE",
"271 81 LINE",
"266 81 LINE",
"231 349 LINE",
"187 698 LINE",
"109 698 LINE",
"201 0 LINE"
);
}
);
width = 600;
}
);
note = V;
unicode = 0056;
},
{
glyphname = W;
lastChange = "2017-11-24 23:49:52 +0000";
layers = (
{
layerId = "BE301D28-E982-4416-937B-B9987FF5461D";
paths = (
{
closed = 1;
nodes = (
"167 0 LINE",
"322 421 LINE",
"330 421 LINE",
"345 0 LINE",
"466 0 LINE",
"637 698 LINE",
"562 698 LINE",
"467 298 LINE",
"416 82 LINE",
"408 82 LINE",
"387 516 LINE",
"293 516 LINE",
"130 82 LINE",
"122 82 LINE",
"143 305 LINE",
"180 698 LINE",
"107 698 LINE",
"46 0 LINE"
);
}
);
width = 600;
}
);
note = W;
unicode = 0057;
},
{
glyphname = X;
lastChange = "2017-11-24 23:49:52 +0000";
layers = (
{
layerId = "BE301D28-E982-4416-937B-B9987FF5461D";
paths = (
{
closed = 1;
nodes = (
"367 353 LINE",
"643 698 LINE",
"547 698 LINE",
"441 563 LINE",
"332 425 LINE",
"328 425 LINE",
"264 563 LINE",
"202 698 LINE",
"114 698 LINE",
"275 360 LINE",
"-16 0 LINE",
"80 0 LINE",
"191 141 LINE",
"309 290 LINE",
"313 290 LINE",
"381 141 LINE",
"445 0 LINE",
"533 0 LINE"
);
}
);
width = 600;
}
);
note = X;
unicode = 0058;
},
{
glyphname = Y;
lastChange = "2017-11-24 23:49:52 +0000";
layers = (
{
layerId = "BE301D28-E982-4416-937B-B9987FF5461D";
paths = (
{
closed = 1;
nodes = (
"298 0 LINE",
"345 279 LINE",
"656 698 LINE",
"558 698 LINE",
"427 515 LINE",
"312 354 LINE",
"308 354 LINE",
"249 515 LINE",
"178 698 LINE",
"90 698 LINE",
"262 272 LINE",
"216 0 LINE"
);
}
);
width = 600;
}
);
note = Y;
unicode = 0059;
},
{
glyphname = Z;
lastChange = "2017-11-24 23:49:52 +0000";
layers = (
{
layerId = "BE301D28-E982-4416-937B-B9987FF5461D";
paths = (
{
closed = 1;
nodes = (
"520 72 LINE",
"111 72 LINE",
"597 624 LINE",
"609 698 LINE",
"141 698 LINE",
"129 626 LINE",
"503 626 LINE",
"17 74 LINE",
"5 0 LINE",
"508 0 LINE"
);
}
);
width = 600;
}
);
note = Z;
unicode = 005A;
},
{
glyphname = zero;
lastChange = "2017-11-24 23:49:52 +0000";
layers = (
{
layerId = "BE301D28-E982-4416-937B-B9987FF5461D";
paths = (
{
closed = 1;
nodes = (
"508 -12 OFFCURVE",
"570 297 OFFCURVE",
"570 473 CURVE SMOOTH",
"570 625 OFFCURVE",
"508 710 OFFCURVE",
"372 710 CURVE SMOOTH",
"124 710 OFFCURVE",
"62 401 OFFCURVE",
"62 225 CURVE SMOOTH",
"62 73 OFFCURVE",
"124 -12 OFFCURVE",
"260 -12 CURVE SMOOTH"
);
},
{
closed = 1;
nodes = (
"178 60 OFFCURVE",
"141 115 OFFCURVE",
"141 210 CURVE SMOOTH",
"141 233 OFFCURVE",
"143 262 OFFCURVE",
"148 292 CURVE SMOOTH",
"167 406 LINE SMOOTH",
"191 549 OFFCURVE",
"259 638 OFFCURVE",
"366 638 CURVE SMOOTH",
"454 638 OFFCURVE",
"491 583 OFFCURVE",
"491 488 CURVE SMOOTH",
"491 465 OFFCURVE",
"489 436 OFFCURVE",
"484 406 CURVE SMOOTH",
"465 292 LINE SMOOTH",
"441 149 OFFCURVE",
"373 60 OFFCURVE",
"266 60 CURVE SMOOTH"
);
},
{
closed = 1;
nodes = (
"354 291 OFFCURVE",
"372 312 OFFCURVE",
"377 342 CURVE SMOOTH",
"379 354 OFFCURVE",
"381 364 OFFCURVE",
"381 370 CURVE SMOOTH",
"381 391 OFFCURVE",
"365 407 OFFCURVE",
"325 407 CURVE SMOOTH",
"278 407 OFFCURVE",
"260 386 OFFCURVE",
"255 356 CURVE SMOOTH",
"253 344 OFFCURVE",
"251 334 OFFCURVE",
"251 328 CURVE SMOOTH",
"251 307 OFFCURVE",
"267 291 OFFCURVE",
"307 291 CURVE SMOOTH"
);
}
);
width = 600;
}
);
note = zero;
unicode = 0030;
},
{
glyphname = zero.alt01;
lastChange = "2017-11-24 23:49:52 +0000";
layers = (
{
layerId = "BE301D28-E982-4416-937B-B9987FF5461D";
paths = (
{
closed = 1;
nodes = (
"508 -12 OFFCURVE",
"570 297 OFFCURVE",
"570 473 CURVE SMOOTH",
"570 625 OFFCURVE",
"508 710 OFFCURVE",
"372 710 CURVE SMOOTH",
"124 710 OFFCURVE",
"62 401 OFFCURVE",
"62 225 CURVE SMOOTH",
"62 73 OFFCURVE",
"124 -12 OFFCURVE",
"260 -12 CURVE SMOOTH"
);
},
{
closed = 1;
nodes = (
"436 638 OFFCURVE",
"474 604 OFFCURVE",
"486 542 CURVE",
"141 230 LINE",
"141 248 OFFCURVE",
"144 268 OFFCURVE",
"148 292 CURVE SMOOTH",
"167 406 LINE SMOOTH",
"191 547 OFFCURVE",
"258 638 OFFCURVE",
"366 638 CURVE SMOOTH"
);
},
{
closed = 1;
nodes = (
"196 60 OFFCURVE",
"158 94 OFFCURVE",
"146 156 CURVE",
"491 468 LINE",
"491 450 OFFCURVE",
"488 430 OFFCURVE",
"484 406 CURVE SMOOTH",
"465 292 LINE SMOOTH",
"441 151 OFFCURVE",
"374 60 OFFCURVE",
"266 60 CURVE SMOOTH"
);
}
);
width = 600;
}
);
note = zero.alt01;
},
{
glyphname = zero.alt02;
lastChange = "2017-11-24 23:49:52 +0000";
layers = (
{
layerId = "BE301D28-E982-4416-937B-B9987FF5461D";
paths = (
{
closed = 1;
nodes = (
"510 -12 OFFCURVE",
"570 297 OFFCURVE",
"570 473 CURVE SMOOTH",
"570 625 OFFCURVE",
"508 710 OFFCURVE",
"372 710 CURVE SMOOTH",
"122 710 OFFCURVE",
"62 401 OFFCURVE",
"62 225 CURVE SMOOTH",
"62 73 OFFCURVE",
"124 -12 OFFCURVE",
"260 -12 CURVE SMOOTH"
);
},
{
closed = 1;
nodes = (
"178 60 OFFCURVE",
"143 115 OFFCURVE",
"143 210 CURVE SMOOTH",
"143 233 OFFCURVE",
"145 262 OFFCURVE",
"150 292 CURVE SMOOTH",
"169 406 LINE SMOOTH",
"193 549 OFFCURVE",
"259 638 OFFCURVE",
"366 638 CURVE SMOOTH",
"454 638 OFFCURVE",
"489 583 OFFCURVE",
"489 488 CURVE SMOOTH",
"489 465 OFFCURVE",
"487 436 OFFCURVE",
"482 406 CURVE SMOOTH",
"463 292 LINE SMOOTH",
"439 149 OFFCURVE",
"373 60 OFFCURVE",
"266 60 CURVE SMOOTH"
);
}
);
width = 600;
}
);
note = zero.alt02;
},
{
glyphname = one;
lastChange = "2017-11-24 23:49:52 +0000";
layers = (
{
layerId = "BE301D28-E982-4416-937B-B9987FF5461D";
paths = (
{
closed = 1;
nodes = (
"509 0 LINE",
"521 72 LINE",
"336 72 LINE",
"441 698 LINE",
"352 698 LINE",
"100 569 LINE",
"128 507 LINE",
"346 620 LINE",
"254 72 LINE",
"54 72 LINE",
"42 0 LINE"
);
}
);
width = 600;
}
);
note = one;
unicode = 0031;
},
{
glyphname = two;
lastChange = "2017-11-24 23:49:52 +0000";
layers = (
{
layerId = "BE301D28-E982-4416-937B-B9987FF5461D";
paths = (
{
closed = 1;
nodes = (
"505 71 LINE",
"132 71 LINE",
"359 245 LINE SMOOTH",
"481 338 OFFCURVE",
"551 421 OFFCURVE",
"551 532 CURVE SMOOTH",
"551 637 OFFCURVE",
"476 710 OFFCURVE",
"351 710 CURVE SMOOTH",
"220 710 OFFCURVE",
"147 637 OFFCURVE",
"107 547 CURVE",
"179 519 LINE",
"210 585 OFFCURVE",
"257 639 OFFCURVE",
"342 639 CURVE SMOOTH",
"420 639 OFFCURVE",
"465 595 OFFCURVE",
"465 531 CURVE SMOOTH",
"465 521 OFFCURVE",
"464 511 OFFCURVE",
"462 499 CURVE SMOOTH",
"449 421 OFFCURVE",
"423 384 OFFCURVE",
"311 296 CURVE SMOOTH",
"43 85 LINE",
"29 0 LINE",
"493 0 LINE"
);
}
);
width = 600;
}
);
note = two;
unicode = 0032;
},
{
glyphname = three;
lastChange = "2017-11-24 23:49:52 +0000";
layers = (
{
layerId = "BE301D28-E982-4416-937B-B9987FF5461D";
paths = (
{
closed = 1;
nodes = (
"216 401 LINE",
"204 331 LINE",
"287 331 LINE SMOOTH",
"378 331 OFFCURVE",
"421 291 OFFCURVE",
"421 223 CURVE SMOOTH",
"421 213 OFFCURVE",
"419 199 OFFCURVE",
"417 186 CURVE SMOOTH",
"404 103 OFFCURVE",
"344 59 OFFCURVE",
"248 59 CURVE SMOOTH",
"154 59 OFFCURVE",
"119 100 OFFCURVE",
"92 153 CURVE",
"24 111 LINE",
"57 50 OFFCURVE",
"110 -12 OFFCURVE",
"239 -12 CURVE SMOOTH",
"407 -12 OFFCURVE",
"507 94 OFFCURVE",
"507 214 CURVE SMOOTH",
"507 302 OFFCURVE",
"453 354 OFFCURVE",
"383 365 CURVE",
"384 369 LINE",
"491 393 OFFCURVE",
"550 468 OFFCURVE",
"550 555 CURVE SMOOTH",
"550 655 OFFCURVE",
"472 710 OFFCURVE",
"357 710 CURVE SMOOTH",
"245 710 OFFCURVE",
"180 657 OFFCURVE",
"133 596 CURVE",
"188 549 LINE",
"223 598 OFFCURVE",
"273 639 OFFCURVE",
"349 639 CURVE SMOOTH",
"417 639 OFFCURVE",
"463 606 OFFCURVE",
"463 550 CURVE SMOOTH",
"463 540 OFFCURVE",
"461 529 OFFCURVE",
"459 518 CURVE SMOOTH",
"446 447 OFFCURVE",
"389 401 OFFCURVE",
"293 401 CURVE SMOOTH"
);
}
);
width = 600;
}
);
note = three;
unicode = 0033;
},
{
glyphname = four;
lastChange = "2017-11-24 23:49:52 +0000";
layers = (
{
layerId = "BE301D28-E982-4416-937B-B9987FF5461D";
paths = (
{
closed = 1;
nodes = (
"415 0 LINE",
"438 137 LINE",
"543 137 LINE",
"554 205 LINE",
"449 205 LINE",
"532 698 LINE",
"421 698 LINE",
"28 214 LINE",
"15 137 LINE",
"360 137 LINE",
"337 0 LINE"
);
},
{
closed = 1;
nodes = (
"436 614 LINE",
"440 614 LINE",
"371 205 LINE",
"103 205 LINE"
);
}
);
width = 600;
}
);
note = four;
unicode = 0034;
},
{
glyphname = five;
lastChange = "2017-11-24 23:49:52 +0000";
layers = (
{
layerId = "BE301D28-E982-4416-937B-B9987FF5461D";
paths = (
{
closed = 1;
nodes = (
"571 698 LINE",
"193 698 LINE",
"105 314 LINE",
"173 305 LINE",
"209 338 OFFCURVE",
"246 364 OFFCURVE",
"312 364 CURVE SMOOTH",
"398 364 OFFCURVE",
"442 320 OFFCURVE",
"442 247 CURVE SMOOTH",
"442 230 OFFCURVE",
"441 221 OFFCURVE",
"438 203 CURVE SMOOTH",
"423 113 OFFCURVE",
"362 60 OFFCURVE",
"266 60 CURVE SMOOTH",
"182 60 OFFCURVE",
"148 98 OFFCURVE",
"118 153 CURVE",
"48 107 LINE",
"81 47 OFFCURVE",
"148 -12 OFFCURVE",
"256 -12 CURVE SMOOTH",
"437 -12 OFFCURVE",
"529 115 OFFCURVE",
"529 252 CURVE SMOOTH",
"529 364 OFFCURVE",
"455 433 OFFCURVE",
"343 433 CURVE SMOOTH",
"273 433 OFFCURVE",
"232 404 OFFCURVE",
"191 358 CURVE",
"185 358 LINE",
"250 627 LINE",
"559 627 LINE"
);
}
);
width = 600;
}
);
note = five;
unicode = 0035;
},
{
glyphname = six;
lastChange = "2017-11-24 23:49:52 +0000";
layers = (
{
layerId = "BE301D28-E982-4416-937B-B9987FF5461D";
paths = (
{
closed = 1;
nodes = (
"432 -12 OFFCURVE",
"535 115 OFFCURVE",
"535 252 CURVE SMOOTH",
"535 364 OFFCURVE",
"464 434 OFFCURVE",
"353 434 CURVE SMOOTH",
"268 434 OFFCURVE",
"212 390 OFFCURVE",
"169 334 CURVE",
"164 336 LINE",
"232 497 OFFCURVE",
"331 588 OFFCURVE",
"502 698 CURVE",
"392 698 LINE",
"240 609 OFFCURVE",
"61 415 OFFCURVE",
"61 201 CURVE SMOOTH",
"61 69 OFFCURVE",
"132 -12 OFFCURVE",
"259 -12 CURVE SMOOTH"
);
},
{
closed = 1;
nodes = (
"186 58 OFFCURVE",
"142 100 OFFCURVE",
"142 176 CURVE SMOOTH",
"142 190 OFFCURVE",
"144 204 OFFCURVE",
"146 216 CURVE SMOOTH",
"162 312 OFFCURVE",
"228 366 OFFCURVE",
"322 366 CURVE SMOOTH",
"407 366 OFFCURVE",
"451 324 OFFCURVE",
"451 248 CURVE SMOOTH",
"451 234 OFFCURVE",
"449 220 OFFCURVE",
"447 208 CURVE SMOOTH",
"431 112 OFFCURVE",
"365 58 OFFCURVE",
"271 58 CURVE SMOOTH"
);
}
);
width = 600;
}
);
note = six;
unicode = 0036;
},
{
glyphname = seven;
lastChange = "2017-11-24 23:49:52 +0000";
layers = (
{
layerId = "BE301D28-E982-4416-937B-B9987FF5461D";
paths = (
{
closed = 1;
nodes = (
"222 0 LINE",
"590 626 LINE",
"602 698 LINE",
"137 698 LINE",
"104 497 LINE",
"178 497 LINE",
"199 627 LINE",
"503 627 LINE",
"131 0 LINE"
);
}
);
width = 600;
}
);
note = seven;
unicode = 0037;
},
{
glyphname = eight;
lastChange = "2017-11-24 23:49:52 +0000";
layers = (
{
layerId = "BE301D28-E982-4416-937B-B9987FF5461D";
paths = (
{
closed = 1;
nodes = (
"437 -12 OFFCURVE",
"535 90 OFFCURVE",
"535 207 CURVE SMOOTH",
"535 296 OFFCURVE",
"493 342 OFFCURVE",
"419 363 CURVE",
"420 371 LINE",
"517 402 OFFCURVE",
"570 477 OFFCURVE",
"570 556 CURVE SMOOTH",
"570 650 OFFCURVE",
"501 710 OFFCURVE",
"374 710 CURVE SMOOTH",
"208 710 OFFCURVE",
"120 609 OFFCURVE",
"120 508 CURVE SMOOTH",
"120 443 OFFCURVE",
"154 394 OFFCURVE",
"216 372 CURVE",
"215 364 LINE",
"105 335 OFFCURVE",
"41 258 OFFCURVE",
"41 160 CURVE SMOOTH",
"41 60 OFFCURVE",
"110 -12 OFFCURVE",
"255 -12 CURVE SMOOTH"
);
},
{
closed = 1;
nodes = (
"178 58 OFFCURVE",
"127 96 OFFCURVE",
"127 164 CURVE SMOOTH",
"127 178 OFFCURVE",
"129 189 OFFCURVE",
"132 207 CURVE SMOOTH",
"145 285 OFFCURVE",
"207 334 OFFCURVE",
"311 334 CURVE SMOOTH",
"400 334 OFFCURVE",
"451 296 OFFCURVE",
"451 228 CURVE SMOOTH",
"451 214 OFFCURVE",
"449 203 OFFCURVE",
"446 185 CURVE SMOOTH",
"433 107 OFFCURVE",
"371 58 OFFCURVE",
"267 58 CURVE SMOOTH"
);
},
{
closed = 1;
nodes = (
"245 401 OFFCURVE",
"201 435 OFFCURVE",
"201 495 CURVE SMOOTH",
"201 505 OFFCURVE",
"202 516 OFFCURVE",
"204 528 CURVE SMOOTH",
"215 594 OFFCURVE",
"270 640 OFFCURVE",
"362 640 CURVE SMOOTH",
"441 640 OFFCURVE",
"485 606 OFFCURVE",
"485 546 CURVE SMOOTH",
"485 536 OFFCURVE",
"484 525 OFFCURVE",
"482 513 CURVE SMOOTH",
"471 447 OFFCURVE",
"416 401 OFFCURVE",
"324 401 CURVE SMOOTH"
);
}
);
width = 600;
}
);
note = eight;
unicode = 0038;
},
{
glyphname = nine;
lastChange = "2017-11-24 23:49:52 +0000";
layers = (
{
layerId = "BE301D28-E982-4416-937B-B9987FF5461D";
paths = (
{
closed = 1;
nodes = (
"561 629 OFFCURVE",
"490 710 OFFCURVE",
"363 710 CURVE SMOOTH",
"190 710 OFFCURVE",
"87 583 OFFCURVE",
"87 446 CURVE SMOOTH",
"87 334 OFFCURVE",
"158 264 OFFCURVE",
"269 264 CURVE SMOOTH",
"354 264 OFFCURVE",
"409 308 OFFCURVE",
"453 364 CURVE",
"458 362 LINE",
"389 201 OFFCURVE",
"290 110 OFFCURVE",
"119 0 CURVE",
"230 0 LINE",
"382 89 OFFCURVE",
"561 283 OFFCURVE",
"561 497 CURVE SMOOTH"
);
},
{
closed = 1;
nodes = (
"215 332 OFFCURVE",
"171 374 OFFCURVE",
"171 450 CURVE SMOOTH",
"171 464 OFFCURVE",
"173 478 OFFCURVE",
"175 490 CURVE SMOOTH",
"191 586 OFFCURVE",
"257 640 OFFCURVE",
"351 640 CURVE SMOOTH",
"436 640 OFFCURVE",
"480 598 OFFCURVE",
"480 522 CURVE SMOOTH",
"480 508 OFFCURVE",
"478 494 OFFCURVE",
"476 482 CURVE SMOOTH",
"460 386 OFFCURVE",
"394 332 OFFCURVE",
"300 332 CURVE SMOOTH"
);
}
);
width = 600;
}
);
note = nine;
unicode = 0039;
},
{
glyphname = ampersand;
lastChange = "2017-11-24 23:49:52 +0000";
layers = (
{
layerId = "BE301D28-E982-4416-937B-B9987FF5461D";
paths = (
{
closed = 1;
nodes = (
"229 -12 OFFCURVE",
"300 17 OFFCURVE",
"317 135 CURVE",
"322 135 LINE",
"353 37 OFFCURVE",
"386 -12 OFFCURVE",
"443 -12 CURVE SMOOTH",
"482 -12 OFFCURVE",
"507 10 OFFCURVE",
"538 67 CURVE SMOOTH",
"588 160 LINE",
"533 188 LINE",
"455 59 LINE",
"438 59 LINE",
"301 327 LINE",
"420 347 OFFCURVE",
"498 416 OFFCURVE",
"498 542 CURVE SMOOTH",
"498 655 OFFCURVE",
"429 710 OFFCURVE",
"333 710 CURVE SMOOTH",
"225 710 OFFCURVE",
"147 640 OFFCURVE",
"147 531 CURVE SMOOTH",
"147 486 OFFCURVE",
"160 449 OFFCURVE",
"190 388 CURVE",
"39 376 OFFCURVE",
"1 261 OFFCURVE",
"1 171 CURVE SMOOTH",
"1 65 OFFCURVE",
"59 -12 OFFCURVE",
"164 -12 CURVE SMOOTH"
);
},
{
closed = 1;
nodes = (
"115 56 OFFCURVE",
"84 89 OFFCURVE",
"84 175 CURVE SMOOTH",
"84 190 OFFCURVE",
"85 212 OFFCURVE",
"89 233 CURVE SMOOTH",
"98 281 OFFCURVE",
"116 336 OFFCURVE",
"209 349 CURVE",
"298 166 LINE",
"285 105 OFFCURVE",
"251 56 OFFCURVE",
"176 56 CURVE SMOOTH"
);
},
{
closed = 1;
nodes = (
"381 645 OFFCURVE",
"419 618 OFFCURVE",
"419 539 CURVE SMOOTH",
"419 521 OFFCURVE",
"417 492 OFFCURVE",
"408 466 CURVE SMOOTH",
"390 415 OFFCURVE",
"349 380 OFFCURVE",
"283 364 CURVE",
"272 385 LINE SMOOTH",
"239 448 OFFCURVE",
"225 489 OFFCURVE",
"225 533 CURVE SMOOTH",
"225 611 OFFCURVE",
"267 645 OFFCURVE",
"327 645 CURVE SMOOTH"
);
}
);
width = 600;
}
);
note = ampersand;
unicode = 0026;
},
{
glyphname = at;
lastChange = "2017-11-24 23:49:52 +0000";
layers = (
{
layerId = "BE301D28-E982-4416-937B-B9987FF5461D";
paths = (
{
closed = 1;
nodes = (
"418 -49 LINE",
"295 -49 LINE SMOOTH",
"165 -49 OFFCURVE",
"127 20 OFFCURVE",
"127 138 CURVE SMOOTH",
"127 156 OFFCURVE",
"129 215 OFFCURVE",
"134 244 CURVE SMOOTH",
"159 396 LINE SMOOTH",
"192 594 OFFCURVE",
"260 649 OFFCURVE",
"357 649 CURVE SMOOTH",
"457 649 OFFCURVE",
"492 596 OFFCURVE",
"492 517 CURVE SMOOTH",
"492 500 OFFCURVE",
"490 480 OFFCURVE",
"487 461 CURVE SMOOTH",
"482 429 LINE",
"478 429 LINE",
"469 475 OFFCURVE",
"439 508 OFFCURVE",
"385 508 CURVE SMOOTH",
"273 508 OFFCURVE",
"215 369 OFFCURVE",
"215 237 CURVE SMOOTH",
"215 125 OFFCURVE",
"257 79 OFFCURVE",
"320 79 CURVE SMOOTH",
"381 79 OFFCURVE",
"417 123 OFFCURVE",
"436 176 CURVE",
"440 176 LINE",
"426 91 LINE",
"496 91 LINE",
"557 463 LINE SMOOTH",
"560 484 OFFCURVE",
"562 502 OFFCURVE",
"562 520 CURVE SMOOTH",
"562 628 OFFCURVE",
"495 710 OFFCURVE",
"356 710 CURVE SMOOTH",
"198 710 OFFCURVE",
"119 606 OFFCURVE",
"75 338 CURVE SMOOTH",
"63 265 OFFCURVE",
"57 204 OFFCURVE",
"57 159 CURVE SMOOTH",
"57 -18 OFFCURVE",
"119 -112 OFFCURVE",
"292 -112 CURVE SMOOTH",
"409 -112 LINE"
);
},
{
closed = 1;
nodes = (
"310 138 OFFCURVE",
"288 164 OFFCURVE",
"288 218 CURVE SMOOTH",
"288 230 OFFCURVE",
"289 246 OFFCURVE",
"292 264 CURVE SMOOTH",
"302 324 LINE SMOOTH",
"316 408 OFFCURVE",
"345 449 OFFCURVE",
"402 449 CURVE SMOOTH",
"461 449 OFFCURVE",
"478 405 OFFCURVE",
"472 370 CURVE SMOOTH",
"455 269 LINE SMOOTH",
"449 233 OFFCURVE",
"437 205 OFFCURVE",
"418 179 CURVE SMOOTH",
"400 154 OFFCURVE",
"377 138 OFFCURVE",
"347 138 CURVE SMOOTH"
);
}
);
width = 600;
}
);
note = at;
unicode = 0040;
},
{
glyphname = hyphen;
lastChange = "2017-11-24 23:49:52 +0000";
layers = (
{
layerId = "BE301D28-E982-4416-937B-B9987FF5461D";
paths = (
{
closed = 1;
nodes = (
"443 263 LINE",
"457 345 LINE",
"171 345 LINE",
"157 263 LINE"
);
}
);
width = 600;
}
);
note = hyphen;
unicode = 002D;
},
{
glyphname = uni00AD;
lastChange = "2017-11-24 23:49:52 +0000";
layers = (
{
layerId = "BE301D28-E982-4416-937B-B9987FF5461D";
paths = (
{
closed = 1;
nodes = (
"443 263 LINE",
"457 345 LINE",
"171 345 LINE",
"157 263 LINE"
);
}
);
width = 600;
}
);
note = uni00AD;
unicode = 00AD;
},
{
glyphname = endash;
lastChange = "2017-11-24 23:49:52 +0000";
layers = (
{
layerId = "BE301D28-E982-4416-937B-B9987FF5461D";
paths = (
{
closed = 1;
nodes = (
"538 268 LINE",
"550 340 LINE",
"75 340 LINE",
"63 268 LINE"
);
}
);
width = 600;
}
);
note = endash;
unicode = 2013;
},
{
glyphname = emdash;
lastChange = "2017-11-24 23:49:52 +0000";
layers = (
{
layerId = "BE301D28-E982-4416-937B-B9987FF5461D";
paths = (
{
closed = 1;
nodes = (
"598 268 LINE",
"610 340 LINE",
"16 340 LINE",
"4 268 LINE"
);
}
);
width = 600;
}
);
note = emdash;
unicode = 2014;
},
{
glyphname = underscore;
lastChange = "2017-11-24 23:49:52 +0000";
layers = (
{
layerId = "BE301D28-E982-4416-937B-B9987FF5461D";
paths = (
{
closed = 1;
nodes = (
"477 -167 LINE",
"489 -95 LINE",
"14 -95 LINE",
"2 -167 LINE"
);
}
);
width = 600;
}
);
note = underscore;
unicode = 005F;
},
{
glyphname = period;
lastChange = "2017-11-24 23:49:52 +0000";
layers = (
{
layerId = "BE301D28-E982-4416-937B-B9987FF5461D";
paths = (
{
closed = 1;
nodes = (
"308 -9 OFFCURVE",
"332 14 OFFCURVE",
"338 50 CURVE SMOOTH",
"340 62 OFFCURVE",
"342 74 OFFCURVE",
"342 82 CURVE SMOOTH",
"342 107 OFFCURVE",
"324 127 OFFCURVE",
"277 127 CURVE SMOOTH",
"226 127 OFFCURVE",
"202 104 OFFCURVE",
"196 68 CURVE SMOOTH",
"194 56 OFFCURVE",
"192 44 OFFCURVE",
"192 36 CURVE SMOOTH",
"192 11 OFFCURVE",
"210 -9 OFFCURVE",
"257 -9 CURVE SMOOTH"
);
}
);
width = 600;
}
);
note = period;
unicode = 002E;
},
{
glyphname = ellipsis;
lastChange = "2017-11-24 23:49:52 +0000";
layers = (
{
layerId = "BE301D28-E982-4416-937B-B9987FF5461D";
paths = (
{
closed = 1;
nodes = (
"109 -4 OFFCURVE",
"129 17 OFFCURVE",
"134 47 CURVE SMOOTH",
"137 65 OFFCURVE",
"139 74 OFFCURVE",
"139 84 CURVE SMOOTH",
"139 108 OFFCURVE",
"125 126 OFFCURVE",
"82 126 CURVE SMOOTH",
"40 126 OFFCURVE",
"20 105 OFFCURVE",
"15 75 CURVE SMOOTH",
"12 57 OFFCURVE",
"10 48 OFFCURVE",
"10 38 CURVE SMOOTH",
"10 14 OFFCURVE",
"24 -4 OFFCURVE",
"66 -4 CURVE SMOOTH"
);
},
{
closed = 1;
nodes = (
"302 -4 OFFCURVE",
"322 17 OFFCURVE",
"327 47 CURVE SMOOTH",
"330 65 OFFCURVE",
"332 74 OFFCURVE",
"332 84 CURVE SMOOTH",
"332 108 OFFCURVE",
"318 126 OFFCURVE",
"275 126 CURVE SMOOTH",
"233 126 OFFCURVE",
"213 105 OFFCURVE",
"208 75 CURVE SMOOTH",
"205 57 OFFCURVE",
"203 48 OFFCURVE",
"203 38 CURVE SMOOTH",
"203 14 OFFCURVE",
"217 -4 OFFCURVE",
"259 -4 CURVE SMOOTH"
);
},
{
closed = 1;
nodes = (
"495 -4 OFFCURVE",
"515 17 OFFCURVE",
"520 47 CURVE SMOOTH",
"523 65 OFFCURVE",
"525 74 OFFCURVE",
"525 84 CURVE SMOOTH",
"525 108 OFFCURVE",
"511 126 OFFCURVE",
"468 126 CURVE SMOOTH",
"426 126 OFFCURVE",
"406 105 OFFCURVE",
"401 75 CURVE SMOOTH",
"398 57 OFFCURVE",
"396 48 OFFCURVE",
"396 38 CURVE SMOOTH",
"396 14 OFFCURVE",
"410 -4 OFFCURVE",
"452 -4 CURVE SMOOTH"
);
}
);
width = 600;
}
);
note = ellipsis;
unicode = 2026;
},
{
glyphname = colon;
lastChange = "2017-11-24 23:49:52 +0000";
layers = (
{
layerId = "BE301D28-E982-4416-937B-B9987FF5461D";
paths = (
{
closed = 1;
nodes = (
"374 389 OFFCURVE",
"398 412 OFFCURVE",
"404 448 CURVE SMOOTH",
"406 460 OFFCURVE",
"408 472 OFFCURVE",
"408 480 CURVE SMOOTH",
"408 505 OFFCURVE",
"390 525 OFFCURVE",
"343 525 CURVE SMOOTH",
"292 525 OFFCURVE",
"268 502 OFFCURVE",
"262 466 CURVE SMOOTH",
"260 454 OFFCURVE",
"258 442 OFFCURVE",
"258 434 CURVE SMOOTH",
"258 409 OFFCURVE",
"276 389 OFFCURVE",
"323 389 CURVE SMOOTH"
);
},
{
closed = 1;
nodes = (
"308 -9 OFFCURVE",
"332 14 OFFCURVE",
"338 50 CURVE SMOOTH",
"340 62 OFFCURVE",
"342 74 OFFCURVE",
"342 82 CURVE SMOOTH",
"342 107 OFFCURVE",
"324 127 OFFCURVE",
"277 127 CURVE SMOOTH",
"226 127 OFFCURVE",
"202 104 OFFCURVE",
"196 68 CURVE SMOOTH",
"194 56 OFFCURVE",
"192 44 OFFCURVE",
"192 36 CURVE SMOOTH",
"192 11 OFFCURVE",
"210 -9 OFFCURVE",
"257 -9 CURVE SMOOTH"
);
}
);
width = 600;
}
);
note = colon;
unicode = 003A;
},
{
glyphname = comma;
lastChange = "2017-11-24 23:49:52 +0000";
layers = (
{
layerId = "BE301D28-E982-4416-937B-B9987FF5461D";
paths = (
{
closed = 1;
nodes = (
"139 -141 LINE",
"205 -141 LINE",
"364 135 LINE",
"237 135 LINE"
);
}
);
width = 600;
}
);
note = comma;
unicode = 002C;
},
{
glyphname = semicolon;
lastChange = "2017-11-24 23:49:52 +0000";
layers = (
{
layerId = "BE301D28-E982-4416-937B-B9987FF5461D";
paths = (
{
closed = 1;
nodes = (
"374 389 OFFCURVE",
"398 412 OFFCURVE",
"404 448 CURVE SMOOTH",
"406 460 OFFCURVE",
"408 472 OFFCURVE",
"408 480 CURVE SMOOTH",
"408 505 OFFCURVE",
"390 525 OFFCURVE",
"343 525 CURVE SMOOTH",
"292 525 OFFCURVE",
"268 502 OFFCURVE",
"262 466 CURVE SMOOTH",
"260 454 OFFCURVE",
"258 442 OFFCURVE",
"258 434 CURVE SMOOTH",
"258 409 OFFCURVE",
"276 389 OFFCURVE",
"323 389 CURVE SMOOTH"
);
},
{
closed = 1;
nodes = (
"139 -141 LINE",
"205 -141 LINE",
"364 135 LINE",
"237 135 LINE"
);
}
);
width = 600;
}
);
note = semicolon;
unicode = 003B;
},
{
glyphname = quotesingle;
lastChange = "2017-11-24 23:49:52 +0000";
layers = (
{
layerId = "BE301D28-E982-4416-937B-B9987FF5461D";
paths = (
{
closed = 1;
nodes = (
"371 464 LINE",
"417 740 LINE",
"343 740 LINE",
"297 464 LINE"
);
}
);
width = 600;
}
);
note = quotesingle;
unicode = 0027;
},
{
glyphname = quotedbl;
lastChange = "2017-11-24 23:49:52 +0000";
layers = (
{
layerId = "BE301D28-E982-4416-937B-B9987FF5461D";
paths = (
{
closed = 1;
nodes = (
"459 464 LINE",
"505 740 LINE",
"431 740 LINE",
"385 464 LINE"
);
},
{
closed = 1;
nodes = (
"284 464 LINE",
"330 740 LINE",
"256 740 LINE",
"210 464 LINE"
);
}
);
width = 600;
}
);
note = quotedbl;
unicode = 0022;
},
{
glyphname = quoteleft;
lastChange = "2017-11-24 23:49:52 +0000";
layers = (
{
layerId = "BE301D28-E982-4416-937B-B9987FF5461D";
paths = (
{
closed = 1;
nodes = (
"232 464 LINE",
"359 464 LINE",
"457 740 LINE",
"391 740 LINE"
);
}
);
width = 600;
}
);
note = quoteleft;
unicode = 2018;
},
{
glyphname = quoteright;
lastChange = "2017-11-24 23:49:52 +0000";
layers = (
{
layerId = "BE301D28-E982-4416-937B-B9987FF5461D";
paths = (
{
closed = 1;
nodes = (
"260 464 LINE",
"326 464 LINE",
"485 740 LINE",
"358 740 LINE"
);
}
);
width = 600;
}
);
note = quoteright;
unicode = 2019;
},
{
glyphname = quotedblleft;
lastChange = "2017-11-24 23:49:52 +0000";
layers = (
{
layerId = "BE301D28-E982-4416-937B-B9987FF5461D";
paths = (
{
closed = 1;
nodes = (
"358 464 LINE",
"485 464 LINE",
"583 740 LINE",
"517 740 LINE"
);
},
{
closed = 1;
nodes = (
"118 464 LINE",
"245 464 LINE",
"343 740 LINE",
"277 740 LINE"
);
}
);
width = 600;
}
);
note = quotedblleft;
unicode = 201C;
},
{
glyphname = quotedblright;
lastChange = "2017-11-24 23:49:52 +0000";
layers = (
{
layerId = "BE301D28-E982-4416-937B-B9987FF5461D";
paths = (
{
closed = 1;
nodes = (
"386 464 LINE",
"452 464 LINE",
"611 740 LINE",
"484 740 LINE"
);
},
{
closed = 1;
nodes = (
"146 464 LINE",
"212 464 LINE",
"371 740 LINE",
"244 740 LINE"
);
}
);
width = 600;
}
);
note = quotedblright;
unicode = 201D;
},
{
glyphname = quotesinglbase;
lastChange = "2017-11-24 23:49:52 +0000";
layers = (
{
layerId = "BE301D28-E982-4416-937B-B9987FF5461D";
paths = (
{
closed = 1;
nodes = (
"139 -141 LINE",
"205 -141 LINE",
"364 135 LINE",
"237 135 LINE"
);
}
);
width = 600;
}
);
note = quotesinglbase;
unicode = 201A;
},
{
glyphname = quotedblbase;
lastChange = "2017-11-24 23:49:52 +0000";
layers = (
{
layerId = "BE301D28-E982-4416-937B-B9987FF5461D";
paths = (
{
closed = 1;
nodes = (
"284 -141 LINE",
"350 -141 LINE",
"509 135 LINE",
"382 135 LINE"
);
},
{
closed = 1;
nodes = (
"44 -141 LINE",
"110 -141 LINE",
"269 135 LINE",
"142 135 LINE"
);
}
);
width = 600;
}
);
note = quotedblbase;
unicode = 201E;
},
{
glyphname = guilsinglleft;
lastChange = "2017-11-24 23:49:52 +0000";
layers = (
{
layerId = "BE301D28-E982-4416-937B-B9987FF5461D";
paths = (
{
closed = 1;
nodes = (
"375 107 LINE",
"254 265 LINE",
"427 423 LINE",
"412 483 LINE",
"179 309 LINE",
"166 231 LINE",
"341 57 LINE"
);
}
);
width = 600;
}
);
note = guilsinglleft;
unicode = 2039;
},
{
glyphname = guilsinglright;
lastChange = "2017-11-24 23:49:52 +0000";
layers = (
{
layerId = "BE301D28-E982-4416-937B-B9987FF5461D";
paths = (
{
closed = 1;
nodes = (
"193 57 LINE",
"426 231 LINE",
"439 309 LINE",
"264 483 LINE",
"230 433 LINE",
"351 275 LINE",
"178 117 LINE"
);
}
);
width = 600;
}
);
note = guilsinglright;
unicode = 203A;
},
{
glyphname = guillemotleft;
lastChange = "2017-11-24 23:49:52 +0000";
layers = (
{
layerId = "BE301D28-E982-4416-937B-B9987FF5461D";
paths = (
{
closed = 1;
nodes = (
"508 107 LINE",
"387 265 LINE",
"560 423 LINE",
"545 483 LINE",
"312 309 LINE",
"299 231 LINE",
"474 57 LINE"
);
},
{
closed = 1;
nodes = (
"278 107 LINE",
"157 265 LINE",
"330 423 LINE",
"315 483 LINE",
"82 309 LINE",
"69 231 LINE",
"244 57 LINE"
);
}
);
width = 600;
}
);
note = guillemotleft;
unicode = 00AB;
},
{
glyphname = guillemotright;
lastChange = "2017-11-24 23:49:52 +0000";
layers = (
{
layerId = "BE301D28-E982-4416-937B-B9987FF5461D";
paths = (
{
closed = 1;
nodes = (
"290 57 LINE",
"523 231 LINE",
"536 309 LINE",
"361 483 LINE",
"327 433 LINE",
"448 275 LINE",
"275 117 LINE"
);
},
{
closed = 1;
nodes = (
"60 57 LINE",
"293 231 LINE",
"306 309 LINE",
"131 483 LINE",
"97 433 LINE",
"218 275 LINE",
"45 117 LINE"
);
}
);
width = 600;
}
);
note = guillemotright;
unicode = 00BB;
},
{
glyphname = exclamdown;
lastChange = "2017-11-24 23:49:52 +0000";
layers = (
{
layerId = "BE301D28-E982-4416-937B-B9987FF5461D";
paths = (
{
closed = 1;
nodes = (
"269 -182 LINE",
"303 21 LINE",
"320 283 LINE",
"289 283 LINE",
"217 21 LINE",
"183 -182 LINE"
);
},
{
closed = 1;
nodes = (
"376 389 OFFCURVE",
"398 412 OFFCURVE",
"404 448 CURVE SMOOTH",
"407 466 OFFCURVE",
"408 475 OFFCURVE",
"408 481 CURVE SMOOTH",
"408 506 OFFCURVE",
"390 525 OFFCURVE",
"343 525 CURVE SMOOTH",
"290 525 OFFCURVE",
"268 502 OFFCURVE",
"262 466 CURVE SMOOTH",
"259 448 OFFCURVE",
"258 439 OFFCURVE",
"258 433 CURVE SMOOTH",
"258 408 OFFCURVE",
"276 389 OFFCURVE",
"323 389 CURVE SMOOTH"
);
}
);
width = 600;
}
);
note = exclamdown;
unicode = 00A1;
},
{
glyphname = exclam;
lastChange = "2017-11-24 23:49:52 +0000";
layers = (
{
layerId = "BE301D28-E982-4416-937B-B9987FF5461D";
paths = (
{
closed = 1;
nodes = (
"311 233 LINE",
"383 495 LINE",
"417 698 LINE",
"331 698 LINE",
"297 495 LINE",
"280 233 LINE"
);
},
{
closed = 1;
nodes = (
"310 -9 OFFCURVE",
"332 14 OFFCURVE",
"338 50 CURVE SMOOTH",
"341 68 OFFCURVE",
"342 77 OFFCURVE",
"342 83 CURVE SMOOTH",
"342 108 OFFCURVE",
"324 127 OFFCURVE",
"277 127 CURVE SMOOTH",
"224 127 OFFCURVE",
"202 104 OFFCURVE",
"196 68 CURVE SMOOTH",
"193 50 OFFCURVE",
"192 41 OFFCURVE",
"192 35 CURVE SMOOTH",
"192 10 OFFCURVE",
"210 -9 OFFCURVE",
"257 -9 CURVE SMOOTH"
);
}
);
width = 600;
}
);
note = exclam;
unicode = 0021;
},
{
glyphname = questiondown;
lastChange = "2017-11-24 23:49:52 +0000";
layers = (
{
layerId = "BE301D28-E982-4416-937B-B9987FF5461D";
paths = (
{
closed = 1;
nodes = (
"368 -194 OFFCURVE",
"441 -118 OFFCURVE",
"473 -34 CURVE",
"402 -4 LINE",
"376 -73 OFFCURVE",
"330 -123 OFFCURVE",
"245 -123 CURVE SMOOTH",
"176 -123 OFFCURVE",
"131 -86 OFFCURVE",
"131 -28 CURVE SMOOTH",
"131 -26 OFFCURVE",
"131 -11 OFFCURVE",
"133 1 CURVE SMOOTH",
"148 91 OFFCURVE",
"201 126 OFFCURVE",
"342 144 CURVE",
"368 301 LINE",
"291 301 LINE",
"274 201 LINE",
"147 183 OFFCURVE",
"46 108 OFFCURVE",
"46 -27 CURVE SMOOTH",
"46 -128 OFFCURVE",
"118 -194 OFFCURVE",
"238 -194 CURVE SMOOTH"
);
},
{
closed = 1;
nodes = (
"393 389 OFFCURVE",
"417 412 OFFCURVE",
"423 448 CURVE SMOOTH",
"425 460 OFFCURVE",
"427 472 OFFCURVE",
"427 480 CURVE SMOOTH",
"427 505 OFFCURVE",
"409 525 OFFCURVE",
"362 525 CURVE SMOOTH",
"311 525 OFFCURVE",
"287 502 OFFCURVE",
"281 466 CURVE SMOOTH",
"279 454 OFFCURVE",
"277 442 OFFCURVE",
"277 434 CURVE SMOOTH",
"277 409 OFFCURVE",
"295 389 OFFCURVE",
"342 389 CURVE SMOOTH"
);
}
);
width = 600;
}
);
note = questiondown;
unicode = 00BF;
},
{
glyphname = question;
lastChange = "2017-11-24 23:49:52 +0000";
layers = (
{
layerId = "BE301D28-E982-4416-937B-B9987FF5461D";
paths = (
{
closed = 1;
nodes = (
"310 215 LINE",
"327 315 LINE",
"454 333 OFFCURVE",
"555 408 OFFCURVE",
"555 543 CURVE SMOOTH",
"555 644 OFFCURVE",
"483 710 OFFCURVE",
"363 710 CURVE SMOOTH",
"233 710 OFFCURVE",
"160 634 OFFCURVE",
"128 550 CURVE",
"199 520 LINE",
"225 589 OFFCURVE",
"271 639 OFFCURVE",
"356 639 CURVE SMOOTH",
"425 639 OFFCURVE",
"470 602 OFFCURVE",
"470 544 CURVE SMOOTH",
"470 542 OFFCURVE",
"470 527 OFFCURVE",
"468 515 CURVE SMOOTH",
"453 425 OFFCURVE",
"400 390 OFFCURVE",
"259 372 CURVE",
"233 215 LINE"
);
},
{
closed = 1;
nodes = (
"290 -9 OFFCURVE",
"314 14 OFFCURVE",
"320 50 CURVE SMOOTH",
"322 62 OFFCURVE",
"324 74 OFFCURVE",
"324 82 CURVE SMOOTH",
"324 107 OFFCURVE",
"306 127 OFFCURVE",
"259 127 CURVE SMOOTH",
"208 127 OFFCURVE",
"184 104 OFFCURVE",
"178 68 CURVE SMOOTH",
"176 56 OFFCURVE",
"174 44 OFFCURVE",
"174 36 CURVE SMOOTH",
"174 11 OFFCURVE",
"192 -9 OFFCURVE",
"239 -9 CURVE SMOOTH"
);
}
);
width = 600;
}
);
note = question;
unicode = 003F;
},
{
glyphname = parenleft;
lastChange = "2017-11-24 23:49:52 +0000";
layers = (
{
layerId = "BE301D28-E982-4416-937B-B9987FF5461D";
paths = (
{
closed = 1;
nodes = (
"206 61 OFFCURVE",
"270 -68 OFFCURVE",
"352 -138 CURVE",
"429 -138 LINE",
"342 -64 OFFCURVE",
"275 55 OFFCURVE",
"275 195 CURVE SMOOTH",
"275 219 OFFCURVE",
"277 245 OFFCURVE",
"281 269 CURVE SMOOTH",
"295 354 LINE SMOOTH",
"323 522 OFFCURVE",
"444 669 OFFCURVE",
"578 760 CURVE",
"493 760 LINE",
"347 663 OFFCURVE",
"206 447 OFFCURVE",
"206 216 CURVE SMOOTH"
);
}
);
width = 600;
}
);
note = parenleft;
unicode = 0028;
},
{
glyphname = parenright;
lastChange = "2017-11-24 23:49:52 +0000";
layers = (
{
layerId = "BE301D28-E982-4416-937B-B9987FF5461D";
paths = (
{
closed = 1;
nodes = (
"413 561 OFFCURVE",
"349 690 OFFCURVE",
"267 760 CURVE",
"190 760 LINE",
"277 686 OFFCURVE",
"344 567 OFFCURVE",
"344 427 CURVE SMOOTH",
"344 403 OFFCURVE",
"342 377 OFFCURVE",
"338 353 CURVE SMOOTH",
"324 268 LINE SMOOTH",
"296 100 OFFCURVE",
"175 -47 OFFCURVE",
"41 -138 CURVE",
"126 -138 LINE",
"272 -41 OFFCURVE",
"413 175 OFFCURVE",
"413 406 CURVE SMOOTH"
);
}
);
width = 600;
}
);
note = parenright;
unicode = 0029;
},
{
glyphname = bracketleft;
lastChange = "2017-11-24 23:49:52 +0000";
layers = (
{
layerId = "BE301D28-E982-4416-937B-B9987FF5461D";
paths = (
{
closed = 1;
nodes = (
"436 -138 LINE",
"446 -77 LINE",
"238 -77 LINE",
"367 699 LINE",
"576 699 LINE",
"586 760 LINE",
"310 760 LINE",
"160 -138 LINE"
);
}
);
width = 600;
}
);
note = bracketleft;
unicode = 005B;
},
{
glyphname = bracketright;
lastChange = "2017-11-24 23:49:52 +0000";
layers = (
{
layerId = "BE301D28-E982-4416-937B-B9987FF5461D";
paths = (
{
closed = 1;
nodes = (
"160 760 LINE",
"149 699 LINE",
"358 699 LINE",
"229 -77 LINE",
"20 -77 LINE",
"10 -138 LINE",
"286 -138 LINE",
"436 760 LINE"
);
}
);
width = 600;
}
);
note = bracketright;
unicode = 005D;
},
{
glyphname = braceleft;
lastChange = "2017-11-24 23:49:52 +0000";
layers = (
{
layerId = "BE301D28-E982-4416-937B-B9987FF5461D";
paths = (
{
closed = 1;
nodes = (
"427 -138 LINE",
"437 -77 LINE",
"248 -77 LINE",
"261 1 LINE SMOOTH",
"270 56 OFFCURVE",
"292 79 OFFCURVE",
"318 107 CURVE SMOOTH",
"354 146 OFFCURVE",
"383 177 OFFCURVE",
"383 222 CURVE SMOOTH",
"383 269 OFFCURVE",
"351 300 OFFCURVE",
"292 307 CURVE",
"292 311 LINE",
"375 324 OFFCURVE",
"417 366 OFFCURVE",
"417 425 CURVE SMOOTH",
"417 462 OFFCURVE",
"401 490 OFFCURVE",
"386 515 CURVE SMOOTH",
"373 537 OFFCURVE",
"361 556 OFFCURVE",
"361 590 CURVE SMOOTH",
"361 599 OFFCURVE",
"362 610 OFFCURVE",
"377 699 CURVE",
"567 699 LINE",
"577 760 LINE",
"402 760 LINE SMOOTH",
"349 760 OFFCURVE",
"313 725 OFFCURVE",
"306 679 CURVE SMOOTH",
"294 603 OFFCURVE",
"293 592 OFFCURVE",
"293 581 CURVE SMOOTH",
"293 531 OFFCURVE",
"313 506 OFFCURVE",
"329 480 CURVE SMOOTH",
"343 458 OFFCURVE",
"349 442 OFFCURVE",
"349 423 CURVE SMOOTH",
"349 369 OFFCURVE",
"303 341 OFFCURVE",
"218 341 CURVE SMOOTH",
"121 341 LINE",
"111 281 LINE",
"208 281 LINE SMOOTH",
"278 281 OFFCURVE",
"314 260 OFFCURVE",
"314 215 CURVE SMOOTH",
"314 194 OFFCURVE",
"306 177 OFFCURVE",
"272 142 CURVE SMOOTH",
"243 112 OFFCURVE",
"205 79 OFFCURVE",
"194 7 CURVE SMOOTH",
"184 -59 OFFCURVE",
"183 -66 OFFCURVE",
"183 -74 CURVE SMOOTH",
"183 -110 OFFCURVE",
"205 -138 OFFCURVE",
"253 -138 CURVE SMOOTH"
);
}
);
width = 600;
}
);
note = braceleft;
unicode = 007B;
},
{
glyphname = braceright;
lastChange = "2017-11-24 23:49:52 +0000";
layers = (
{
layerId = "BE301D28-E982-4416-937B-B9987FF5461D";
paths = (
{
closed = 1;
nodes = (
"193 760 LINE",
"183 699 LINE",
"372 699 LINE",
"359 621 LINE SMOOTH",
"350 566 OFFCURVE",
"328 543 OFFCURVE",
"302 515 CURVE SMOOTH",
"266 476 OFFCURVE",
"237 445 OFFCURVE",
"237 400 CURVE SMOOTH",
"237 353 OFFCURVE",
"269 322 OFFCURVE",
"328 315 CURVE",
"328 311 LINE",
"245 298 OFFCURVE",
"203 256 OFFCURVE",
"203 197 CURVE SMOOTH",
"203 160 OFFCURVE",
"220 132 OFFCURVE",
"234 107 CURVE SMOOTH",
"246 85 OFFCURVE",
"259 66 OFFCURVE",
"259 32 CURVE SMOOTH",
"259 23 OFFCURVE",
"258 12 OFFCURVE",
"243 -77 CURVE",
"53 -77 LINE",
"43 -138 LINE",
"218 -138 LINE SMOOTH",
"271 -138 OFFCURVE",
"307 -103 OFFCURVE",
"314 -57 CURVE SMOOTH",
"326 19 OFFCURVE",
"327 30 OFFCURVE",
"327 41 CURVE SMOOTH",
"327 91 OFFCURVE",
"307 116 OFFCURVE",
"291 142 CURVE SMOOTH",
"277 164 OFFCURVE",
"271 180 OFFCURVE",
"271 199 CURVE SMOOTH",
"271 253 OFFCURVE",
"317 281 OFFCURVE",
"402 281 CURVE SMOOTH",
"499 281 LINE",
"509 341 LINE",
"412 341 LINE SMOOTH",
"342 341 OFFCURVE",
"306 362 OFFCURVE",
"306 407 CURVE SMOOTH",
"306 428 OFFCURVE",
"314 445 OFFCURVE",
"348 480 CURVE SMOOTH",
"377 510 OFFCURVE",
"415 543 OFFCURVE",
"426 615 CURVE SMOOTH",
"436 681 OFFCURVE",
"437 688 OFFCURVE",
"437 696 CURVE SMOOTH",
"437 732 OFFCURVE",
"415 760 OFFCURVE",
"367 760 CURVE SMOOTH"
);
}
);
width = 600;
}
);
note = braceright;
unicode = 007D;
},
{
glyphname = slash;
lastChange = "2017-11-24 23:49:52 +0000";
layers = (
{
layerId = "BE301D28-E982-4416-937B-B9987FF5461D";
paths = (
{
closed = 1;
nodes = (
"97 -138 LINE",
"594 760 LINE",
"521 760 LINE",
"25 -138 LINE"
);
}
);
width = 600;
}
);
note = slash;
unicode = 002F;
},
{
glyphname = backslash;
lastChange = "2017-11-24 23:49:52 +0000";
layers = (
{
layerId = "BE301D28-E982-4416-937B-B9987FF5461D";
paths = (
{
closed = 1;
nodes = (
"443 -138 LINE",
"245 760 LINE",
"182 760 LINE",
"380 -138 LINE"
);
}
);
width = 600;
}
);
note = backslash;
unicode = 005C;
},
{
glyphname = fraction;
lastChange = "2017-11-24 23:49:52 +0000";
layers = (
{
layerId = "BE301D28-E982-4416-937B-B9987FF5461D";
paths = (
{
closed = 1;
nodes = (
"375 398 LINE",
"447 398 LINE",
"656 698 LINE",
"584 698 LINE"
);
},
{
closed = 1;
nodes = (
"-24 0 LINE",
"48 0 LINE",
"257 300 LINE",
"185 300 LINE"
);
}
);
width = 600;
}
);
note = fraction;
unicode = 2044;
},
{
glyphname = percent;
lastChange = "2017-11-24 23:49:52 +0000";
layers = (
{
layerId = "BE301D28-E982-4416-937B-B9987FF5461D";
paths = (
{
closed = 1;
nodes = (
"289 357 OFFCURVE",
"367 442 OFFCURVE",
"367 567 CURVE SMOOTH",
"367 662 OFFCURVE",
"316 710 OFFCURVE",
"238 710 CURVE SMOOTH",
"141 710 OFFCURVE",
"63 625 OFFCURVE",
"63 500 CURVE SMOOTH",
"63 405 OFFCURVE",
"114 357 OFFCURVE",
"192 357 CURVE SMOOTH"
);
},
{
closed = 1;
nodes = (
"150 410 OFFCURVE",
"128 436 OFFCURVE",
"128 483 CURVE SMOOTH",
"128 494 OFFCURVE",
"130 505 OFFCURVE",
"139 559 CURVE SMOOTH",
"149 619 OFFCURVE",
"180 657 OFFCURVE",
"236 657 CURVE SMOOTH",
"280 657 OFFCURVE",
"302 631 OFFCURVE",
"302 584 CURVE SMOOTH",
"302 573 OFFCURVE",
"300 562 OFFCURVE",
"291 508 CURVE SMOOTH",
"281 448 OFFCURVE",
"250 410 OFFCURVE",
"194 410 CURVE SMOOTH"
);
},
{
closed = 1;
nodes = (
"375 398 LINE",
"447 398 LINE",
"656 698 LINE",
"584 698 LINE"
);
},
{
closed = 1;
nodes = (
"-24 0 LINE",
"48 0 LINE",
"257 300 LINE",
"185 300 LINE"
);
},
{
closed = 1;
nodes = (
"491 -12 OFFCURVE",
"569 73 OFFCURVE",
"569 198 CURVE SMOOTH",
"569 293 OFFCURVE",
"518 341 OFFCURVE",
"440 341 CURVE SMOOTH",
"343 341 OFFCURVE",
"265 256 OFFCURVE",
"265 131 CURVE SMOOTH",
"265 36 OFFCURVE",
"316 -12 OFFCURVE",
"394 -12 CURVE SMOOTH"
);
},
{
closed = 1;
nodes = (
"352 41 OFFCURVE",
"330 67 OFFCURVE",
"330 114 CURVE SMOOTH",
"330 125 OFFCURVE",
"332 136 OFFCURVE",
"341 190 CURVE SMOOTH",
"351 250 OFFCURVE",
"382 288 OFFCURVE",
"438 288 CURVE SMOOTH",
"482 288 OFFCURVE",
"504 262 OFFCURVE",
"504 215 CURVE SMOOTH",
"504 204 OFFCURVE",
"502 193 OFFCURVE",
"493 139 CURVE SMOOTH",
"483 79 OFFCURVE",
"452 41 OFFCURVE",
"396 41 CURVE SMOOTH"
);
}
);
width = 600;
}
);
note = percent;
unicode = 0025;
},
{
glyphname = perthousand;
lastChange = "2017-11-24 23:49:52 +0000";
layers = (
{
layerId = "BE301D28-E982-4416-937B-B9987FF5461D";
paths = (
{
closed = 1;
nodes = (
"264 400 OFFCURVE",
"328 469 OFFCURVE",
"328 589 CURVE SMOOTH",
"328 660 OFFCURVE",
"285 710 OFFCURVE",
"208 710 CURVE SMOOTH",
"110 710 OFFCURVE",
"46 641 OFFCURVE",
"46 521 CURVE SMOOTH",
"46 450 OFFCURVE",
"89 400 OFFCURVE",
"166 400 CURVE SMOOTH"
);
},
{
closed = 1;
nodes = (
"136 449 OFFCURVE",
"111 474 OFFCURVE",
"111 509 CURVE SMOOTH",
"111 516 OFFCURVE",
"111 523 OFFCURVE",
"120 577 CURVE SMOOTH",
"128 625 OFFCURVE",
"150 661 OFFCURVE",
"203 661 CURVE SMOOTH",
"238 661 OFFCURVE",
"263 636 OFFCURVE",
"263 601 CURVE SMOOTH",
"263 594 OFFCURVE",
"263 587 OFFCURVE",
"254 533 CURVE SMOOTH",
"246 485 OFFCURVE",
"224 449 OFFCURVE",
"171 449 CURVE SMOOTH"
);
},
{
closed = 1;
nodes = (
"84 275 LINE",
"559 452 LINE",
"544 502 LINE",
"69 325 LINE"
);
},
{
closed = 1;
nodes = (
"256 -12 OFFCURVE",
"288 7 OFFCURVE",
"315 39 CURVE",
"320 39 LINE",
"335 7 OFFCURVE",
"370 -12 OFFCURVE",
"417 -12 CURVE SMOOTH",
"515 -12 OFFCURVE",
"579 57 OFFCURVE",
"579 177 CURVE SMOOTH",
"579 248 OFFCURVE",
"536 298 OFFCURVE",
"459 298 CURVE SMOOTH",
"412 298 OFFCURVE",
"380 280 OFFCURVE",
"354 248 CURVE",
"349 248 LINE",
"332 279 OFFCURVE",
"298 298 OFFCURVE",
"251 298 CURVE SMOOTH",
"153 298 OFFCURVE",
"89 229 OFFCURVE",
"89 109 CURVE SMOOTH",
"89 38 OFFCURVE",
"132 -12 OFFCURVE",
"209 -12 CURVE SMOOTH"
);
},
{
closed = 1;
nodes = (
"179 37 OFFCURVE",
"154 62 OFFCURVE",
"154 97 CURVE SMOOTH",
"154 104 OFFCURVE",
"154 111 OFFCURVE",
"163 165 CURVE SMOOTH",
"171 213 OFFCURVE",
"193 249 OFFCURVE",
"246 249 CURVE SMOOTH",
"281 249 OFFCURVE",
"306 224 OFFCURVE",
"306 189 CURVE SMOOTH",
"306 182 OFFCURVE",
"306 175 OFFCURVE",
"297 121 CURVE SMOOTH",
"289 73 OFFCURVE",
"267 37 OFFCURVE",
"214 37 CURVE SMOOTH"
);
},
{
closed = 1;
nodes = (
"387 37 OFFCURVE",
"362 62 OFFCURVE",
"362 97 CURVE SMOOTH",
"362 104 OFFCURVE",
"362 111 OFFCURVE",
"371 165 CURVE SMOOTH",
"379 213 OFFCURVE",
"401 249 OFFCURVE",
"454 249 CURVE SMOOTH",
"489 249 OFFCURVE",
"514 224 OFFCURVE",
"514 189 CURVE SMOOTH",
"514 182 OFFCURVE",
"514 175 OFFCURVE",
"505 121 CURVE SMOOTH",
"497 73 OFFCURVE",
"475 37 OFFCURVE",
"422 37 CURVE SMOOTH"
);
}
);
width = 600;
}
);
note = perthousand;
unicode = 2030;
},
{
glyphname = bar;
lastChange = "2017-11-24 23:49:52 +0000";
layers = (
{
layerId = "BE301D28-E982-4416-937B-B9987FF5461D";
paths = (
{
closed = 1;
nodes = (
"268 -138 LINE",
"418 760 LINE",
"350 760 LINE",
"200 -138 LINE"
);
}
);
width = 600;
}
);
note = bar;
unicode = 007C;
},
{
glyphname = brokenbar;
lastChange = "2017-11-24 23:49:52 +0000";
layers = (
{
layerId = "BE301D28-E982-4416-937B-B9987FF5461D";
paths = (
{
closed = 1;
nodes = (
"358 400 LINE",
"418 760 LINE",
"350 760 LINE",
"290 400 LINE"
);
},
{
closed = 1;
nodes = (
"268 -138 LINE",
"328 222 LINE",
"260 222 LINE",
"200 -138 LINE"
);
}
);
width = 600;
}
);
note = brokenbar;
unicode = 00A6;
},
{
glyphname = section;
lastChange = "2017-11-24 23:49:52 +0000";
layers = (
{
layerId = "BE301D28-E982-4416-937B-B9987FF5461D";
paths = (
{
closed = 1;
nodes = (
"449 66 OFFCURVE",
"430 107 OFFCURVE",
"390 134 CURVE",
"390 141 LINE",
"487 166 OFFCURVE",
"530 223 OFFCURVE",
"530 297 CURVE SMOOTH",
"530 353 OFFCURVE",
"506 405 OFFCURVE",
"399 437 CURVE SMOOTH",
"339 455 LINE SMOOTH",
"279 473 OFFCURVE",
"248 498 OFFCURVE",
"248 544 CURVE SMOOTH",
"248 601 OFFCURVE",
"298 642 OFFCURVE",
"378 642 CURVE SMOOTH",
"428 642 OFFCURVE",
"472 626 OFFCURVE",
"500 598 CURVE",
"551 650 LINE",
"513 691 OFFCURVE",
"442 710 OFFCURVE",
"379 710 CURVE SMOOTH",
"255 710 OFFCURVE",
"169 638 OFFCURVE",
"169 536 CURVE SMOOTH",
"169 489 OFFCURVE",
"188 448 OFFCURVE",
"228 421 CURVE",
"228 414 LINE",
"131 389 OFFCURVE",
"88 332 OFFCURVE",
"88 258 CURVE SMOOTH",
"88 202 OFFCURVE",
"112 150 OFFCURVE",
"219 118 CURVE SMOOTH",
"279 100 LINE SMOOTH",
"339 82 OFFCURVE",
"370 57 OFFCURVE",
"370 11 CURVE SMOOTH",
"370 -46 OFFCURVE",
"320 -87 OFFCURVE",
"240 -87 CURVE SMOOTH",
"190 -87 OFFCURVE",
"146 -71 OFFCURVE",
"118 -43 CURVE",
"67 -95 LINE",
"105 -136 OFFCURVE",
"176 -155 OFFCURVE",
"239 -155 CURVE SMOOTH",
"363 -155 OFFCURVE",
"449 -83 OFFCURVE",
"449 19 CURVE SMOOTH"
);
},
{
closed = 1;
nodes = (
"452 225 OFFCURVE",
"416 178 OFFCURVE",
"356 152 CURVE",
"348 155 OFFCURVE",
"340 158 OFFCURVE",
"331 160 CURVE",
"271 177 LINE SMOOTH",
"191 200 OFFCURVE",
"166 229 OFFCURVE",
"166 274 CURVE SMOOTH",
"166 329 OFFCURVE",
"202 376 OFFCURVE",
"262 402 CURVE",
"270 399 OFFCURVE",
"278 396 OFFCURVE",
"287 394 CURVE",
"347 377 LINE SMOOTH",
"427 354 OFFCURVE",
"452 325 OFFCURVE",
"452 280 CURVE SMOOTH"
);
}
);
width = 600;
}
);
note = section;
unicode = 00A7;
},
{
glyphname = paragraph;
lastChange = "2017-11-24 23:49:52 +0000";
layers = (
{
layerId = "BE301D28-E982-4416-937B-B9987FF5461D";
paths = (
{
closed = 1;
nodes = (
"204 -149 LINE",
"274 -149 LINE",
"405 636 LINE",
"495 636 LINE",
"364 -149 LINE",
"434 -149 LINE",
"576 698 LINE",
"345 698 LINE SMOOTH",
"209 698 OFFCURVE",
"81 601 OFFCURVE",
"81 444 CURVE SMOOTH",
"81 321 OFFCURVE",
"160 246 OFFCURVE",
"270 246 CURVE"
);
}
);
width = 600;
}
);
note = paragraph;
unicode = 00B6;
},
{
glyphname = copyright;
lastChange = "2017-11-24 23:49:52 +0000";
layers = (
{
layerId = "BE301D28-E982-4416-937B-B9987FF5461D";
paths = (
{
closed = 1;
nodes = (
"471 18 OFFCURVE",
"616 174 OFFCURVE",
"616 398 CURVE SMOOTH",
"616 573 OFFCURVE",
"508 680 OFFCURVE",
"356 680 CURVE SMOOTH",
"156 680 OFFCURVE",
"11 524 OFFCURVE",
"11 300 CURVE SMOOTH",
"11 125 OFFCURVE",
"119 18 OFFCURVE",
"271 18 CURVE SMOOTH"
);
},
{
closed = 1;
nodes = (
"129 72 OFFCURVE",
"71 182 OFFCURVE",
"71 300 CURVE SMOOTH",
"71 315 OFFCURVE",
"72 334 OFFCURVE",
"82 389 CURVE SMOOTH",
"107 530 OFFCURVE",
"213 626 OFFCURVE",
"351 626 CURVE SMOOTH",
"498 626 OFFCURVE",
"556 516 OFFCURVE",
"556 398 CURVE SMOOTH",
"556 383 OFFCURVE",
"555 364 OFFCURVE",
"545 309 CURVE SMOOTH",
"520 168 OFFCURVE",
"414 72 OFFCURVE",
"276 72 CURVE SMOOTH"
);
},
{
closed = 1;
nodes = (
"355 172 OFFCURVE",
"403 205 OFFCURVE",
"433 252 CURVE",
"388 283 LINE",
"364 250 OFFCURVE",
"335 228 OFFCURVE",
"294 228 CURVE SMOOTH",
"250 228 OFFCURVE",
"230 253 OFFCURVE",
"230 295 CURVE SMOOTH",
"230 304 OFFCURVE",
"231 312 OFFCURVE",
"232 322 CURVE",
"241 379 LINE SMOOTH",
"250 434 OFFCURVE",
"278 472 OFFCURVE",
"336 472 CURVE SMOOTH",
"378 472 OFFCURVE",
"395 453 OFFCURVE",
"403 421 CURVE",
"461 445 LINE",
"446 495 OFFCURVE",
"406 528 OFFCURVE",
"343 528 CURVE SMOOTH",
"235 528 OFFCURVE",
"162 431 OFFCURVE",
"162 317 CURVE SMOOTH",
"162 227 OFFCURVE",
"207 172 OFFCURVE",
"290 172 CURVE SMOOTH"
);
}
);
width = 600;
}
);
note = copyright;
unicode = 00A9;
},
{
glyphname = registered;
lastChange = "2017-11-24 23:49:52 +0000";
layers = (
{
layerId = "BE301D28-E982-4416-937B-B9987FF5461D";
paths = (
{
closed = 1;
nodes = (
"426 346 OFFCURVE",
"514 439 OFFCURVE",
"514 549 CURVE SMOOTH",
"514 647 OFFCURVE",
"443 710 OFFCURVE",
"349 710 CURVE SMOOTH",
"234 710 OFFCURVE",
"146 617 OFFCURVE",
"146 507 CURVE SMOOTH",
"146 409 OFFCURVE",
"217 346 OFFCURVE",
"311 346 CURVE SMOOTH"
);
},
{
closed = 1;
nodes = (
"228 386 OFFCURVE",
"193 437 OFFCURVE",
"193 506 CURVE SMOOTH",
"193 519 OFFCURVE",
"194 527 OFFCURVE",
"199 551 CURVE SMOOTH",
"214 624 OFFCURVE",
"267 670 OFFCURVE",
"351 670 CURVE SMOOTH",
"432 670 OFFCURVE",
"467 619 OFFCURVE",
"467 550 CURVE SMOOTH",
"467 537 OFFCURVE",
"466 529 OFFCURVE",
"461 505 CURVE SMOOTH",
"446 432 OFFCURVE",
"393 386 OFFCURVE",
"309 386 CURVE SMOOTH"
);
},
{
closed = 1;
nodes = (
"297 509 LINE",
"326 509 LINE",
"353 439 LINE",
"397 439 LINE",
"364 515 LINE",
"392 524 OFFCURVE",
"411 546 OFFCURVE",
"411 577 CURVE SMOOTH",
"411 606 OFFCURVE",
"393 624 OFFCURVE",
"361 624 CURVE SMOOTH",
"277 624 LINE",
"246 439 LINE",
"285 439 LINE"
);
},
{
closed = 1;
nodes = (
"302 538 LINE",
"311 593 LINE",
"347 593 LINE SMOOTH",
"361 593 OFFCURVE",
"368 586 OFFCURVE",
"368 574 CURVE SMOOTH",
"368 572 OFFCURVE",
"368 567 OFFCURVE",
"367 562 CURVE SMOOTH",
"364 547 OFFCURVE",
"353 538 OFFCURVE",
"337 538 CURVE SMOOTH"
);
}
);
width = 600;
}
);
note = registered;
unicode = 00AE;
},
{
glyphname = trademark;
lastChange = "2017-11-24 23:49:52 +0000";
layers = (
{
layerId = "BE301D28-E982-4416-937B-B9987FF5461D";
paths = (
{
closed = 1;
nodes = (
"181 419 LINE",
"220 652 LINE",
"307 652 LINE",
"315 698 LINE",
"89 698 LINE",
"81 652 LINE",
"168 652 LINE",
"129 419 LINE"
);
},
{
closed = 1;
nodes = (
"357 419 LINE",
"378 546 LINE",
"391 629 LINE",
"395 629 LINE",
"447 473 LINE",
"551 629 LINE",
"555 629 LINE",
"541 546 LINE",
"520 419 LINE",
"567 419 LINE",
"613 698 LINE",
"550 698 LINE",
"463 564 LINE",
"460 564 LINE",
"418 698 LINE",
"356 698 LINE",
"310 419 LINE"
);
}
);
width = 600;
}
);
note = trademark;
unicode = 2122;
},
{
glyphname = ordfeminine;
lastChange = "2017-11-24 23:49:52 +0000";
layers = (
{
layerId = "BE301D28-E982-4416-937B-B9987FF5461D";
paths = (
{
closed = 1;
nodes = (
"443 355 LINE",
"479 577 LINE SMOOTH",
"481 590 OFFCURVE",
"482 604 OFFCURVE",
"482 613 CURVE SMOOTH",
"482 673 OFFCURVE",
"433 710 OFFCURVE",
"355 710 CURVE SMOOTH",
"285 710 OFFCURVE",
"237 674 OFFCURVE",
"213 641 CURVE",
"251 606 LINE",
"270 635 OFFCURVE",
"305 658 OFFCURVE",
"348 658 CURVE SMOOTH",
"393 658 OFFCURVE",
"419 641 OFFCURVE",
"419 605 CURVE SMOOTH",
"419 598 OFFCURVE",
"419 589 OFFCURVE",
"417 580 CURVE",
"412 553 LINE",
"338 553 LINE SMOOTH",
"229 553 OFFCURVE",
"172 515 OFFCURVE",
"172 436 CURVE SMOOTH",
"172 384 OFFCURVE",
"207 349 OFFCURVE",
"278 349 CURVE SMOOTH",
"329 349 OFFCURVE",
"363 381 OFFCURVE",
"380 412 CURVE",
"388 412 LINE",
"379 355 LINE"
);
},
{
closed = 1;
nodes = (
"405 506 LINE",
"398 465 LINE SMOOTH",
"391 425 OFFCURVE",
"342 400 OFFCURVE",
"291 400 CURVE SMOOTH",
"255 400 OFFCURVE",
"235 412 OFFCURVE",
"235 437 CURVE SMOOTH",
"235 441 OFFCURVE",
"236 450 OFFCURVE",
"239 463 CURVE SMOOTH",
"246 494 OFFCURVE",
"276 506 OFFCURVE",
"331 506 CURVE SMOOTH"
);
}
);
width = 600;
}
);
note = ordfeminine;
unicode = 00AA;
},
{
glyphname = ordmasculine;
lastChange = "2017-11-24 23:49:52 +0000";
layers = (
{
layerId = "BE301D28-E982-4416-937B-B9987FF5461D";
paths = (
{
closed = 1;
nodes = (
"435 349 OFFCURVE",
"509 440 OFFCURVE",
"509 568 CURVE SMOOTH",
"509 651 OFFCURVE",
"453 710 OFFCURVE",
"372 710 CURVE SMOOTH",
"257 710 OFFCURVE",
"183 619 OFFCURVE",
"183 491 CURVE SMOOTH",
"183 408 OFFCURVE",
"239 349 OFFCURVE",
"320 349 CURVE SMOOTH"
);
},
{
closed = 1;
nodes = (
"276 403 OFFCURVE",
"249 434 OFFCURVE",
"249 477 CURVE SMOOTH",
"249 485 OFFCURVE",
"249 490 OFFCURVE",
"251 502 CURVE SMOOTH",
"261 562 LINE SMOOTH",
"270 617 OFFCURVE",
"304 656 OFFCURVE",
"364 656 CURVE SMOOTH",
"416 656 OFFCURVE",
"443 625 OFFCURVE",
"443 582 CURVE SMOOTH",
"443 574 OFFCURVE",
"443 569 OFFCURVE",
"441 557 CURVE SMOOTH",
"431 497 LINE SMOOTH",
"422 442 OFFCURVE",
"388 403 OFFCURVE",
"328 403 CURVE SMOOTH"
);
}
);
width = 600;
}
);
note = ordmasculine;
unicode = 00BA;
},
{
glyphname = degree;
lastChange = "2017-11-24 23:49:52 +0000";
layers = (
{
layerId = "BE301D28-E982-4416-937B-B9987FF5461D";
paths = (
{
closed = 1;
nodes = (
"440 368 OFFCURVE",
"518 451 OFFCURVE",
"518 556 CURVE SMOOTH",
"518 653 OFFCURVE",
"452 710 OFFCURVE",
"361 710 CURVE SMOOTH",
"252 710 OFFCURVE",
"174 627 OFFCURVE",
"174 522 CURVE SMOOTH",
"174 425 OFFCURVE",
"240 368 OFFCURVE",
"331 368 CURVE SMOOTH"
);
},
{
closed = 1;
nodes = (
"276 431 OFFCURVE",
"243 468 OFFCURVE",
"243 525 CURVE SMOOTH",
"243 593 OFFCURVE",
"291 647 OFFCURVE",
"359 647 CURVE SMOOTH",
"416 647 OFFCURVE",
"449 610 OFFCURVE",
"449 553 CURVE SMOOTH",
"449 485 OFFCURVE",
"401 431 OFFCURVE",
"333 431 CURVE SMOOTH"
);
}
);
width = 600;
}
);
note = degree;
unicode = 00B0;
},
{
glyphname = asterisk;
lastChange = "2017-11-24 23:49:52 +0000";
layers = (
{
layerId = "BE301D28-E982-4416-937B-B9987FF5461D";
paths = (
{
closed = 1;
nodes = (
"296 227 LINE",
"392 55 LINE",
"450 96 LINE",
"355 264 LINE",
"562 332 LINE",
"553 396 LINE",
"348 332 LINE",
"384 548 LINE",
"312 548 LINE",
"276 332 LINE",
"86 396 LINE",
"56 336 LINE",
"242 267 LINE",
"92 99 LINE",
"145 55 LINE"
);
}
);
width = 600;
}
);
note = asterisk;
unicode = 002A;
},
{
glyphname = dagger;
lastChange = "2017-11-24 23:49:52 +0000";
layers = (
{
layerId = "BE301D28-E982-4416-937B-B9987FF5461D";
paths = (
{
closed = 1;
nodes = (
"257 -200 LINE",
"365 453 LINE",
"559 453 LINE",
"569 516 LINE",
"375 516 LINE",
"413 740 LINE",
"345 740 LINE",
"308 516 LINE",
"114 516 LINE",
"103 453 LINE",
"297 453 LINE",
"189 -200 LINE"
);
}
);
width = 600;
}
);
note = dagger;
unicode = 2020;
},
{
glyphname = daggerdbl;
lastChange = "2017-11-24 23:49:52 +0000";
layers = (
{
layerId = "BE301D28-E982-4416-937B-B9987FF5461D";
paths = (
{
closed = 1;
nodes = (
"257 -200 LINE",
"294 24 LINE",
"488 24 LINE",
"499 87 LINE",
"305 87 LINE",
"365 453 LINE",
"559 453 LINE",
"569 516 LINE",
"375 516 LINE",
"413 740 LINE",
"345 740 LINE",
"308 516 LINE",
"114 516 LINE",
"103 453 LINE",
"297 453 LINE",
"236 87 LINE",
"42 87 LINE",
"32 24 LINE",
"226 24 LINE",
"189 -200 LINE"
);
}
);
width = 600;
}
);
note = daggerdbl;
unicode = 2021;
},
{
glyphname = numbersign;
lastChange = "2017-11-24 23:49:52 +0000";
layers = (
{
layerId = "BE301D28-E982-4416-937B-B9987FF5461D";
paths = (
{
closed = 1;
nodes = (
"68 0 LINE",
"141 0 LINE",
"379 698 LINE",
"306 698 LINE",
"232 481 LINE",
"92 481 LINE",
"81 417 LINE",
"210 417 LINE",
"164 281 LINE",
"23 281 LINE",
"12 217 LINE",
"142 217 LINE"
);
},
{
closed = 1;
nodes = (
"252 0 LINE",
"325 0 LINE",
"399 217 LINE",
"539 217 LINE",
"550 281 LINE",
"421 281 LINE",
"467 417 LINE",
"608 417 LINE",
"619 481 LINE",
"489 481 LINE",
"563 698 LINE",
"490 698 LINE"
);
}
);
width = 600;
}
);
note = numbersign;
unicode = 0023;
},
{
glyphname = asciicircum;
lastChange = "2017-11-24 23:49:52 +0000";
layers = (
{
layerId = "BE301D28-E982-4416-937B-B9987FF5461D";
paths = (
{
closed = 1;
nodes = (
"572 320 LINE",
"422 698 LINE",
"334 698 LINE",
"65 328 LINE",
"123 293 LINE",
"367 630 LINE",
"371 630 LINE",
"507 293 LINE"
);
}
);
width = 600;
}
);
note = asciicircum;
unicode = 005E;
},
{
glyphname = asciitilde;
lastChange = "2017-11-24 23:49:52 +0000";
layers = (
{
layerId = "BE301D28-E982-4416-937B-B9987FF5461D";
paths = (
{
closed = 1;
nodes = (
"480 236 OFFCURVE",
"518 257 OFFCURVE",
"551 288 CURVE",
"520 335 LINE",
"488 312 OFFCURVE",
"466 302 OFFCURVE",
"430 302 CURVE SMOOTH",
"388 302 OFFCURVE",
"360 316 OFFCURVE",
"323 335 CURVE SMOOTH",
"278 358 OFFCURVE",
"246 374 OFFCURVE",
"195 374 CURVE SMOOTH",
"136 374 OFFCURVE",
"98 353 OFFCURVE",
"65 322 CURVE",
"96 275 LINE",
"128 298 OFFCURVE",
"150 308 OFFCURVE",
"186 308 CURVE SMOOTH",
"228 308 OFFCURVE",
"256 294 OFFCURVE",
"293 275 CURVE SMOOTH",
"338 252 OFFCURVE",
"370 236 OFFCURVE",
"421 236 CURVE SMOOTH"
);
}
);
width = 600;
}
);
note = asciitilde;
unicode = 007E;
},
{
glyphname = plus;
lastChange = "2017-11-24 23:49:52 +0000";
layers = (
{
layerId = "BE301D28-E982-4416-937B-B9987FF5461D";
paths = (
{
closed = 1;
nodes = (
"304 62 LINE",
"339 272 LINE",
"537 272 LINE",
"548 338 LINE",
"350 338 LINE",
"385 548 LINE",
"311 548 LINE",
"276 338 LINE",
"78 338 LINE",
"67 272 LINE",
"265 272 LINE",
"230 62 LINE"
);
}
);
width = 600;
}
);
note = plus;
unicode = 002B;
},
{
glyphname = minus;
lastChange = "2017-11-24 23:49:52 +0000";
layers = (
{
layerId = "BE301D28-E982-4416-937B-B9987FF5461D";
paths = (
{
closed = 1;
nodes = (
"538 272 LINE",
"549 338 LINE",
"78 338 LINE",
"67 272 LINE"
);
}
);
width = 600;
}
);
note = minus;
unicode = 2212;
},
{
glyphname = plusminus;
lastChange = "2017-11-24 23:49:52 +0000";
layers = (
{
layerId = "BE301D28-E982-4416-937B-B9987FF5461D";
paths = (
{
closed = 1;
nodes = (
"319 151 LINE",
"352 351 LINE",
"550 351 LINE",
"560 417 LINE",
"362 417 LINE",
"395 617 LINE",
"321 617 LINE",
"288 417 LINE",
"90 417 LINE",
"79 351 LINE",
"278 351 LINE",
"245 151 LINE"
);
},
{
closed = 1;
nodes = (
"494 0 LINE",
"505 66 LINE",
"32 66 LINE",
"21 0 LINE"
);
}
);
width = 600;
}
);
note = plusminus;
unicode = 00B1;
},
{
glyphname = multiply;
lastChange = "2017-11-24 23:49:52 +0000";
layers = (
{
layerId = "BE301D28-E982-4416-937B-B9987FF5461D";
paths = (
{
closed = 1;
nodes = (
"440 95 LINE",
"491 138 LINE",
"356 301 LINE",
"549 467 LINE",
"507 517 LINE",
"315 352 LINE",
"179 517 LINE",
"128 474 LINE",
"263 311 LINE",
"70 145 LINE",
"112 95 LINE",
"304 261 LINE"
);
}
);
width = 600;
}
);
note = multiply;
unicode = 00D7;
},
{
glyphname = divide;
lastChange = "2017-11-24 23:49:52 +0000";
layers = (
{
layerId = "BE301D28-E982-4416-937B-B9987FF5461D";
paths = (
{
closed = 1;
nodes = (
"538 272 LINE",
"549 338 LINE",
"78 338 LINE",
"67 272 LINE"
);
},
{
closed = 1;
nodes = (
"313 52 OFFCURVE",
"331 72 OFFCURVE",
"336 102 CURVE SMOOTH",
"337 108 OFFCURVE",
"339 119 OFFCURVE",
"339 129 CURVE SMOOTH",
"339 151 OFFCURVE",
"325 169 OFFCURVE",
"282 169 CURVE SMOOTH",
"238 169 OFFCURVE",
"220 149 OFFCURVE",
"215 119 CURVE SMOOTH",
"214 113 OFFCURVE",
"212 102 OFFCURVE",
"212 92 CURVE SMOOTH",
"212 70 OFFCURVE",
"226 52 OFFCURVE",
"269 52 CURVE SMOOTH"
);
},
{
closed = 1;
nodes = (
"378 441 OFFCURVE",
"396 461 OFFCURVE",
"401 491 CURVE SMOOTH",
"402 497 OFFCURVE",
"404 508 OFFCURVE",
"404 518 CURVE SMOOTH",
"404 540 OFFCURVE",
"390 558 OFFCURVE",
"347 558 CURVE SMOOTH",
"303 558 OFFCURVE",
"285 538 OFFCURVE",
"280 508 CURVE SMOOTH",
"279 502 OFFCURVE",
"277 491 OFFCURVE",
"277 481 CURVE SMOOTH",
"277 459 OFFCURVE",
"291 441 OFFCURVE",
"334 441 CURVE SMOOTH"
);
}
);
width = 600;
}
);
note = divide;
unicode = 00F7;
},
{
glyphname = equal;
lastChange = "2017-11-24 23:49:52 +0000";
layers = (
{
layerId = "BE301D28-E982-4416-937B-B9987FF5461D";
paths = (
{
closed = 1;
nodes = (
"555 373 LINE",
"566 439 LINE",
"95 439 LINE",
"84 373 LINE"
);
},
{
closed = 1;
nodes = (
"522 174 LINE",
"533 240 LINE",
"62 240 LINE",
"51 174 LINE"
);
}
);
width = 600;
}
);
note = equal;
unicode = 003D;
},
{
glyphname = approxequal;
lastChange = "2017-11-24 23:49:52 +0000";
layers = (
{
layerId = "BE301D28-E982-4416-937B-B9987FF5461D";
paths = (
{
closed = 1;
nodes = (
"463 138 OFFCURVE",
"501 159 OFFCURVE",
"534 190 CURVE",
"503 237 LINE",
"471 214 OFFCURVE",
"449 204 OFFCURVE",
"413 204 CURVE SMOOTH",
"371 204 OFFCURVE",
"343 218 OFFCURVE",
"306 237 CURVE SMOOTH",
"261 260 OFFCURVE",
"229 276 OFFCURVE",
"178 276 CURVE SMOOTH",
"119 276 OFFCURVE",
"81 255 OFFCURVE",
"48 224 CURVE",
"79 177 LINE",
"111 200 OFFCURVE",
"133 210 OFFCURVE",
"169 210 CURVE SMOOTH",
"211 210 OFFCURVE",
"239 196 OFFCURVE",
"276 177 CURVE SMOOTH",
"321 154 OFFCURVE",
"353 138 OFFCURVE",
"404 138 CURVE SMOOTH"
);
},
{
closed = 1;
nodes = (
"497 335 OFFCURVE",
"535 356 OFFCURVE",
"568 387 CURVE",
"537 434 LINE",
"505 411 OFFCURVE",
"483 401 OFFCURVE",
"447 401 CURVE SMOOTH",
"405 401 OFFCURVE",
"377 415 OFFCURVE",
"340 434 CURVE SMOOTH",
"295 457 OFFCURVE",
"263 473 OFFCURVE",
"212 473 CURVE SMOOTH",
"153 473 OFFCURVE",
"115 452 OFFCURVE",
"82 421 CURVE",
"113 374 LINE",
"145 397 OFFCURVE",
"167 407 OFFCURVE",
"203 407 CURVE SMOOTH",
"245 407 OFFCURVE",
"273 393 OFFCURVE",
"310 374 CURVE SMOOTH",
"355 351 OFFCURVE",
"387 335 OFFCURVE",
"438 335 CURVE SMOOTH"
);
}
);
width = 600;
}
);
note = approxequal;
unicode = 2248;
},
{
glyphname = notequal;
lastChange = "2017-11-24 23:49:52 +0000";
layers = (
{
layerId = "BE301D28-E982-4416-937B-B9987FF5461D";
paths = (
{
closed = 1;
nodes = (
"183 74 LINE",
"254 174 LINE",
"522 174 LINE",
"533 240 LINE",
"300 240 LINE",
"392 373 LINE",
"555 373 LINE",
"566 439 LINE",
"440 439 LINE",
"511 539 LINE",
"434 539 LINE",
"363 439 LINE",
"95 439 LINE",
"84 373 LINE",
"317 373 LINE",
"225 240 LINE",
"62 240 LINE",
"51 174 LINE",
"177 174 LINE",
"106 74 LINE"
);
}
);
width = 600;
}
);
note = notequal;
unicode = 2260;
},
{
glyphname = less;
lastChange = "2017-11-24 23:49:52 +0000";
layers = (
{
layerId = "BE301D28-E982-4416-937B-B9987FF5461D";
paths = (
{
closed = 1;
nodes = (
"473 20 LINE",
"486 95 LINE",
"167 297 LINE",
"168 305 LINE",
"555 508 LINE",
"569 593 LINE",
"101 344 LINE",
"88 268 LINE"
);
}
);
width = 600;
}
);
note = less;
unicode = 003C;
},
{
glyphname = greater;
lastChange = "2017-11-24 23:49:52 +0000";
layers = (
{
layerId = "BE301D28-E982-4416-937B-B9987FF5461D";
paths = (
{
closed = 1;
nodes = (
"49 20 LINE",
"517 269 LINE",
"530 345 LINE",
"145 593 LINE",
"132 519 LINE",
"451 316 LINE",
"450 308 LINE",
"63 106 LINE"
);
}
);
width = 600;
}
);
note = greater;
unicode = 003E;
},
{
glyphname = lessequal;
lastChange = "2017-11-24 23:49:52 +0000";
layers = (
{
layerId = "BE301D28-E982-4416-937B-B9987FF5461D";
paths = (
{
closed = 1;
nodes = (
"472 0 LINE",
"483 67 LINE",
"55 67 LINE",
"44 0 LINE"
);
},
{
closed = 1;
nodes = (
"569 590 LINE",
"112 398 LINE",
"98 313 LINE",
"492 121 LINE",
"505 196 LINE",
"177 349 LINE",
"178 356 LINE",
"556 511 LINE"
);
}
);
width = 600;
}
);
note = lessequal;
unicode = 2264;
},
{
glyphname = greaterequal;
lastChange = "2017-11-24 23:49:52 +0000";
layers = (
{
layerId = "BE301D28-E982-4416-937B-B9987FF5461D";
paths = (
{
closed = 1;
nodes = (
"68 121 LINE",
"525 313 LINE",
"539 398 LINE",
"145 590 LINE",
"132 515 LINE",
"460 362 LINE",
"459 355 LINE",
"81 200 LINE"
);
},
{
closed = 1;
nodes = (
"46 0 LINE",
"474 0 LINE",
"485 67 LINE",
"57 67 LINE"
);
}
);
width = 600;
}
);
note = greaterequal;
unicode = 2265;
},
{
glyphname = periodcentered;
lastChange = "2017-11-24 23:49:52 +0000";
layers = (
{
layerId = "BE301D28-E982-4416-937B-B9987FF5461D";
paths = (
{
closed = 1;
nodes = (
"348 236 OFFCURVE",
"372 259 OFFCURVE",
"378 295 CURVE SMOOTH",
"380 307 OFFCURVE",
"382 319 OFFCURVE",
"382 327 CURVE SMOOTH",
"382 352 OFFCURVE",
"364 372 OFFCURVE",
"317 372 CURVE SMOOTH",
"266 372 OFFCURVE",
"242 349 OFFCURVE",
"236 313 CURVE SMOOTH",
"234 301 OFFCURVE",
"232 289 OFFCURVE",
"232 281 CURVE SMOOTH",
"232 256 OFFCURVE",
"250 236 OFFCURVE",
"297 236 CURVE SMOOTH"
);
}
);
width = 600;
}
);
note = periodcentered;
unicode = 00B7;
},
{
glyphname = bullet;
lastChange = "2017-11-24 23:49:52 +0000";
layers = (
{
layerId = "BE301D28-E982-4416-937B-B9987FF5461D";
paths = (
{
closed = 1;
nodes = (
"375 187 OFFCURVE",
"415 233 OFFCURVE",
"425 293 CURVE SMOOTH",
"430 323 OFFCURVE",
"431 332 OFFCURVE",
"431 339 CURVE SMOOTH",
"431 387 OFFCURVE",
"402 422 OFFCURVE",
"327 422 CURVE SMOOTH",
"240 422 OFFCURVE",
"200 376 OFFCURVE",
"190 316 CURVE SMOOTH",
"185 286 OFFCURVE",
"184 277 OFFCURVE",
"184 270 CURVE SMOOTH",
"184 222 OFFCURVE",
"213 187 OFFCURVE",
"288 187 CURVE SMOOTH"
);
}
);
width = 600;
}
);
note = bullet;
unicode = 2022;
},
{
glyphname = lozenge;
lastChange = "2017-11-24 23:49:52 +0000";
layers = (
{
layerId = "BE301D28-E982-4416-937B-B9987FF5461D";
paths = (
{
closed = 1;
nodes = (
"296 0 LINE",
"570 349 LINE",
"412 698 LINE",
"332 698 LINE",
"58 349 LINE",
"216 0 LINE"
);
},
{
closed = 1;
nodes = (
"261 71 LINE",
"137 344 LINE",
"360 627 LINE",
"367 627 LINE",
"491 354 LINE",
"268 71 LINE"
);
}
);
width = 600;
}
);
note = lozenge;
unicode = 25CA;
},
{
glyphname = logicalnot;
lastChange = "2017-11-24 23:49:52 +0000";
layers = (
{
layerId = "BE301D28-E982-4416-937B-B9987FF5461D";
paths = (
{
closed = 1;
nodes = (
"495 78 LINE",
"538 338 LINE",
"78 338 LINE",
"67 272 LINE",
"459 272 LINE",
"427 78 LINE"
);
}
);
width = 600;
}
);
note = logicalnot;
unicode = 00AC;
},
{
glyphname = radical;
lastChange = "2017-11-24 23:49:52 +0000";
layers = (
{
layerId = "BE301D28-E982-4416-937B-B9987FF5461D";
paths = (
{
closed = 1;
nodes = (
"325 0 LINE",
"645 698 LINE",
"565 698 LINE",
"410 353 LINE",
"281 65 LINE",
"276 65 LINE",
"248 353 LINE",
"231 516 LINE",
"72 516 LINE",
"62 454 LINE",
"163 454 LINE",
"214 0 LINE"
);
}
);
width = 600;
}
);
note = radical;
unicode = 221A;
},
{
glyphname = integral;
lastChange = "2017-11-24 23:49:52 +0000";
layers = (
{
layerId = "BE301D28-E982-4416-937B-B9987FF5461D";
paths = (
{
closed = 1;
nodes = (
"245 -212 OFFCURVE",
"272 -163 OFFCURVE",
"281 -107 CURVE SMOOTH",
"411 673 LINE",
"619 673 LINE",
"630 740 LINE",
"457 740 LINE SMOOTH",
"380 740 OFFCURVE",
"336 691 OFFCURVE",
"325 623 CURVE SMOOTH",
"198 -138 LINE",
"180 -142 LINE",
"26 22 LINE",
"-27 -26 LINE",
"34 -93 LINE SMOOTH",
"114 -180 OFFCURVE",
"143 -212 OFFCURVE",
"185 -212 CURVE SMOOTH"
);
}
);
width = 600;
}
);
note = integral;
unicode = 222B;
},
{
glyphname = infinity;
lastChange = "2017-11-24 23:49:52 +0000";
layers = (
{
layerId = "BE301D28-E982-4416-937B-B9987FF5461D";
paths = (
{
closed = 1;
nodes = (
"197 126 OFFCURVE",
"252 171 OFFCURVE",
"282 258 CURVE",
"287 258 LINE",
"300 177 OFFCURVE",
"350 126 OFFCURVE",
"425 126 CURVE SMOOTH",
"531 126 OFFCURVE",
"597 228 OFFCURVE",
"597 337 CURVE SMOOTH",
"597 444 OFFCURVE",
"533 485 OFFCURVE",
"477 485 CURVE SMOOTH",
"416 485 OFFCURVE",
"361 441 OFFCURVE",
"331 354 CURVE",
"326 354 LINE",
"314 434 OFFCURVE",
"263 485 OFFCURVE",
"188 485 CURVE SMOOTH",
"82 485 OFFCURVE",
"16 383 OFFCURVE",
"16 274 CURVE SMOOTH",
"16 167 OFFCURVE",
"80 126 OFFCURVE",
"136 126 CURVE SMOOTH"
);
},
{
closed = 1;
nodes = (
"112 188 OFFCURVE",
"89 217 OFFCURVE",
"89 260 CURVE SMOOTH",
"89 278 OFFCURVE",
"94 310 OFFCURVE",
"96 322 CURVE SMOOTH",
"107 388 OFFCURVE",
"142 422 OFFCURVE",
"191 422 CURVE SMOOTH",
"249 422 OFFCURVE",
"266 375 OFFCURVE",
"275 300 CURVE",
"242 227 OFFCURVE",
"204 188 OFFCURVE",
"154 188 CURVE SMOOTH"
);
},
{
closed = 1;
nodes = (
"364 189 OFFCURVE",
"347 236 OFFCURVE",
"338 312 CURVE",
"371 385 OFFCURVE",
"409 423 OFFCURVE",
"459 423 CURVE SMOOTH",
"501 423 OFFCURVE",
"524 394 OFFCURVE",
"524 351 CURVE SMOOTH",
"524 333 OFFCURVE",
"519 301 OFFCURVE",
"517 289 CURVE SMOOTH",
"506 223 OFFCURVE",
"471 189 OFFCURVE",
"422 189 CURVE SMOOTH"
);
}
);
width = 600;
}
);
note = infinity;
unicode = 221E;
},
{
glyphname = uni212E;
lastChange = "2017-11-24 23:49:52 +0000";
layers = (
{
layerId = "BE301D28-E982-4416-937B-B9987FF5461D";
paths = (
{
closed = 1;
nodes = (
"145 349 LINE",
"574 349 LINE",
"574 556 OFFCURVE",
"466 710 OFFCURVE",
"300 710 CURVE SMOOTH",
"134 710 OFFCURVE",
"26 556 OFFCURVE",
"26 349 CURVE SMOOTH",
"26 142 OFFCURVE",
"134 -12 OFFCURVE",
"300 -12 CURVE SMOOTH",
"424 -12 OFFCURVE",
"499 60 OFFCURVE",
"546 147 CURVE",
"505 170 LINE",
"462 91 OFFCURVE",
"402 34 OFFCURVE",
"300 34 CURVE SMOOTH",
"231 34 OFFCURVE",
"177 69 OFFCURVE",
"145 109 CURVE"
);
},
{
closed = 1;
nodes = (
"145 389 LINE",
"145 594 LINE",
"179 635 OFFCURVE",
"232 666 OFFCURVE",
"300 666 CURVE SMOOTH",
"368 666 OFFCURVE",
"421 635 OFFCURVE",
"455 594 CURVE",
"455 389 LINE"
);
}
);
width = 600;
}
);
note = uni212E;
unicode = 212E;
},
{
glyphname = uni2113;
lastChange = "2017-11-24 23:49:52 +0000";
layers = (
{
layerId = "BE301D28-E982-4416-937B-B9987FF5461D";
paths = (
{
closed = 1;
nodes = (
"421 -12 OFFCURVE",
"478 49 OFFCURVE",
"509 126 CURVE",
"452 160 LINE",
"415 92 OFFCURVE",
"384 53 OFFCURVE",
"325 53 CURVE SMOOTH",
"269 53 OFFCURVE",
"237 87 OFFCURVE",
"237 178 CURVE SMOOTH",
"237 223 LINE",
"373 343 OFFCURVE",
"447 452 OFFCURVE",
"447 585 CURVE SMOOTH",
"447 693 OFFCURVE",
"397 752 OFFCURVE",
"307 752 CURVE SMOOTH",
"220 752 OFFCURVE",
"160 698 OFFCURVE",
"160 555 CURVE SMOOTH",
"160 257 LINE",
"132 235 OFFCURVE",
"99 216 OFFCURVE",
"70 198 CURVE",
"103 146 LINE",
"123 158 OFFCURVE",
"141 170 OFFCURVE",
"160 184 CURVE",
"160 159 LINE SMOOTH",
"160 58 OFFCURVE",
"216 -12 OFFCURVE",
"321 -12 CURVE SMOOTH"
);
},
{
closed = 1;
nodes = (
"347 687 OFFCURVE",
"374 661 OFFCURVE",
"374 592 CURVE SMOOTH",
"374 575 LINE SMOOTH",
"374 485 OFFCURVE",
"326 396 OFFCURVE",
"237 307 CURVE",
"237 562 LINE SMOOTH",
"237 657 OFFCURVE",
"266 687 OFFCURVE",
"308 687 CURVE SMOOTH"
);
}
);
width = 600;
}
);
note = uni2113;
unicode = 2113;
},
{
glyphname = uni2116;
lastChange = "2017-11-24 23:49:52 +0000";
layers = (
{
layerId = "BE301D28-E982-4416-937B-B9987FF5461D";
paths = (
{
closed = 1;
nodes = (
"567 345 OFFCURVE",
"613 404 OFFCURVE",
"630 522 CURVE SMOOTH",
"634 550 OFFCURVE",
"637 573 OFFCURVE",
"637 594 CURVE SMOOTH",
"637 669 OFFCURVE",
"608 706 OFFCURVE",
"552 706 CURVE SMOOTH",
"481 706 OFFCURVE",
"435 647 OFFCURVE",
"418 529 CURVE SMOOTH",
"414 501 OFFCURVE",
"411 478 OFFCURVE",
"411 457 CURVE SMOOTH",
"411 382 OFFCURVE",
"440 345 OFFCURVE",
"496 345 CURVE SMOOTH"
);
},
{
closed = 1;
nodes = (
"70 0 LINE",
"172 610 LINE",
"178 610 LINE",
"173 349 LINE",
"169 0 LINE",
"290 0 LINE",
"407 698 LINE",
"340 698 LINE",
"238 88 LINE",
"232 88 LINE",
"237 349 LINE",
"241 698 LINE",
"120 698 LINE",
"3 0 LINE"
);
},
{
closed = 1;
nodes = (
"477 398 OFFCURVE",
"467 417 OFFCURVE",
"467 445 CURVE SMOOTH",
"467 457 OFFCURVE",
"470 473 OFFCURVE",
"472 485 CURVE SMOOTH",
"485 564 LINE SMOOTH",
"494 618 OFFCURVE",
"507 653 OFFCURVE",
"545 653 CURVE SMOOTH",
"571 653 OFFCURVE",
"581 634 OFFCURVE",
"581 606 CURVE SMOOTH",
"581 594 OFFCURVE",
"578 578 OFFCURVE",
"576 566 CURVE SMOOTH",
"563 487 LINE SMOOTH",
"554 433 OFFCURVE",
"541 398 OFFCURVE",
"503 398 CURVE SMOOTH"
);
},
{
closed = 1;
nodes = (
"583 257 LINE",
"592 312 LINE",
"386 312 LINE",
"377 257 LINE"
);
}
);
width = 600;
}
);
note = uni2116;
unicode = 2116;
},
{
glyphname = partialdiff;
lastChange = "2017-11-24 23:49:52 +0000";
layers = (
{
layerId = "BE301D28-E982-4416-937B-B9987FF5461D";
paths = (
{
closed = 1;
nodes = (
"423 -12 OFFCURVE",
"535 129 OFFCURVE",
"535 343 CURVE SMOOTH",
"535 502 OFFCURVE",
"457 634 OFFCURVE",
"341 698 CURVE",
"216 698 LINE",
"349 637 OFFCURVE",
"437 536 OFFCURVE",
"463 415 CURVE",
"460 413 LINE",
"435 468 OFFCURVE",
"375 504 OFFCURVE",
"308 504 CURVE SMOOTH",
"161 504 OFFCURVE",
"56 369 OFFCURVE",
"56 198 CURVE SMOOTH",
"56 72 OFFCURVE",
"134 -12 OFFCURVE",
"252 -12 CURVE SMOOTH"
);
},
{
closed = 1;
nodes = (
"184 57 OFFCURVE",
"134 97 OFFCURVE",
"134 175 CURVE SMOOTH",
"134 188 OFFCURVE",
"135 201 OFFCURVE",
"139 225 CURVE SMOOTH",
"148 281 LINE SMOOTH",
"165 385 OFFCURVE",
"235 435 OFFCURVE",
"324 435 CURVE SMOOTH",
"401 435 OFFCURVE",
"451 395 OFFCURVE",
"451 317 CURVE SMOOTH",
"451 304 OFFCURVE",
"450 291 OFFCURVE",
"446 267 CURVE SMOOTH",
"437 211 LINE SMOOTH",
"420 107 OFFCURVE",
"350 57 OFFCURVE",
"261 57 CURVE SMOOTH"
);
}
);
width = 600;
}
);
note = partialdiff;
unicode = 2202;
},
{
glyphname = cent;
lastChange = "2017-11-24 23:49:52 +0000";
layers = (
{
layerId = "BE301D28-E982-4416-937B-B9987FF5461D";
paths = (
{
closed = 1;
nodes = (
"209 -114 LINE",
"271 -114 LINE",
"288 -11 LINE",
"385 -5 OFFCURVE",
"446 50 OFFCURVE",
"508 149 CURVE",
"452 182 LINE",
"380 84 OFFCURVE",
"338 61 OFFCURVE",
"298 57 CURVE",
"364 458 LINE",
"409 451 OFFCURVE",
"437 429 OFFCURVE",
"454 378 CURVE",
"521 404 LINE",
"505 464 OFFCURVE",
"462 514 OFFCURVE",
"378 525 CURVE",
"395 630 LINE",
"333 630 LINE",
"316 526 LINE",
"180 513 OFFCURVE",
"75 391 OFFCURVE",
"75 206 CURVE SMOOTH",
"75 92 OFFCURVE",
"127 10 OFFCURVE",
"226 -8 CURVE"
);
},
{
closed = 1;
nodes = (
"154 198 OFFCURVE",
"155 209 OFFCURVE",
"159 233 CURVE SMOOTH",
"169 293 LINE SMOOTH",
"185 390 OFFCURVE",
"234 448 OFFCURVE",
"306 458 CURVE",
"240 60 LINE",
"187 73 OFFCURVE",
"154 113 OFFCURVE",
"154 185 CURVE SMOOTH"
);
}
);
width = 600;
}
);
note = cent;
unicode = 00A2;
},
{
glyphname = Euro;
lastChange = "2017-11-24 23:49:52 +0000";
layers = (
{
layerId = "BE301D28-E982-4416-937B-B9987FF5461D";
paths = (
{
closed = 1;
nodes = (
"411 -12 OFFCURVE",
"465 54 OFFCURVE",
"524 150 CURVE",
"458 183 LINE",
"405 104 OFFCURVE",
"374 60 OFFCURVE",
"291 60 CURVE SMOOTH",
"186 60 OFFCURVE",
"160 142 OFFCURVE",
"160 230 CURVE",
"384 230 LINE",
"395 298 LINE",
"168 298 LINE",
"171 323 OFFCURVE",
"176 355 OFFCURVE",
"183 400 CURVE",
"412 400 LINE",
"424 468 LINE",
"198 468 LINE",
"228 572 OFFCURVE",
"291 638 OFFCURVE",
"385 638 CURVE SMOOTH",
"468 638 OFFCURVE",
"494 588 OFFCURVE",
"508 528 CURVE",
"582 552 LINE",
"567 629 OFFCURVE",
"520 710 OFFCURVE",
"393 710 CURVE SMOOTH",
"182 710 OFFCURVE",
"78 490 OFFCURVE",
"78 240 CURVE SMOOTH",
"78 81 OFFCURVE",
"142 -12 OFFCURVE",
"283 -12 CURVE SMOOTH"
);
}
);
width = 600;
}
);
note = Euro;
unicode = 20AC;
},
{
glyphname = florin;
lastChange = "2017-11-24 23:49:52 +0000";
layers = (
{
layerId = "BE301D28-E982-4416-937B-B9987FF5461D";
paths = (
{
closed = 1;
nodes = (
"188 -212 OFFCURVE",
"209 -178 OFFCURVE",
"225 -119 CURVE SMOOTH",
"357 371 LINE",
"556 371 LINE",
"567 438 LINE",
"375 438 LINE",
"428 631 LINE",
"624 631 LINE",
"635 698 LINE",
"480 698 LINE SMOOTH",
"403 698 OFFCURVE",
"355 650 OFFCURVE",
"336 581 CURVE SMOOTH",
"297 438 LINE",
"128 438 LINE",
"117 371 LINE",
"279 371 LINE",
"142 -136 LINE",
"124 -144 LINE",
"-32 22 LINE",
"-84 -24 LINE",
"-2 -113 LINE SMOOTH",
"65 -186 OFFCURVE",
"93 -212 OFFCURVE",
"139 -212 CURVE SMOOTH"
);
}
);
width = 600;
}
);
note = florin;
unicode = 0192;
},
{
glyphname = sterling;
lastChange = "2017-11-24 23:49:52 +0000";
layers = (
{
layerId = "BE301D28-E982-4416-937B-B9987FF5461D";
paths = (
{
closed = 1;
nodes = (
"518 -12 OFFCURVE",
"547 24 OFFCURVE",
"547 75 CURVE SMOOTH",
"547 107 OFFCURVE",
"536 148 OFFCURVE",
"521 184 CURVE SMOOTH",
"505 222 LINE",
"443 203 LINE",
"475 73 LINE",
"464 62 LINE",
"138 125 LINE",
"140 129 LINE",
"210 138 OFFCURVE",
"237 203 OFFCURVE",
"237 268 CURVE SMOOTH",
"237 280 OFFCURVE",
"236 295 OFFCURVE",
"234 306 CURVE",
"391 306 LINE",
"402 374 LINE",
"222 374 LINE",
"217 398 OFFCURVE",
"214 422 OFFCURVE",
"214 450 CURVE SMOOTH",
"214 570 OFFCURVE",
"269 641 OFFCURVE",
"368 641 CURVE SMOOTH",
"449 641 OFFCURVE",
"487 595 OFFCURVE",
"503 539 CURVE",
"574 567 LINE",
"562 634 OFFCURVE",
"499 710 OFFCURVE",
"373 710 CURVE SMOOTH",
"228 710 OFFCURVE",
"131 604 OFFCURVE",
"131 458 CURVE SMOOTH",
"131 428 OFFCURVE",
"135 401 OFFCURVE",
"141 374 CURVE",
"63 374 LINE",
"52 306 LINE",
"153 306 LINE",
"155 294 OFFCURVE",
"156 280 OFFCURVE",
"156 265 CURVE SMOOTH",
"156 159 OFFCURVE",
"104 113 OFFCURVE",
"30 79 CURVE",
"18 0 LINE",
"101 0 LINE",
"111 65 LINE",
"338 12 LINE SMOOTH",
"384 1 OFFCURVE",
"430 -12 OFFCURVE",
"463 -12 CURVE SMOOTH"
);
}
);
width = 600;
}
);
note = sterling;
unicode = 00A3;
},
{
glyphname = dollar;
lastChange = "2017-11-24 23:49:52 +0000";
layers = (
{
layerId = "BE301D28-E982-4416-937B-B9987FF5461D";
paths = (
{
closed = 1;
nodes = (
"206 -113 LINE",
"266 -113 LINE",
"283 -12 LINE",
"437 -6 OFFCURVE",
"534 84 OFFCURVE",
"534 212 CURVE SMOOTH",
"534 297 OFFCURVE",
"487 356 OFFCURVE",
"374 382 CURVE SMOOTH",
"348 388 LINE",
"390 637 LINE",
"449 629 OFFCURVE",
"493 599 OFFCURVE",
"525 550 CURVE",
"585 594 LINE",
"554 649 OFFCURVE",
"494 695 OFFCURVE",
"402 707 CURVE",
"420 811 LINE",
"360 811 LINE",
"343 710 LINE",
"199 706 OFFCURVE",
"102 628 OFFCURVE",
"102 502 CURVE SMOOTH",
"102 412 OFFCURVE",
"156 355 OFFCURVE",
"263 331 CURVE SMOOTH",
"279 327 LINE",
"235 61 LINE",
"169 70 OFFCURVE",
"123 104 OFFCURVE",
"85 162 CURVE",
"23 113 LINE",
"59 50 OFFCURVE",
"128 2 OFFCURVE",
"223 -9 CURVE"
);
},
{
closed = 1;
nodes = (
"186 584 OFFCURVE",
"241 633 OFFCURVE",
"331 639 CURVE",
"292 401 LINE",
"223 419 OFFCURVE",
"186 447 OFFCURVE",
"186 508 CURVE SMOOTH"
);
},
{
closed = 1;
nodes = (
"450 123 OFFCURVE",
"390 68 OFFCURVE",
"294 60 CURVE",
"336 314 LINE",
"418 297 OFFCURVE",
"450 262 OFFCURVE",
"450 205 CURVE SMOOTH"
);
}
);
width = 600;
}
);
note = dollar;
unicode = 0024;
},
{
glyphname = yen;
lastChange = "2017-11-24 23:49:52 +0000";
layers = (
{
layerId = "BE301D28-E982-4416-937B-B9987FF5461D";
paths = (
{
closed = 1;
nodes = (
"33 0 LINE",
"483 0 LINE",
"494 68 LINE",
"307 68 LINE",
"339 256 LINE",
"525 256 LINE",
"536 324 LINE",
"394 324 LINE",
"651 698 LINE",
"556 698 LINE",
"309 324 LINE",
"305 324 LINE",
"184 698 LINE",
"97 698 LINE",
"228 324 LINE",
"86 324 LINE",
"75 256 LINE",
"261 256 LINE",
"229 68 LINE",
"44 68 LINE"
);
}
);
width = 600;
}
);
note = yen;
unicode = 00A5;
},
{
glyphname = uni0E3F;
lastChange = "2017-11-24 23:49:52 +0000";
layers = (
{
layerId = "BE301D28-E982-4416-937B-B9987FF5461D";
paths = (
{
closed = 1;
nodes = (
"286 0 LINE",
"302 0 LINE SMOOTH",
"446 0 OFFCURVE",
"534 103 OFFCURVE",
"534 219 CURVE SMOOTH",
"534 302 OFFCURVE",
"491 343 OFFCURVE",
"430 360 CURVE",
"430 363 LINE",
"514 384 OFFCURVE",
"573 446 OFFCURVE",
"573 539 CURVE SMOOTH",
"573 634 OFFCURVE",
"514 698 OFFCURVE",
"402 698 CURVE",
"421 811 LINE",
"361 811 LINE",
"342 698 LINE",
"164 698 LINE",
"47 0 LINE",
"226 0 LINE",
"207 -113 LINE",
"267 -113 LINE"
);
},
{
closed = 1;
nodes = (
"194 394 LINE",
"232 627 LINE",
"328 627 LINE",
"290 394 LINE"
);
},
{
closed = 1;
nodes = (
"489 541 OFFCURVE",
"488 531 OFFCURVE",
"486 519 CURVE SMOOTH",
"481 489 LINE SMOOTH",
"471 429 OFFCURVE",
"425 397 OFFCURVE",
"351 394 CURVE",
"387 627 LINE",
"449 627 OFFCURVE",
"489 604 OFFCURVE",
"489 551 CURVE SMOOTH"
);
},
{
closed = 1;
nodes = (
"140 71 LINE",
"183 328 LINE",
"279 328 LINE",
"237 71 LINE"
);
},
{
closed = 1;
nodes = (
"450 232 OFFCURVE",
"448 220 OFFCURVE",
"446 208 CURVE SMOOTH",
"441 178 LINE SMOOTH",
"429 106 OFFCURVE",
"379 71 OFFCURVE",
"297 71 CURVE",
"339 328 LINE",
"410 328 OFFCURVE",
"450 296 OFFCURVE",
"450 245 CURVE SMOOTH"
);
}
);
width = 600;
}
);
note = uni0E3F;
unicode = 0E3F;
},
{
glyphname = uni20A1;
lastChange = "2017-11-24 23:49:52 +0000";
layers = (
{
layerId = "BE301D28-E982-4416-937B-B9987FF5461D";
paths = (
{
closed = 1;
nodes = (
"226 -113 LINE",
"287 -113 LINE",
"314 -11 LINE",
"420 0 OFFCURVE",
"470 62 OFFCURVE",
"524 150 CURVE",
"458 183 LINE",
"415 119 OFFCURVE",
"386 75 OFFCURVE",
"332 61 CURVE",
"479 604 LINE",
"497 584 OFFCURVE",
"507 558 OFFCURVE",
"514 530 CURVE",
"588 554 LINE",
"578 603 OFFCURVE",
"553 653 OFFCURVE",
"503 683 CURVE",
"537 811 LINE",
"476 811 LINE",
"447 705 LINE",
"431 708 OFFCURVE",
"413 710 OFFCURVE",
"390 710 CURVE",
"418 811 LINE",
"357 811 LINE",
"327 702 LINE",
"160 661 OFFCURVE",
"78 462 OFFCURVE",
"78 240 CURVE SMOOTH",
"78 147 OFFCURVE",
"100 77 OFFCURVE",
"146 34 CURVE",
"107 -113 LINE",
"168 -113 LINE",
"199 2 LINE",
"215 -4 OFFCURVE",
"233 -8 OFFCURVE",
"253 -11 CURVE"
);
},
{
closed = 1;
nodes = (
"402 642 OFFCURVE",
"417 640 OFFCURVE",
"430 636 CURVE",
"274 57 LINE",
"252 59 OFFCURVE",
"233 66 OFFCURVE",
"217 77 CURVE",
"370 641 LINE",
"375 642 OFFCURVE",
"380 642 OFFCURVE",
"385 642 CURVE SMOOTH"
);
},
{
closed = 1;
nodes = (
"160 244 OFFCURVE",
"163 274 OFFCURVE",
"168 306 CURVE SMOOTH",
"184 406 LINE SMOOTH",
"200 510 OFFCURVE",
"242 590 OFFCURVE",
"308 624 CURVE",
"175 133 LINE",
"165 157 OFFCURVE",
"160 187 OFFCURVE",
"160 220 CURVE SMOOTH"
);
}
);
width = 600;
}
);
note = uni20A1;
unicode = 20A1;
},
{
glyphname = uni20A4;
lastChange = "2017-11-24 23:49:52 +0000";
layers = (
{
layerId = "BE301D28-E982-4416-937B-B9987FF5461D";
paths = (
{
closed = 1;
nodes = (
"515 -12 OFFCURVE",
"547 24 OFFCURVE",
"547 73 CURVE SMOOTH",
"547 108 OFFCURVE",
"536 148 OFFCURVE",
"521 184 CURVE SMOOTH",
"505 222 LINE",
"443 203 LINE",
"475 73 LINE",
"464 62 LINE",
"138 125 LINE",
"140 129 LINE",
"195 136 OFFCURVE",
"223 179 OFFCURVE",
"232 229 CURVE",
"381 229 LINE",
"392 293 LINE",
"234 293 LINE",
"232 319 OFFCURVE",
"226 347 OFFCURVE",
"221 376 CURVE",
"405 376 LINE",
"416 440 LINE",
"213 440 LINE",
"213 451 LINE SMOOTH",
"213 572 OFFCURVE",
"268 641 OFFCURVE",
"368 641 CURVE SMOOTH",
"449 641 OFFCURVE",
"487 595 OFFCURVE",
"503 539 CURVE",
"574 567 LINE",
"561 637 OFFCURVE",
"497 710 OFFCURVE",
"372 710 CURVE SMOOTH",
"228 710 OFFCURVE",
"131 605 OFFCURVE",
"131 455 CURVE SMOOTH",
"131 440 LINE",
"73 440 LINE",
"62 376 LINE",
"140 376 LINE",
"146 348 OFFCURVE",
"152 320 OFFCURVE",
"154 293 CURVE",
"49 293 LINE",
"38 229 LINE",
"153 229 LINE",
"142 147 OFFCURVE",
"94 108 OFFCURVE",
"30 79 CURVE",
"18 0 LINE",
"101 0 LINE",
"111 64 LINE",
"338 12 LINE SMOOTH",
"386 1 OFFCURVE",
"425 -12 OFFCURVE",
"468 -12 CURVE SMOOTH"
);
}
);
width = 600;
}
);
note = uni20A4;
unicode = 20A4;
},
{
glyphname = uni20A6;
lastChange = "2017-11-24 23:49:52 +0000";
layers = (
{
layerId = "BE301D28-E982-4416-937B-B9987FF5461D";
paths = (
{
closed = 1;
nodes = (
"345 0 LINE",
"467 0 LINE",
"507 244 LINE",
"572 244 LINE",
"583 309 LINE",
"518 309 LINE",
"532 389 LINE",
"596 389 LINE",
"607 454 LINE",
"542 454 LINE",
"583 698 LINE",
"513 698 LINE",
"472 450 LINE",
"338 450 LINE",
"294 698 LINE",
"172 698 LINE",
"131 454 LINE",
"67 454 LINE",
"56 389 LINE",
"121 389 LINE",
"107 309 LINE",
"43 309 LINE",
"32 244 LINE",
"96 244 LINE",
"56 0 LINE",
"126 0 LINE",
"167 248 LINE",
"301 248 LINE"
);
},
{
closed = 1;
nodes = (
"176 305 LINE",
"229 624 LINE",
"236 624 LINE",
"292 305 LINE"
);
},
{
closed = 1;
nodes = (
"347 393 LINE",
"463 393 LINE",
"410 74 LINE",
"403 74 LINE"
);
}
);
width = 600;
}
);
note = uni20A6;
unicode = 20A6;
},
{
glyphname = uni20A8;
lastChange = "2017-11-24 23:49:52 +0000";
layers = (
{
layerId = "BE301D28-E982-4416-937B-B9987FF5461D";
paths = (
{
closed = 1;
nodes = (
"90 0 LINE",
"143 322 LINE",
"186 322 LINE",
"226 156 LINE SMOOTH",
"253 44 OFFCURVE",
"306 -12 OFFCURVE",
"411 -12 CURVE SMOOTH",
"517 -12 OFFCURVE",
"569 46 OFFCURVE",
"569 126 CURVE SMOOTH",
"569 184 OFFCURVE",
"541 219 OFFCURVE",
"511 256 CURVE SMOOTH",
"499 271 LINE SMOOTH",
"470 308 OFFCURVE",
"457 326 OFFCURVE",
"457 352 CURVE SMOOTH",
"457 387 OFFCURVE",
"480 413 OFFCURVE",
"519 413 CURVE SMOOTH",
"542 413 OFFCURVE",
"560 404 OFFCURVE",
"575 391 CURVE",
"615 444 LINE",
"590 467 OFFCURVE",
"557 476 OFFCURVE",
"523 476 CURVE SMOOTH",
"434 476 OFFCURVE",
"384 415 OFFCURVE",
"384 345 CURVE SMOOTH",
"384 299 OFFCURVE",
"406 265 OFFCURVE",
"437 230 CURVE SMOOTH",
"453 212 LINE SMOOTH",
"477 185 OFFCURVE",
"494 156 OFFCURVE",
"494 122 CURVE SMOOTH",
"494 82 OFFCURVE",
"471 54 OFFCURVE",
"416 54 CURVE SMOOTH",
"353 54 OFFCURVE",
"322 91 OFFCURVE",
"301 176 CURVE SMOOTH",
"261 336 LINE",
"358 362 OFFCURVE",
"399 452 OFFCURVE",
"399 547 CURVE SMOOTH",
"399 645 OFFCURVE",
"355 698 OFFCURVE",
"251 698 CURVE SMOOTH",
"126 698 LINE",
"11 0 LINE"
);
},
{
closed = 1;
nodes = (
"155 391 LINE",
"194 627 LINE",
"236 627 LINE SMOOTH",
"293 627 OFFCURVE",
"319 606 OFFCURVE",
"319 563 CURVE SMOOTH",
"319 555 OFFCURVE",
"318 544 OFFCURVE",
"317 538 CURVE SMOOTH",
"307 474 LINE SMOOTH",
"297 413 OFFCURVE",
"263 391 OFFCURVE",
"196 391 CURVE SMOOTH"
);
}
);
width = 600;
}
);
note = uni20A8;
unicode = 20A8;
},
{
glyphname = uni20A9;
lastChange = "2017-11-24 23:49:52 +0000";
layers = (
{
layerId = "BE301D28-E982-4416-937B-B9987FF5461D";
paths = (
{
closed = 1;
nodes = (
"56 0 LINE",
"184 0 LINE",
"318 404 LINE",
"334 404 LINE",
"332 0 LINE",
"460 0 LINE",
"510 248 LINE",
"570 248 LINE",
"581 313 LINE",
"523 313 LINE",
"540 399 LINE",
"595 399 LINE",
"606 464 LINE",
"553 464 LINE",
"599 698 LINE",
"527 698 LINE",
"484 459 LINE",
"188 459 LINE",
"225 698 LINE",
"151 698 LINE",
"119 464 LINE",
"66 464 LINE",
"55 399 LINE",
"110 399 LINE",
"99 313 LINE",
"41 313 LINE",
"30 248 LINE",
"90 248 LINE"
);
},
{
closed = 1;
nodes = (
"131 74 LINE",
"180 404 LINE",
"258 404 LINE",
"148 74 LINE"
);
},
{
closed = 1;
nodes = (
"396 74 LINE",
"396 404 LINE",
"474 404 LINE",
"413 74 LINE"
);
}
);
width = 600;
}
);
note = uni20A9;
unicode = 20A9;
},
{
glyphname = uni20AA;
lastChange = "2017-11-24 23:49:52 +0000";
layers = (
{
layerId = "BE301D28-E982-4416-937B-B9987FF5461D";
paths = (
{
closed = 1;
nodes = (
"156 0 LINE",
"314 0 LINE SMOOTH",
"438 0 OFFCURVE",
"512 63 OFFCURVE",
"533 190 CURVE SMOOTH",
"617 698 LINE",
"541 698 LINE",
"455 178 LINE SMOOTH",
"442 102 OFFCURVE",
"396 63 OFFCURVE",
"325 63 CURVE SMOOTH",
"242 63 LINE",
"323 551 LINE",
"247 551 LINE"
);
},
{
closed = 1;
nodes = (
"21 0 LINE",
"97 0 LINE",
"202 635 LINE",
"287 635 LINE SMOOTH",
"351 635 OFFCURVE",
"380 606 OFFCURVE",
"380 555 CURVE SMOOTH",
"380 542 OFFCURVE",
"378 528 OFFCURVE",
"376 517 CURVE SMOOTH",
"315 147 LINE",
"391 147 LINE",
"448 492 LINE SMOOTH",
"452 516 OFFCURVE",
"453 537 OFFCURVE",
"453 550 CURVE SMOOTH",
"453 647 OFFCURVE",
"399 698 OFFCURVE",
"297 698 CURVE SMOOTH",
"136 698 LINE"
);
}
);
width = 600;
}
);
note = uni20AA;
unicode = 20AA;
},
{
glyphname = uni20AB;
lastChange = "2017-11-24 23:49:52 +0000";
layers = (
{
layerId = "BE301D28-E982-4416-937B-B9987FF5461D";
paths = (
{
closed = 1;
nodes = (
"392 138 LINE",
"466 138 LINE",
"547 620 LINE",
"615 620 LINE",
"625 680 LINE",
"557 680 LINE",
"567 740 LINE",
"493 740 LINE",
"483 680 LINE",
"331 680 LINE",
"321 620 LINE",
"473 620 LINE",
"446 458 LINE",
"443 458 LINE",
"428 509 OFFCURVE",
"390 562 OFFCURVE",
"308 562 CURVE SMOOTH",
"192 562 OFFCURVE",
"97 458 OFFCURVE",
"97 297 CURVE SMOOTH",
"97 189 OFFCURVE",
"153 129 OFFCURVE",
"242 129 CURVE SMOOTH",
"319 129 OFFCURVE",
"374 174 OFFCURVE",
"404 233 CURVE",
"408 233 LINE"
);
},
{
closed = 1;
nodes = (
"212 192 OFFCURVE",
"174 229 OFFCURVE",
"174 286 CURVE SMOOTH",
"174 300 OFFCURVE",
"178 323 OFFCURVE",
"187 380 CURVE SMOOTH",
"198 452 OFFCURVE",
"238 499 OFFCURVE",
"323 499 CURVE SMOOTH",
"395 499 OFFCURVE",
"445 452 OFFCURVE",
"435 395 CURVE SMOOTH",
"421 312 LINE SMOOTH",
"409 243 OFFCURVE",
"346 192 OFFCURVE",
"268 192 CURVE SMOOTH"
);
},
{
closed = 1;
nodes = (
"474 0 LINE",
"485 67 LINE",
"54 67 LINE",
"43 0 LINE"
);
}
);
width = 600;
}
);
note = uni20AB;
unicode = 20AB;
},
{
glyphname = uni20AD;
lastChange = "2017-11-24 23:49:52 +0000";
layers = (
{
layerId = "BE301D28-E982-4416-937B-B9987FF5461D";
paths = (
{
closed = 1;
nodes = (
"179 328 LINE",
"235 328 LINE",
"399 0 LINE",
"491 0 LINE",
"321 328 LINE",
"545 328 LINE",
"556 395 LINE",
"337 395 LINE",
"600 698 LINE",
"504 698 LINE",
"239 395 LINE",
"190 395 LINE",
"241 698 LINE",
"159 698 LINE",
"108 395 LINE",
"32 395 LINE",
"21 328 LINE",
"97 328 LINE",
"42 0 LINE",
"124 0 LINE"
);
}
);
width = 600;
}
);
note = uni20AD;
unicode = 20AD;
},
{
glyphname = uni20AE;
lastChange = "2017-11-24 23:49:52 +0000";
layers = (
{
layerId = "BE301D28-E982-4416-937B-B9987FF5461D";
paths = (
{
closed = 1;
nodes = (
"485 282 LINE",
"496 351 LINE",
"346 285 LINE",
"361 376 LINE",
"512 442 LINE",
"523 511 LINE",
"373 445 LINE",
"403 626 LINE",
"637 626 LINE",
"649 698 LINE",
"99 698 LINE",
"87 626 LINE",
"321 626 LINE",
"284 406 LINE",
"134 341 LINE",
"123 272 LINE",
"273 337 LINE",
"257 246 LINE",
"107 181 LINE",
"96 112 LINE",
"246 177 LINE",
"216 0 LINE",
"298 0 LINE",
"334 216 LINE"
);
}
);
width = 600;
}
);
note = uni20AE;
unicode = 20AE;
},
{
glyphname = uni20B1;
lastChange = "2017-11-24 23:49:52 +0000";
layers = (
{
layerId = "BE301D28-E982-4416-937B-B9987FF5461D";
paths = (
{
closed = 1;
nodes = (
"45 0 LINE",
"127 0 LINE",
"159 195 LINE",
"307 195 LINE SMOOTH",
"403 195 OFFCURVE",
"480 245 OFFCURVE",
"522 337 CURVE",
"586 337 LINE",
"597 401 LINE",
"544 401 LINE",
"550 428 OFFCURVE",
"554 459 OFFCURVE",
"555 491 CURVE",
"612 491 LINE",
"623 555 LINE",
"554 555 LINE",
"543 649 OFFCURVE",
"490 698 OFFCURVE",
"392 698 CURVE SMOOTH",
"160 698 LINE",
"136 555 LINE",
"82 555 LINE",
"71 491 LINE",
"126 491 LINE",
"111 401 LINE",
"57 401 LINE",
"46 337 LINE",
"101 337 LINE"
);
},
{
closed = 1;
nodes = (
"218 553 LINE",
"231 628 LINE",
"383 628 LINE SMOOTH",
"442 628 OFFCURVE",
"477 603 OFFCURVE",
"481 553 CURVE"
);
},
{
closed = 1;
nodes = (
"193 399 LINE",
"208 493 LINE",
"475 493 LINE",
"472 472 OFFCURVE",
"468 442 OFFCURVE",
"461 399 CURVE"
);
},
{
closed = 1;
nodes = (
"170 265 LINE",
"182 339 LINE",
"449 339 LINE",
"430 291 OFFCURVE",
"380 265 OFFCURVE",
"315 265 CURVE SMOOTH"
);
}
);
width = 600;
}
);
note = uni20B1;
unicode = 20B1;
},
{
glyphname = uni20B2;
lastChange = "2017-11-24 23:49:52 +0000";
layers = (
{
layerId = "BE301D28-E982-4416-937B-B9987FF5461D";
paths = (
{
closed = 1;
nodes = (
"131 -113 LINE",
"192 -113 LINE",
"227 -11 LINE",
"235 -12 OFFCURVE",
"243 -12 OFFCURVE",
"251 -12 CURVE SMOOTH",
"421 -12 OFFCURVE",
"494 99 OFFCURVE",
"519 248 CURVE SMOOTH",
"535 344 LINE",
"347 344 LINE",
"442 621 LINE",
"478 602 OFFCURVE",
"494 568 OFFCURVE",
"503 529 CURVE",
"572 552 LINE",
"561 607 OFFCURVE",
"529 663 OFFCURVE",
"467 692 CURVE",
"508 811 LINE",
"446 811 LINE",
"411 708 LINE",
"402 709 OFFCURVE",
"388 710 OFFCURVE",
"375 710 CURVE SMOOTH",
"167 710 OFFCURVE",
"66 490 OFFCURVE",
"66 238 CURVE SMOOTH",
"66 119 OFFCURVE",
"102 38 OFFCURVE",
"171 5 CURVE"
);
},
{
closed = 1;
nodes = (
"145 248 OFFCURVE",
"147 278 OFFCURVE",
"152 308 CURVE SMOOTH",
"168 406 LINE SMOOTH",
"191 545 OFFCURVE",
"252 638 OFFCURVE",
"360 638 CURVE SMOOTH",
"370 638 OFFCURVE",
"379 638 OFFCURVE",
"388 637 CURVE",
"197 78 LINE",
"162 106 OFFCURVE",
"145 158 OFFCURVE",
"145 226 CURVE SMOOTH"
);
},
{
closed = 1;
nodes = (
"325 280 LINE",
"450 280 LINE",
"442 232 LINE SMOOTH",
"423 119 OFFCURVE",
"362 54 OFFCURVE",
"267 54 CURVE SMOOTH",
"261 54 OFFCURVE",
"254 54 OFFCURVE",
"248 55 CURVE"
);
}
);
width = 600;
}
);
note = uni20B2;
unicode = 20B2;
},
{
glyphname = uni20B4;
lastChange = "2017-11-24 23:49:52 +0000";
layers = (
{
layerId = "BE301D28-E982-4416-937B-B9987FF5461D";
paths = (
{
closed = 1;
nodes = (
"360 -12 OFFCURVE",
"440 21 OFFCURVE",
"499 86 CURVE",
"452 139 LINE",
"391 81 OFFCURVE",
"343 57 OFFCURVE",
"292 57 CURVE SMOOTH",
"221 57 OFFCURVE",
"174 102 OFFCURVE",
"174 170 CURVE SMOOTH",
"174 203 OFFCURVE",
"185 231 OFFCURVE",
"203 255 CURVE",
"572 255 LINE",
"583 319 LINE",
"291 319 LINE",
"292 323 LINE",
"467 409 LINE",
"597 409 LINE",
"608 473 LINE",
"517 473 LINE",
"527 492 OFFCURVE",
"535 517 OFFCURVE",
"535 549 CURVE SMOOTH",
"535 644 OFFCURVE",
"463 710 OFFCURVE",
"347 710 CURVE SMOOTH",
"280 710 OFFCURVE",
"212 688 OFFCURVE",
"160 642 CURVE",
"203 585 LINE",
"242 623 OFFCURVE",
"291 641 OFFCURVE",
"340 641 CURVE SMOOTH",
"412 641 OFFCURVE",
"455 602 OFFCURVE",
"455 535 CURVE SMOOTH",
"455 508 OFFCURVE",
"448 489 OFFCURVE",
"438 473 CURVE",
"68 473 LINE",
"57 409 LINE",
"344 409 LINE",
"343 405 LINE",
"169 319 LINE",
"42 319 LINE",
"31 255 LINE",
"121 255 LINE",
"107 232 OFFCURVE",
"95 202 OFFCURVE",
"95 163 CURVE SMOOTH",
"95 64 OFFCURVE",
"172 -12 OFFCURVE",
"285 -12 CURVE SMOOTH"
);
}
);
width = 600;
}
);
note = uni20B4;
unicode = 20B4;
},
{
glyphname = uni20B5;
lastChange = "2017-11-24 23:49:52 +0000";
layers = (
{
layerId = "BE301D28-E982-4416-937B-B9987FF5461D";
paths = (
{
closed = 1;
nodes = (
"136 -113 LINE",
"197 -113 LINE",
"233 -8 LINE",
"249 -11 OFFCURVE",
"265 -12 OFFCURVE",
"283 -12 CURVE SMOOTH",
"411 -12 OFFCURVE",
"465 54 OFFCURVE",
"524 150 CURVE",
"462 183 LINE",
"408 102 OFFCURVE",
"376 57 OFFCURVE",
"291 57 CURVE SMOOTH",
"278 57 OFFCURVE",
"266 58 OFFCURVE",
"255 61 CURVE",
"449 628 LINE",
"486 609 OFFCURVE",
"502 571 OFFCURVE",
"512 528 CURVE",
"582 552 LINE",
"571 610 OFFCURVE",
"541 670 OFFCURVE",
"473 696 CURVE",
"513 811 LINE",
"451 811 LINE",
"416 709 LINE",
"409 710 OFFCURVE",
"401 710 OFFCURVE",
"393 710 CURVE SMOOTH",
"182 710 OFFCURVE",
"78 490 OFFCURVE",
"78 240 CURVE SMOOTH",
"78 128 OFFCURVE",
"110 48 OFFCURVE",
"179 11 CURVE"
);
},
{
closed = 1;
nodes = (
"157 244 OFFCURVE",
"160 274 OFFCURVE",
"165 306 CURVE SMOOTH",
"181 406 LINE SMOOTH",
"204 547 OFFCURVE",
"271 642 OFFCURVE",
"385 642 CURVE SMOOTH",
"394 642 LINE",
"205 86 LINE",
"173 113 OFFCURVE",
"157 160 OFFCURVE",
"157 220 CURVE SMOOTH"
);
}
);
width = 600;
}
);
note = uni20B5;
unicode = 20B5;
},
{
glyphname = uni20B8;
lastChange = "2017-11-24 23:49:52 +0000";
layers = (
{
layerId = "BE301D28-E982-4416-937B-B9987FF5461D";
paths = (
{
closed = 1;
nodes = (
"614 630 LINE",
"625 698 LINE",
"123 698 LINE",
"112 630 LINE"
);
},
{
closed = 1;
nodes = (
"587 472 LINE",
"598 540 LINE",
"97 540 LINE",
"86 472 LINE",
"295 472 LINE",
"216 0 LINE",
"298 0 LINE",
"377 472 LINE"
);
}
);
width = 600;
}
);
note = uni20B8;
unicode = 20B8;
},
{
glyphname = uni20B9;
lastChange = "2017-11-24 23:49:52 +0000";
layers = (
{
layerId = "BE301D28-E982-4416-937B-B9987FF5461D";
paths = (
{
closed = 1;
nodes = (
"462 0 LINE",
"288 294 LINE",
"399 309 OFFCURVE",
"459 370 OFFCURVE",
"473 472 CURVE",
"587 472 LINE",
"598 540 LINE",
"475 540 LINE",
"470 587 OFFCURVE",
"449 611 OFFCURVE",
"416 625 CURVE",
"417 630 LINE",
"613 630 LINE",
"624 698 LINE",
"131 698 LINE",
"120 630 LINE",
"291 630 LINE SMOOTH",
"371 630 OFFCURVE",
"396 603 OFFCURVE",
"399 540 CURVE",
"105 540 LINE",
"94 472 LINE",
"394 472 LINE",
"381 398 OFFCURVE",
"335 359 OFFCURVE",
"238 359 CURVE SMOOTH",
"75 359 LINE",
"64 291 LINE",
"198 291 LINE",
"367 0 LINE"
);
}
);
width = 600;
}
);
note = uni20B9;
unicode = 20B9;
},
{
glyphname = uni20BA;
lastChange = "2017-11-24 23:49:52 +0000";
layers = (
{
layerId = "BE301D28-E982-4416-937B-B9987FF5461D";
paths = (
{
closed = 1;
nodes = (
"116 0 LINE",
"271 0 LINE SMOOTH",
"430 0 OFFCURVE",
"532 123 OFFCURVE",
"560 305 CURVE",
"480 305 LINE",
"457 156 OFFCURVE",
"381 72 OFFCURVE",
"276 72 CURVE SMOOTH",
"210 72 LINE",
"245 285 LINE",
"441 370 LINE",
"452 440 LINE",
"257 355 LINE",
"272 445 LINE",
"466 530 LINE",
"479 600 LINE",
"284 515 LINE",
"314 698 LINE",
"232 698 LINE",
"195 476 LINE",
"89 430 LINE",
"77 360 LINE",
"184 407 LINE",
"169 316 LINE",
"62 270 LINE",
"51 200 LINE",
"157 246 LINE"
);
}
);
width = 600;
}
);
note = uni20BA;
unicode = 20BA;
},
{
glyphname = uni20BD;
lastChange = "2017-11-24 23:49:52 +0000";
layers = (
{
layerId = "BE301D28-E982-4416-937B-B9987FF5461D";
paths = (
{
closed = 1;
nodes = (
"419 135 LINE",
"430 203 LINE",
"205 203 LINE",
"221 295 LINE",
"367 295 LINE SMOOTH",
"513 295 OFFCURVE",
"597 385 OFFCURVE",
"597 531 CURVE SMOOTH",
"597 632 OFFCURVE",
"542 698 OFFCURVE",
"425 698 CURVE SMOOTH",
"206 698 LINE",
"150 363 LINE",
"67 363 LINE",
"56 295 LINE",
"139 295 LINE",
"123 203 LINE",
"40 203 LINE",
"29 135 LINE",
"112 135 LINE",
"90 0 LINE",
"172 0 LINE",
"194 135 LINE"
);
},
{
closed = 1;
nodes = (
"276 626 LINE",
"415 626 LINE SMOOTH",
"477 626 OFFCURVE",
"513 596 OFFCURVE",
"513 537 CURVE SMOOTH",
"513 530 OFFCURVE",
"513 518 OFFCURVE",
"510 502 CURVE SMOOTH",
"504 465 LINE SMOOTH",
"493 399 OFFCURVE",
"445 363 OFFCURVE",
"375 363 CURVE SMOOTH",
"232 363 LINE"
);
}
);
width = 600;
}
);
note = uni20BD;
unicode = 20BD;
},
{
glyphname = uni20BF;
lastChange = "2017-11-24 23:49:52 +0000";
layers = (
{
layerId = "BE301D28-E982-4416-937B-B9987FF5461D";
paths = (
{
closed = 1;
nodes = (
"254 -113 LINE",
"315 -113 LINE",
"334 1 LINE",
"451 12 OFFCURVE",
"531 112 OFFCURVE",
"531 222 CURVE SMOOTH",
"531 305 OFFCURVE",
"485 343 OFFCURVE",
"423 362 CURVE",
"424 366 LINE",
"501 387 OFFCURVE",
"556 445 OFFCURVE",
"556 537 CURVE SMOOTH",
"556 614 OFFCURVE",
"519 671 OFFCURVE",
"450 691 CURVE",
"470 811 LINE",
"409 811 LINE",
"390 698 LINE",
"321 698 LINE",
"340 811 LINE",
"279 811 LINE",
"260 698 LINE",
"163 698 LINE",
"46 0 LINE",
"143 0 LINE",
"124 -113 LINE",
"185 -113 LINE",
"204 0 LINE",
"273 0 LINE"
);
},
{
closed = 1;
nodes = (
"231 626 LINE",
"374 626 LINE SMOOTH",
"434 626 OFFCURVE",
"472 604 OFFCURVE",
"472 551 CURVE SMOOTH",
"472 541 OFFCURVE",
"471 531 OFFCURVE",
"469 519 CURVE SMOOTH",
"464 489 LINE SMOOTH",
"454 429 OFFCURVE",
"411 395 OFFCURVE",
"336 395 CURVE SMOOTH",
"193 395 LINE"
);
},
{
closed = 1;
nodes = (
"182 327 LINE",
"338 327 LINE SMOOTH",
"407 327 OFFCURVE",
"447 296 OFFCURVE",
"447 245 CURVE SMOOTH",
"447 232 OFFCURVE",
"445 220 OFFCURVE",
"443 208 CURVE SMOOTH",
"438 178 LINE SMOOTH",
"426 106 OFFCURVE",
"376 72 OFFCURVE",
"296 72 CURVE SMOOTH",
"139 72 LINE"
);
}
);
width = 600;
}
);
note = uni20BF;
unicode = 20BF;
},
{
glyphname = fi;
lastChange = "2017-11-24 23:49:52 +0000";
layers = (
{
layerId = "BE301D28-E982-4416-937B-B9987FF5461D";
paths = (
{
closed = 1;
nodes = (
"71 0 LINE",
"149 0 LINE",
"224 449 LINE",
"455 449 LINE",
"380 0 LINE",
"458 0 LINE",
"544 516 LINE",
"235 516 LINE",
"261 673 LINE",
"405 673 LINE",
"417 740 LINE",
"305 740 LINE SMOOTH",
"226 740 OFFCURVE",
"186 689 OFFCURVE",
"175 623 CURVE SMOOTH",
"157 516 LINE",
"85 516 LINE",
"74 449 LINE",
"146 449 LINE"
);
},
{
closed = 1;
nodes = (
"574 631 OFFCURVE",
"590 655 OFFCURVE",
"594 679 CURVE SMOOTH",
"595 685 OFFCURVE",
"598 700 OFFCURVE",
"598 708 CURVE SMOOTH",
"598 729 OFFCURVE",
"583 748 OFFCURVE",
"540 748 CURVE SMOOTH",
"494 748 OFFCURVE",
"478 724 OFFCURVE",
"474 700 CURVE SMOOTH",
"473 694 OFFCURVE",
"470 679 OFFCURVE",
"470 671 CURVE SMOOTH",
"470 650 OFFCURVE",
"485 631 OFFCURVE",
"528 631 CURVE SMOOTH"
);
}
);
width = 600;
}
);
note = fi;
unicode = FB01;
},
{
glyphname = fl;
lastChange = "2017-11-24 23:49:52 +0000";
layers = (
{
layerId = "BE301D28-E982-4416-937B-B9987FF5461D";
paths = (
{
closed = 1;
nodes = (
"71 0 LINE",
"149 0 LINE",
"224 449 LINE",
"380 449 LINE",
"391 516 LINE",
"235 516 LINE",
"261 673 LINE",
"416 673 LINE",
"427 740 LINE",
"305 740 LINE SMOOTH",
"226 740 OFFCURVE",
"186 689 OFFCURVE",
"175 623 CURVE SMOOTH",
"157 516 LINE",
"85 516 LINE",
"74 449 LINE",
"146 449 LINE"
);
},
{
closed = 1;
nodes = (
"380 0 LINE",
"458 0 LINE",
"581 740 LINE",
"503 740 LINE"
);
}
);
width = 600;
}
);
note = fl;
unicode = FB02;
},
{
glyphname = aacute;
lastChange = "2017-11-24 23:49:52 +0000";
layers = (
{
layerId = "BE301D28-E982-4416-937B-B9987FF5461D";
paths = (
{
closed = 1;
nodes = (
"469 740 LINE",
"401 779 LINE",
"293 613 LINE",
"340 585 LINE"
);
},
{
closed = 1;
nodes = (
"461 0 LINE",
"547 516 LINE",
"469 516 LINE",
"454 426 LINE",
"451 426 LINE",
"429 493 OFFCURVE",
"376 528 OFFCURVE",
"300 528 CURVE SMOOTH",
"118 528 OFFCURVE",
"56 326 OFFCURVE",
"56 188 CURVE SMOOTH",
"56 56 OFFCURVE",
"113 -12 OFFCURVE",
"217 -12 CURVE SMOOTH",
"308 -12 OFFCURVE",
"360 41 OFFCURVE",
"400 122 CURVE",
"403 122 LINE",
"383 0 LINE"
);
},
{
closed = 1;
nodes = (
"172 57 OFFCURVE",
"135 103 OFFCURVE",
"135 180 CURVE SMOOTH",
"135 193 OFFCURVE",
"136 207 OFFCURVE",
"139 225 CURVE SMOOTH",
"151 297 LINE SMOOTH",
"167 393 OFFCURVE",
"224 459 OFFCURVE",
"323 459 CURVE SMOOTH",
"400 459 OFFCURVE",
"453 418 OFFCURVE",
"441 346 CURVE SMOOTH",
"422 232 LINE SMOOTH",
"414 184 OFFCURVE",
"391 143 OFFCURVE",
"365 114 CURVE SMOOTH",
"329 74 OFFCURVE",
"287 57 OFFCURVE",
"244 57 CURVE SMOOTH"
);
}
);
width = 600;
}
);
note = aacute;
unicode = 00E1;
},
{
glyphname = abreve;
lastChange = "2017-11-24 23:49:52 +0000";
layers = (
{
layerId = "BE301D28-E982-4416-937B-B9987FF5461D";
paths = (
{
closed = 1;
nodes = (
"440 595 OFFCURVE",
"487 684 OFFCURVE",
"516 746 CURVE",
"466 767 LINE",
"439 733 LINE SMOOTH",
"396 679 OFFCURVE",
"379 658 OFFCURVE",
"337 658 CURVE SMOOTH",
"292 658 OFFCURVE",
"279 683 OFFCURVE",
"257 733 CURVE SMOOTH",
"242 767 LINE",
"194 746 LINE",
"203 685 OFFCURVE",
"229 595 OFFCURVE",
"335 595 CURVE SMOOTH"
);
},
{
closed = 1;
nodes = (
"461 0 LINE",
"547 516 LINE",
"469 516 LINE",
"454 426 LINE",
"451 426 LINE",
"429 493 OFFCURVE",
"376 528 OFFCURVE",
"300 528 CURVE SMOOTH",
"118 528 OFFCURVE",
"56 326 OFFCURVE",
"56 188 CURVE SMOOTH",
"56 56 OFFCURVE",
"113 -12 OFFCURVE",
"217 -12 CURVE SMOOTH",
"308 -12 OFFCURVE",
"360 41 OFFCURVE",
"400 122 CURVE",
"403 122 LINE",
"383 0 LINE"
);
},
{
closed = 1;
nodes = (
"172 57 OFFCURVE",
"135 103 OFFCURVE",
"135 180 CURVE SMOOTH",
"135 193 OFFCURVE",
"136 207 OFFCURVE",
"139 225 CURVE SMOOTH",
"151 297 LINE SMOOTH",
"167 393 OFFCURVE",
"224 459 OFFCURVE",
"323 459 CURVE SMOOTH",
"400 459 OFFCURVE",
"453 418 OFFCURVE",
"441 346 CURVE SMOOTH",
"422 232 LINE SMOOTH",
"414 184 OFFCURVE",
"391 143 OFFCURVE",
"365 114 CURVE SMOOTH",
"329 74 OFFCURVE",
"287 57 OFFCURVE",
"244 57 CURVE SMOOTH"
);
}
);
width = 600;
}
);
note = abreve;
unicode = 0103;
},
{
glyphname = acircumflex;
lastChange = "2017-11-24 23:49:52 +0000";
layers = (
{
layerId = "BE301D28-E982-4416-937B-B9987FF5461D";
paths = (
{
closed = 1;
nodes = (
"311 765 LINE",
"178 624 LINE",
"217 591 LINE",
"354 708 LINE",
"450 591 LINE",
"496 618 LINE",
"409 765 LINE"
);
},
{
closed = 1;
nodes = (
"461 0 LINE",
"547 516 LINE",
"469 516 LINE",
"454 426 LINE",
"451 426 LINE",
"429 493 OFFCURVE",
"376 528 OFFCURVE",
"300 528 CURVE SMOOTH",
"118 528 OFFCURVE",
"56 326 OFFCURVE",
"56 188 CURVE SMOOTH",
"56 56 OFFCURVE",
"113 -12 OFFCURVE",
"217 -12 CURVE SMOOTH",
"308 -12 OFFCURVE",
"360 41 OFFCURVE",
"400 122 CURVE",
"403 122 LINE",
"383 0 LINE"
);
},
{
closed = 1;
nodes = (
"172 57 OFFCURVE",
"135 103 OFFCURVE",
"135 180 CURVE SMOOTH",
"135 193 OFFCURVE",
"136 207 OFFCURVE",
"139 225 CURVE SMOOTH",
"151 297 LINE SMOOTH",
"167 393 OFFCURVE",
"224 459 OFFCURVE",
"323 459 CURVE SMOOTH",
"400 459 OFFCURVE",
"453 418 OFFCURVE",
"441 346 CURVE SMOOTH",
"422 232 LINE SMOOTH",
"414 184 OFFCURVE",
"391 143 OFFCURVE",
"365 114 CURVE SMOOTH",
"329 74 OFFCURVE",
"287 57 OFFCURVE",
"244 57 CURVE SMOOTH"
);
}
);
width = 600;
}
);
note = acircumflex;
unicode = 00E2;
},
{
glyphname = adieresis;
lastChange = "2017-11-24 23:49:52 +0000";
layers = (
{
layerId = "BE301D28-E982-4416-937B-B9987FF5461D";
paths = (
{
closed = 1;
nodes = (
"286 619 OFFCURVE",
"299 636 OFFCURVE",
"305 662 CURVE SMOOTH",
"307 671 OFFCURVE",
"309 680 OFFCURVE",
"309 687 CURVE SMOOTH",
"309 706 OFFCURVE",
"296 723 OFFCURVE",
"257 723 CURVE SMOOTH",
"217 723 OFFCURVE",
"204 706 OFFCURVE",
"198 680 CURVE SMOOTH",
"196 671 OFFCURVE",
"194 662 OFFCURVE",
"194 655 CURVE SMOOTH",
"194 636 OFFCURVE",
"207 619 OFFCURVE",
"246 619 CURVE SMOOTH"
);
},
{
closed = 1;
nodes = (
"472 619 OFFCURVE",
"485 636 OFFCURVE",
"491 662 CURVE SMOOTH",
"493 671 OFFCURVE",
"495 680 OFFCURVE",
"495 687 CURVE SMOOTH",
"495 706 OFFCURVE",
"482 723 OFFCURVE",
"443 723 CURVE SMOOTH",
"403 723 OFFCURVE",
"390 706 OFFCURVE",
"384 680 CURVE SMOOTH",
"382 671 OFFCURVE",
"380 662 OFFCURVE",
"380 655 CURVE SMOOTH",
"380 636 OFFCURVE",
"393 619 OFFCURVE",
"432 619 CURVE SMOOTH"
);
},
{
closed = 1;
nodes = (
"461 0 LINE",
"547 516 LINE",
"469 516 LINE",
"454 426 LINE",
"451 426 LINE",
"429 493 OFFCURVE",
"376 528 OFFCURVE",
"300 528 CURVE SMOOTH",
"118 528 OFFCURVE",
"56 326 OFFCURVE",
"56 188 CURVE SMOOTH",
"56 56 OFFCURVE",
"113 -12 OFFCURVE",
"217 -12 CURVE SMOOTH",
"308 -12 OFFCURVE",
"360 41 OFFCURVE",
"400 122 CURVE",
"403 122 LINE",
"383 0 LINE"
);
},
{
closed = 1;
nodes = (
"172 57 OFFCURVE",
"135 103 OFFCURVE",
"135 180 CURVE SMOOTH",
"135 193 OFFCURVE",
"136 207 OFFCURVE",
"139 225 CURVE SMOOTH",
"151 297 LINE SMOOTH",
"167 393 OFFCURVE",
"224 459 OFFCURVE",
"323 459 CURVE SMOOTH",
"400 459 OFFCURVE",
"453 418 OFFCURVE",
"441 346 CURVE SMOOTH",
"422 232 LINE SMOOTH",
"414 184 OFFCURVE",
"391 143 OFFCURVE",
"365 114 CURVE SMOOTH",
"329 74 OFFCURVE",
"287 57 OFFCURVE",
"244 57 CURVE SMOOTH"
);
}
);
width = 600;
}
);
note = adieresis;
unicode = 00E4;
},
{
glyphname = uni1EA1;
lastChange = "2017-11-24 23:49:52 +0000";
layers = (
{
layerId = "BE301D28-E982-4416-937B-B9987FF5461D";
paths = (
{
closed = 1;
nodes = (
"259 -171 OFFCURVE",
"271 -153 OFFCURVE",
"278 -128 CURVE SMOOTH",
"280 -121 OFFCURVE",
"282 -109 OFFCURVE",
"282 -102 CURVE SMOOTH",
"282 -83 OFFCURVE",
"268 -66 OFFCURVE",
"230 -66 CURVE SMOOTH",
"190 -66 OFFCURVE",
"178 -84 OFFCURVE",
"171 -109 CURVE SMOOTH",
"169 -116 OFFCURVE",
"167 -128 OFFCURVE",
"167 -135 CURVE SMOOTH",
"167 -154 OFFCURVE",
"181 -171 OFFCURVE",
"219 -171 CURVE SMOOTH"
);
},
{
closed = 1;
nodes = (
"461 0 LINE",
"547 516 LINE",
"469 516 LINE",
"454 426 LINE",
"451 426 LINE",
"429 493 OFFCURVE",
"376 528 OFFCURVE",
"300 528 CURVE SMOOTH",
"118 528 OFFCURVE",
"56 326 OFFCURVE",
"56 188 CURVE SMOOTH",
"56 56 OFFCURVE",
"113 -12 OFFCURVE",
"217 -12 CURVE SMOOTH",
"308 -12 OFFCURVE",
"360 41 OFFCURVE",
"400 122 CURVE",
"403 122 LINE",
"383 0 LINE"
);
},
{
closed = 1;
nodes = (
"172 57 OFFCURVE",
"135 103 OFFCURVE",
"135 180 CURVE SMOOTH",
"135 193 OFFCURVE",
"136 207 OFFCURVE",
"139 225 CURVE SMOOTH",
"151 297 LINE SMOOTH",
"167 393 OFFCURVE",
"224 459 OFFCURVE",
"323 459 CURVE SMOOTH",
"400 459 OFFCURVE",
"453 418 OFFCURVE",
"441 346 CURVE SMOOTH",
"422 232 LINE SMOOTH",
"414 184 OFFCURVE",
"391 143 OFFCURVE",
"365 114 CURVE SMOOTH",
"329 74 OFFCURVE",
"287 57 OFFCURVE",
"244 57 CURVE SMOOTH"
);
}
);
width = 600;
}
);
note = uni1EA1;
unicode = 1EA1;
},
{
glyphname = agrave;
lastChange = "2017-11-24 23:49:52 +0000";
layers = (
{
layerId = "BE301D28-E982-4416-937B-B9987FF5461D";
paths = (
{
closed = 1;
nodes = (
"324 585 LINE",
"375 605 LINE",
"323 779 LINE",
"249 752 LINE"
);
},
{
closed = 1;
nodes = (
"461 0 LINE",
"547 516 LINE",
"469 516 LINE",
"454 426 LINE",
"451 426 LINE",
"429 493 OFFCURVE",
"376 528 OFFCURVE",
"300 528 CURVE SMOOTH",
"118 528 OFFCURVE",
"56 326 OFFCURVE",
"56 188 CURVE SMOOTH",
"56 56 OFFCURVE",
"113 -12 OFFCURVE",
"217 -12 CURVE SMOOTH",
"308 -12 OFFCURVE",
"360 41 OFFCURVE",
"400 122 CURVE",
"403 122 LINE",
"383 0 LINE"
);
},
{
closed = 1;
nodes = (
"172 57 OFFCURVE",
"135 103 OFFCURVE",
"135 180 CURVE SMOOTH",
"135 193 OFFCURVE",
"136 207 OFFCURVE",
"139 225 CURVE SMOOTH",
"151 297 LINE SMOOTH",
"167 393 OFFCURVE",
"224 459 OFFCURVE",
"323 459 CURVE SMOOTH",
"400 459 OFFCURVE",
"453 418 OFFCURVE",
"441 346 CURVE SMOOTH",
"422 232 LINE SMOOTH",
"414 184 OFFCURVE",
"391 143 OFFCURVE",
"365 114 CURVE SMOOTH",
"329 74 OFFCURVE",
"287 57 OFFCURVE",
"244 57 CURVE SMOOTH"
);
}
);
width = 600;
}
);
note = agrave;
unicode = 00E0;
},
{
glyphname = uni1EA3;
lastChange = "2017-11-24 23:49:52 +0000";
layers = (
{
layerId = "BE301D28-E982-4416-937B-B9987FF5461D";
paths = (
{
closed = 1;
nodes = (
"268 704 LINE",
"383 704 LINE",
"312 604 LINE",
"355 577 LINE",
"395 619 LINE SMOOTH",
"428 653 OFFCURVE",
"447 683 OFFCURVE",
"447 713 CURVE SMOOTH",
"447 743 OFFCURVE",
"427 765 OFFCURVE",
"380 765 CURVE SMOOTH",
"278 765 LINE"
);
},
{
closed = 1;
nodes = (
"461 0 LINE",
"547 516 LINE",
"469 516 LINE",
"454 426 LINE",
"451 426 LINE",
"429 493 OFFCURVE",
"376 528 OFFCURVE",
"300 528 CURVE SMOOTH",
"118 528 OFFCURVE",
"56 326 OFFCURVE",
"56 188 CURVE SMOOTH",
"56 56 OFFCURVE",
"113 -12 OFFCURVE",
"217 -12 CURVE SMOOTH",
"308 -12 OFFCURVE",
"360 41 OFFCURVE",
"400 122 CURVE",
"403 122 LINE",
"383 0 LINE"
);
},
{
closed = 1;
nodes = (
"172 57 OFFCURVE",
"135 103 OFFCURVE",
"135 180 CURVE SMOOTH",
"135 193 OFFCURVE",
"136 207 OFFCURVE",
"139 225 CURVE SMOOTH",
"151 297 LINE SMOOTH",
"167 393 OFFCURVE",
"224 459 OFFCURVE",
"323 459 CURVE SMOOTH",
"400 459 OFFCURVE",
"453 418 OFFCURVE",
"441 346 CURVE SMOOTH",
"422 232 LINE SMOOTH",
"414 184 OFFCURVE",
"391 143 OFFCURVE",
"365 114 CURVE SMOOTH",
"329 74 OFFCURVE",
"287 57 OFFCURVE",
"244 57 CURVE SMOOTH"
);
}
);
width = 600;
}
);
note = uni1EA3;
unicode = 1EA3;
},
{
glyphname = amacron;
lastChange = "2017-11-24 23:49:52 +0000";
layers = (
{
layerId = "BE301D28-E982-4416-937B-B9987FF5461D";
paths = (
{
closed = 1;
nodes = (
"200 638 LINE",
"477 638 LINE",
"488 705 LINE",
"211 705 LINE"
);
},
{
closed = 1;
nodes = (
"461 0 LINE",
"547 516 LINE",
"469 516 LINE",
"454 426 LINE",
"451 426 LINE",
"429 493 OFFCURVE",
"376 528 OFFCURVE",
"300 528 CURVE SMOOTH",
"118 528 OFFCURVE",
"56 326 OFFCURVE",
"56 188 CURVE SMOOTH",
"56 56 OFFCURVE",
"113 -12 OFFCURVE",
"217 -12 CURVE SMOOTH",
"308 -12 OFFCURVE",
"360 41 OFFCURVE",
"400 122 CURVE",
"403 122 LINE",
"383 0 LINE"
);
},
{
closed = 1;
nodes = (
"172 57 OFFCURVE",
"135 103 OFFCURVE",
"135 180 CURVE SMOOTH",
"135 193 OFFCURVE",
"136 207 OFFCURVE",
"139 225 CURVE SMOOTH",
"151 297 LINE SMOOTH",
"167 393 OFFCURVE",
"224 459 OFFCURVE",
"323 459 CURVE SMOOTH",
"400 459 OFFCURVE",
"453 418 OFFCURVE",
"441 346 CURVE SMOOTH",
"422 232 LINE SMOOTH",
"414 184 OFFCURVE",
"391 143 OFFCURVE",
"365 114 CURVE SMOOTH",
"329 74 OFFCURVE",
"287 57 OFFCURVE",
"244 57 CURVE SMOOTH"
);
}
);
width = 600;
}
);
note = amacron;
unicode = 0101;
},
{
glyphname = aogonek;
lastChange = "2017-11-24 23:49:52 +0000";
layers = (
{
layerId = "BE301D28-E982-4416-937B-B9987FF5461D";
paths = (
{
closed = 1;
nodes = (
"547 516 LINE",
"469 516 LINE",
"454 426 LINE",
"451 426 LINE",
"429 493 OFFCURVE",
"376 528 OFFCURVE",
"300 528 CURVE SMOOTH",
"118 528 OFFCURVE",
"56 326 OFFCURVE",
"56 188 CURVE SMOOTH",
"56 56 OFFCURVE",
"113 -12 OFFCURVE",
"217 -12 CURVE SMOOTH",
"308 -12 OFFCURVE",
"360 41 OFFCURVE",
"400 122 CURVE",
"403 122 LINE",
"383 0 LINE",
"398 0 LINE",
"398 -5 LINE",
"323 -40 OFFCURVE",
"272 -77 OFFCURVE",
"272 -132 CURVE SMOOTH",
"272 -186 OFFCURVE",
"319 -207 OFFCURVE",
"370 -207 CURVE SMOOTH",
"417 -207 OFFCURVE",
"450 -189 OFFCURVE",
"468 -170 CURVE",
"430 -127 LINE",
"411 -144 OFFCURVE",
"391 -153 OFFCURVE",
"374 -153 CURVE SMOOTH",
"356 -153 OFFCURVE",
"340 -144 OFFCURVE",
"340 -122 CURVE SMOOTH",
"340 -101 OFFCURVE",
"354 -70 OFFCURVE",
"461 0 CURVE"
);
},
{
closed = 1;
nodes = (
"172 57 OFFCURVE",
"135 103 OFFCURVE",
"135 180 CURVE SMOOTH",
"135 193 OFFCURVE",
"136 207 OFFCURVE",
"139 225 CURVE SMOOTH",
"151 297 LINE SMOOTH",
"167 393 OFFCURVE",
"224 459 OFFCURVE",
"323 459 CURVE SMOOTH",
"400 459 OFFCURVE",
"453 418 OFFCURVE",
"441 346 CURVE SMOOTH",
"422 232 LINE SMOOTH",
"414 184 OFFCURVE",
"391 143 OFFCURVE",
"365 114 CURVE SMOOTH",
"329 74 OFFCURVE",
"287 57 OFFCURVE",
"244 57 CURVE SMOOTH"
);
}
);
width = 600;
}
);
note = aogonek;
unicode = 0105;
},
{
glyphname = aring;
lastChange = "2017-11-24 23:49:52 +0000";
layers = (
{
layerId = "BE301D28-E982-4416-937B-B9987FF5461D";
paths = (
{
closed = 1;
nodes = (
"401 578 OFFCURVE",
"462 634 OFFCURVE",
"462 705 CURVE SMOOTH",
"462 763 OFFCURVE",
"420 804 OFFCURVE",
"361 804 CURVE SMOOTH",
"293 804 OFFCURVE",
"232 748 OFFCURVE",
"232 677 CURVE SMOOTH",
"232 619 OFFCURVE",
"274 578 OFFCURVE",
"333 578 CURVE SMOOTH"
);
},
{
closed = 1;
nodes = (
"304 625 OFFCURVE",
"287 642 OFFCURVE",
"287 669 CURVE SMOOTH",
"287 676 OFFCURVE",
"289 689 OFFCURVE",
"291 701 CURVE SMOOTH",
"297 737 OFFCURVE",
"323 757 OFFCURVE",
"357 757 CURVE SMOOTH",
"390 757 OFFCURVE",
"407 740 OFFCURVE",
"407 713 CURVE SMOOTH",
"407 706 OFFCURVE",
"405 693 OFFCURVE",
"403 681 CURVE SMOOTH",
"397 645 OFFCURVE",
"371 625 OFFCURVE",
"337 625 CURVE SMOOTH"
);
},
{
closed = 1;
nodes = (
"461 0 LINE",
"547 516 LINE",
"469 516 LINE",
"454 426 LINE",
"451 426 LINE",
"429 493 OFFCURVE",
"376 528 OFFCURVE",
"300 528 CURVE SMOOTH",
"118 528 OFFCURVE",
"56 326 OFFCURVE",
"56 188 CURVE SMOOTH",
"56 56 OFFCURVE",
"113 -12 OFFCURVE",
"217 -12 CURVE SMOOTH",
"308 -12 OFFCURVE",
"360 41 OFFCURVE",
"400 122 CURVE",
"403 122 LINE",
"383 0 LINE"
);
},
{
closed = 1;
nodes = (
"172 57 OFFCURVE",
"135 103 OFFCURVE",
"135 180 CURVE SMOOTH",
"135 193 OFFCURVE",
"136 207 OFFCURVE",
"139 225 CURVE SMOOTH",
"151 297 LINE SMOOTH",
"167 393 OFFCURVE",
"224 459 OFFCURVE",
"323 459 CURVE SMOOTH",
"400 459 OFFCURVE",
"453 418 OFFCURVE",
"441 346 CURVE SMOOTH",
"422 232 LINE SMOOTH",
"414 184 OFFCURVE",
"391 143 OFFCURVE",
"365 114 CURVE SMOOTH",
"329 74 OFFCURVE",
"287 57 OFFCURVE",
"244 57 CURVE SMOOTH"
);
}
);
width = 600;
}
);
note = aring;
unicode = 00E5;
},
{
glyphname = aringacute;
lastChange = "2017-11-24 23:49:52 +0000";
layers = (
{
layerId = "BE301D28-E982-4416-937B-B9987FF5461D";
paths = (
{
closed = 1;
nodes = (
"478 917 LINE",
"425 956 LINE",
"335 842 LINE",
"372 814 LINE"
);
},
{
closed = 1;
nodes = (
"401 568 OFFCURVE",
"462 624 OFFCURVE",
"462 695 CURVE SMOOTH",
"462 753 OFFCURVE",
"420 794 OFFCURVE",
"361 794 CURVE SMOOTH",
"293 794 OFFCURVE",
"232 738 OFFCURVE",
"232 667 CURVE SMOOTH",
"232 609 OFFCURVE",
"274 568 OFFCURVE",
"333 568 CURVE SMOOTH"
);
},
{
closed = 1;
nodes = (
"304 615 OFFCURVE",
"287 632 OFFCURVE",
"287 659 CURVE SMOOTH",
"287 666 OFFCURVE",
"288 676 OFFCURVE",
"291 691 CURVE SMOOTH",
"300 732 OFFCURVE",
"326 747 OFFCURVE",
"357 747 CURVE SMOOTH",
"390 747 OFFCURVE",
"407 730 OFFCURVE",
"407 703 CURVE SMOOTH",
"407 696 OFFCURVE",
"406 686 OFFCURVE",
"403 671 CURVE SMOOTH",
"394 630 OFFCURVE",
"368 615 OFFCURVE",
"337 615 CURVE SMOOTH"
);
},
{
closed = 1;
nodes = (
"461 0 LINE",
"547 516 LINE",
"469 516 LINE",
"454 426 LINE",
"451 426 LINE",
"429 493 OFFCURVE",
"376 528 OFFCURVE",
"300 528 CURVE SMOOTH",
"118 528 OFFCURVE",
"56 326 OFFCURVE",
"56 188 CURVE SMOOTH",
"56 56 OFFCURVE",
"113 -12 OFFCURVE",
"217 -12 CURVE SMOOTH",
"308 -12 OFFCURVE",
"360 41 OFFCURVE",
"400 122 CURVE",
"403 122 LINE",
"383 0 LINE"
);
},
{
closed = 1;
nodes = (
"172 57 OFFCURVE",
"135 103 OFFCURVE",
"135 180 CURVE SMOOTH",
"135 193 OFFCURVE",
"136 207 OFFCURVE",
"139 225 CURVE SMOOTH",
"151 297 LINE SMOOTH",
"167 393 OFFCURVE",
"224 459 OFFCURVE",
"323 459 CURVE SMOOTH",
"400 459 OFFCURVE",
"453 418 OFFCURVE",
"441 346 CURVE SMOOTH",
"422 232 LINE SMOOTH",
"414 184 OFFCURVE",
"391 143 OFFCURVE",
"365 114 CURVE SMOOTH",
"329 74 OFFCURVE",
"287 57 OFFCURVE",
"244 57 CURVE SMOOTH"
);
}
);
width = 600;
}
);
note = aringacute;
unicode = 01FB;
},
{
glyphname = atilde;
lastChange = "2017-11-24 23:49:52 +0000";
layers = (
{
layerId = "BE301D28-E982-4416-937B-B9987FF5461D";
paths = (
{
closed = 1;
nodes = (
"453 612 OFFCURVE",
"488 638 OFFCURVE",
"510 664 CURVE",
"482 705 LINE",
"459 687 OFFCURVE",
"440 676 OFFCURVE",
"419 676 CURVE SMOOTH",
"400 676 OFFCURVE",
"378 685 OFFCURVE",
"355 699 CURVE SMOOTH",
"335 711 OFFCURVE",
"312 727 OFFCURVE",
"279 727 CURVE SMOOTH",
"237 727 OFFCURVE",
"202 701 OFFCURVE",
"180 675 CURVE",
"208 634 LINE",
"231 652 OFFCURVE",
"250 663 OFFCURVE",
"271 663 CURVE SMOOTH",
"290 663 OFFCURVE",
"312 654 OFFCURVE",
"335 640 CURVE SMOOTH",
"355 628 OFFCURVE",
"378 612 OFFCURVE",
"411 612 CURVE SMOOTH"
);
},
{
closed = 1;
nodes = (
"461 0 LINE",
"547 516 LINE",
"469 516 LINE",
"454 426 LINE",
"451 426 LINE",
"429 493 OFFCURVE",
"376 528 OFFCURVE",
"300 528 CURVE SMOOTH",
"118 528 OFFCURVE",
"56 326 OFFCURVE",
"56 188 CURVE SMOOTH",
"56 56 OFFCURVE",
"113 -12 OFFCURVE",
"217 -12 CURVE SMOOTH",
"308 -12 OFFCURVE",
"360 41 OFFCURVE",
"400 122 CURVE",
"403 122 LINE",
"383 0 LINE"
);
},
{
closed = 1;
nodes = (
"172 57 OFFCURVE",
"135 103 OFFCURVE",
"135 180 CURVE SMOOTH",
"135 193 OFFCURVE",
"136 207 OFFCURVE",
"139 225 CURVE SMOOTH",
"151 297 LINE SMOOTH",
"167 393 OFFCURVE",
"224 459 OFFCURVE",
"323 459 CURVE SMOOTH",
"400 459 OFFCURVE",
"453 418 OFFCURVE",
"441 346 CURVE SMOOTH",
"422 232 LINE SMOOTH",
"414 184 OFFCURVE",
"391 143 OFFCURVE",
"365 114 CURVE SMOOTH",
"329 74 OFFCURVE",
"287 57 OFFCURVE",
"244 57 CURVE SMOOTH"
);
}
);
width = 600;
}
);
note = atilde;
unicode = 00E3;
},
{
glyphname = uni1EAF;
lastChange = "2017-11-24 23:49:52 +0000";
layers = (
{
layerId = "BE301D28-E982-4416-937B-B9987FF5461D";
paths = (
{
closed = 1;
nodes = (
"435 585 OFFCURVE",
"489 661 OFFCURVE",
"520 724 CURVE",
"471 747 LINE",
"445 715 LINE SMOOTH",
"403 663 OFFCURVE",
"375 647 OFFCURVE",
"336 647 CURVE SMOOTH",
"293 647 OFFCURVE",
"274 667 OFFCURVE",
"250 715 CURVE SMOOTH",
"234 747 LINE",
"189 724 LINE",
"198 666 OFFCURVE",
"223 585 OFFCURVE",
"331 585 CURVE SMOOTH"
);
},
{
closed = 1;
nodes = (
"479 863 LINE",
"414 900 LINE",
"306 734 LINE",
"350 708 LINE"
);
},
{
closed = 1;
nodes = (
"461 0 LINE",
"547 516 LINE",
"469 516 LINE",
"454 426 LINE",
"451 426 LINE",
"429 493 OFFCURVE",
"376 528 OFFCURVE",
"300 528 CURVE SMOOTH",
"118 528 OFFCURVE",
"56 326 OFFCURVE",
"56 188 CURVE SMOOTH",
"56 56 OFFCURVE",
"113 -12 OFFCURVE",
"217 -12 CURVE SMOOTH",
"308 -12 OFFCURVE",
"360 41 OFFCURVE",
"400 122 CURVE",
"403 122 LINE",
"383 0 LINE"
);
},
{
closed = 1;
nodes = (
"172 57 OFFCURVE",
"135 103 OFFCURVE",
"135 180 CURVE SMOOTH",
"135 193 OFFCURVE",
"136 207 OFFCURVE",
"139 225 CURVE SMOOTH",
"151 297 LINE SMOOTH",
"167 393 OFFCURVE",
"224 459 OFFCURVE",
"323 459 CURVE SMOOTH",
"400 459 OFFCURVE",
"453 418 OFFCURVE",
"441 346 CURVE SMOOTH",
"422 232 LINE SMOOTH",
"414 184 OFFCURVE",
"391 143 OFFCURVE",
"365 114 CURVE SMOOTH",
"329 74 OFFCURVE",
"287 57 OFFCURVE",
"244 57 CURVE SMOOTH"
);
}
);
width = 600;
}
);
note = uni1EAF;
unicode = 1EAF;
},
{
glyphname = uni1EB7;
lastChange = "2017-11-24 23:49:52 +0000";
layers = (
{
layerId = "BE301D28-E982-4416-937B-B9987FF5461D";
paths = (
{
closed = 1;
nodes = (
"259 -171 OFFCURVE",
"271 -153 OFFCURVE",
"278 -128 CURVE SMOOTH",
"280 -121 OFFCURVE",
"282 -109 OFFCURVE",
"282 -102 CURVE SMOOTH",
"282 -83 OFFCURVE",
"268 -66 OFFCURVE",
"230 -66 CURVE SMOOTH",
"190 -66 OFFCURVE",
"178 -84 OFFCURVE",
"171 -109 CURVE SMOOTH",
"169 -116 OFFCURVE",
"167 -128 OFFCURVE",
"167 -135 CURVE SMOOTH",
"167 -154 OFFCURVE",
"181 -171 OFFCURVE",
"219 -171 CURVE SMOOTH"
);
},
{
closed = 1;
nodes = (
"440 595 OFFCURVE",
"487 684 OFFCURVE",
"516 746 CURVE",
"466 767 LINE",
"439 733 LINE SMOOTH",
"396 679 OFFCURVE",
"379 658 OFFCURVE",
"337 658 CURVE SMOOTH",
"292 658 OFFCURVE",
"279 683 OFFCURVE",
"257 733 CURVE SMOOTH",
"242 767 LINE",
"194 746 LINE",
"203 685 OFFCURVE",
"229 595 OFFCURVE",
"335 595 CURVE SMOOTH"
);
},
{
closed = 1;
nodes = (
"461 0 LINE",
"547 516 LINE",
"469 516 LINE",
"454 426 LINE",
"451 426 LINE",
"429 493 OFFCURVE",
"376 528 OFFCURVE",
"300 528 CURVE SMOOTH",
"118 528 OFFCURVE",
"56 326 OFFCURVE",
"56 188 CURVE SMOOTH",
"56 56 OFFCURVE",
"113 -12 OFFCURVE",
"217 -12 CURVE SMOOTH",
"308 -12 OFFCURVE",
"360 41 OFFCURVE",
"400 122 CURVE",
"403 122 LINE",
"383 0 LINE"
);
},
{
closed = 1;
nodes = (
"172 57 OFFCURVE",
"135 103 OFFCURVE",
"135 180 CURVE SMOOTH",
"135 193 OFFCURVE",
"136 207 OFFCURVE",
"139 225 CURVE SMOOTH",
"151 297 LINE SMOOTH",
"167 393 OFFCURVE",
"224 459 OFFCURVE",
"323 459 CURVE SMOOTH",
"400 459 OFFCURVE",
"453 418 OFFCURVE",
"441 346 CURVE SMOOTH",
"422 232 LINE SMOOTH",
"414 184 OFFCURVE",
"391 143 OFFCURVE",
"365 114 CURVE SMOOTH",
"329 74 OFFCURVE",
"287 57 OFFCURVE",
"244 57 CURVE SMOOTH"
);
}
);
width = 600;
}
);
note = uni1EB7;
unicode = 1EB7;
},
{
glyphname = uni1EB1;
lastChange = "2017-11-24 23:49:52 +0000";
layers = (
{
layerId = "BE301D28-E982-4416-937B-B9987FF5461D";
paths = (
{
closed = 1;
nodes = (
"435 585 OFFCURVE",
"489 661 OFFCURVE",
"520 724 CURVE",
"471 747 LINE",
"445 715 LINE SMOOTH",
"403 663 OFFCURVE",
"375 647 OFFCURVE",
"336 647 CURVE SMOOTH",
"293 647 OFFCURVE",
"274 667 OFFCURVE",
"250 715 CURVE SMOOTH",
"234 747 LINE",
"189 724 LINE",
"198 666 OFFCURVE",
"223 585 OFFCURVE",
"331 585 CURVE SMOOTH"
);
},
{
closed = 1;
nodes = (
"329 708 LINE",
"377 726 LINE",
"325 900 LINE",
"254 874 LINE"
);
},
{
closed = 1;
nodes = (
"461 0 LINE",
"547 516 LINE",
"469 516 LINE",
"454 426 LINE",
"451 426 LINE",
"429 493 OFFCURVE",
"376 528 OFFCURVE",
"300 528 CURVE SMOOTH",
"118 528 OFFCURVE",
"56 326 OFFCURVE",
"56 188 CURVE SMOOTH",
"56 56 OFFCURVE",
"113 -12 OFFCURVE",
"217 -12 CURVE SMOOTH",
"308 -12 OFFCURVE",
"360 41 OFFCURVE",
"400 122 CURVE",
"403 122 LINE",
"383 0 LINE"
);
},
{
closed = 1;
nodes = (
"172 57 OFFCURVE",
"135 103 OFFCURVE",
"135 180 CURVE SMOOTH",
"135 193 OFFCURVE",
"136 207 OFFCURVE",
"139 225 CURVE SMOOTH",
"151 297 LINE SMOOTH",
"167 393 OFFCURVE",
"224 459 OFFCURVE",
"323 459 CURVE SMOOTH",
"400 459 OFFCURVE",
"453 418 OFFCURVE",
"441 346 CURVE SMOOTH",
"422 232 LINE SMOOTH",
"414 184 OFFCURVE",
"391 143 OFFCURVE",
"365 114 CURVE SMOOTH",
"329 74 OFFCURVE",
"287 57 OFFCURVE",
"244 57 CURVE SMOOTH"
);
}
);
width = 600;
}
);
note = uni1EB1;
unicode = 1EB1;
},
{
glyphname = uni1EB3;
lastChange = "2017-11-24 23:49:52 +0000";
layers = (
{
layerId = "BE301D28-E982-4416-937B-B9987FF5461D";
paths = (
{
closed = 1;
nodes = (
"435 585 OFFCURVE",
"489 661 OFFCURVE",
"520 724 CURVE",
"471 747 LINE",
"445 715 LINE SMOOTH",
"403 663 OFFCURVE",
"375 647 OFFCURVE",
"336 647 CURVE SMOOTH",
"293 647 OFFCURVE",
"274 667 OFFCURVE",
"250 715 CURVE SMOOTH",
"234 747 LINE",
"189 724 LINE",
"198 666 OFFCURVE",
"223 585 OFFCURVE",
"331 585 CURVE SMOOTH"
);
},
{
closed = 1;
nodes = (
"269 829 LINE",
"372 829 LINE",
"301 729 LINE",
"343 702 LINE",
"399 765 LINE SMOOTH",
"422 791 OFFCURVE",
"436 815 OFFCURVE",
"436 839 CURVE SMOOTH",
"436 867 OFFCURVE",
"416 890 OFFCURVE",
"369 890 CURVE SMOOTH",
"280 890 LINE"
);
},
{
closed = 1;
nodes = (
"461 0 LINE",
"547 516 LINE",
"469 516 LINE",
"454 426 LINE",
"451 426 LINE",
"429 493 OFFCURVE",
"376 528 OFFCURVE",
"300 528 CURVE SMOOTH",
"118 528 OFFCURVE",
"56 326 OFFCURVE",
"56 188 CURVE SMOOTH",
"56 56 OFFCURVE",
"113 -12 OFFCURVE",
"217 -12 CURVE SMOOTH",
"308 -12 OFFCURVE",
"360 41 OFFCURVE",
"400 122 CURVE",
"403 122 LINE",
"383 0 LINE"
);
},
{
closed = 1;
nodes = (
"172 57 OFFCURVE",
"135 103 OFFCURVE",
"135 180 CURVE SMOOTH",
"135 193 OFFCURVE",
"136 207 OFFCURVE",
"139 225 CURVE SMOOTH",
"151 297 LINE SMOOTH",
"167 393 OFFCURVE",
"224 459 OFFCURVE",
"323 459 CURVE SMOOTH",
"400 459 OFFCURVE",
"453 418 OFFCURVE",
"441 346 CURVE SMOOTH",
"422 232 LINE SMOOTH",
"414 184 OFFCURVE",
"391 143 OFFCURVE",
"365 114 CURVE SMOOTH",
"329 74 OFFCURVE",
"287 57 OFFCURVE",
"244 57 CURVE SMOOTH"
);
}
);
width = 600;
}
);
note = uni1EB3;
unicode = 1EB3;
},
{
glyphname = uni1EB5;
lastChange = "2017-11-24 23:49:52 +0000";
layers = (
{
layerId = "BE301D28-E982-4416-937B-B9987FF5461D";
paths = (
{
closed = 1;
nodes = (
"435 585 OFFCURVE",
"489 661 OFFCURVE",
"520 724 CURVE",
"471 747 LINE",
"445 715 LINE SMOOTH",
"403 663 OFFCURVE",
"375 647 OFFCURVE",
"336 647 CURVE SMOOTH",
"293 647 OFFCURVE",
"274 667 OFFCURVE",
"250 715 CURVE SMOOTH",
"234 747 LINE",
"189 724 LINE",
"198 666 OFFCURVE",
"223 585 OFFCURVE",
"331 585 CURVE SMOOTH"
);
},
{
closed = 1;
nodes = (
"472 777 OFFCURVE",
"503 802 OFFCURVE",
"526 829 CURVE",
"498 864 LINE",
"476 847 OFFCURVE",
"458 837 OFFCURVE",
"437 837 CURVE SMOOTH",
"420 837 OFFCURVE",
"402 843 OFFCURVE",
"373 857 CURVE SMOOTH",
"354 866 OFFCURVE",
"330 879 OFFCURVE",
"297 879 CURVE SMOOTH",
"251 879 OFFCURVE",
"220 854 OFFCURVE",
"197 827 CURVE",
"225 792 LINE",
"247 809 OFFCURVE",
"265 819 OFFCURVE",
"286 819 CURVE SMOOTH",
"303 819 OFFCURVE",
"321 813 OFFCURVE",
"350 799 CURVE SMOOTH",
"369 790 OFFCURVE",
"393 777 OFFCURVE",
"426 777 CURVE SMOOTH"
);
},
{
closed = 1;
nodes = (
"461 0 LINE",
"547 516 LINE",
"469 516 LINE",
"454 426 LINE",
"451 426 LINE",
"429 493 OFFCURVE",
"376 528 OFFCURVE",
"300 528 CURVE SMOOTH",
"118 528 OFFCURVE",
"56 326 OFFCURVE",
"56 188 CURVE SMOOTH",
"56 56 OFFCURVE",
"113 -12 OFFCURVE",
"217 -12 CURVE SMOOTH",
"308 -12 OFFCURVE",
"360 41 OFFCURVE",
"400 122 CURVE",
"403 122 LINE",
"383 0 LINE"
);
},
{
closed = 1;
nodes = (
"172 57 OFFCURVE",
"135 103 OFFCURVE",
"135 180 CURVE SMOOTH",
"135 193 OFFCURVE",
"136 207 OFFCURVE",
"139 225 CURVE SMOOTH",
"151 297 LINE SMOOTH",
"167 393 OFFCURVE",
"224 459 OFFCURVE",
"323 459 CURVE SMOOTH",
"400 459 OFFCURVE",
"453 418 OFFCURVE",
"441 346 CURVE SMOOTH",
"422 232 LINE SMOOTH",
"414 184 OFFCURVE",
"391 143 OFFCURVE",
"365 114 CURVE SMOOTH",
"329 74 OFFCURVE",
"287 57 OFFCURVE",
"244 57 CURVE SMOOTH"
);
}
);
width = 600;
}
);
note = uni1EB5;
unicode = 1EB5;
},
{
glyphname = uni1EA5;
lastChange = "2017-11-24 23:49:52 +0000";
layers = (
{
layerId = "BE301D28-E982-4416-937B-B9987FF5461D";
paths = (
{
closed = 1;
nodes = (
"628 863 LINE",
"563 900 LINE",
"455 734 LINE",
"499 708 LINE"
);
},
{
closed = 1;
nodes = (
"309 755 LINE",
"176 614 LINE",
"215 581 LINE",
"352 698 LINE",
"448 581 LINE",
"494 608 LINE",
"407 755 LINE"
);
},
{
closed = 1;
nodes = (
"461 0 LINE",
"547 516 LINE",
"469 516 LINE",
"454 426 LINE",
"451 426 LINE",
"429 493 OFFCURVE",
"376 528 OFFCURVE",
"300 528 CURVE SMOOTH",
"118 528 OFFCURVE",
"56 326 OFFCURVE",
"56 188 CURVE SMOOTH",
"56 56 OFFCURVE",
"113 -12 OFFCURVE",
"217 -12 CURVE SMOOTH",
"308 -12 OFFCURVE",
"360 41 OFFCURVE",
"400 122 CURVE",
"403 122 LINE",
"383 0 LINE"
);
},
{
closed = 1;
nodes = (
"172 57 OFFCURVE",
"135 103 OFFCURVE",
"135 180 CURVE SMOOTH",
"135 193 OFFCURVE",
"136 207 OFFCURVE",
"139 225 CURVE SMOOTH",
"151 297 LINE SMOOTH",
"167 393 OFFCURVE",
"224 459 OFFCURVE",
"323 459 CURVE SMOOTH",
"400 459 OFFCURVE",
"453 418 OFFCURVE",
"441 346 CURVE SMOOTH",
"422 232 LINE SMOOTH",
"414 184 OFFCURVE",
"391 143 OFFCURVE",
"365 114 CURVE SMOOTH",
"329 74 OFFCURVE",
"287 57 OFFCURVE",
"244 57 CURVE SMOOTH"
);
}
);
width = 600;
}
);
note = uni1EA5;
unicode = 1EA5;
},
{
glyphname = uni1EAD;
lastChange = "2017-11-24 23:49:52 +0000";
layers = (
{
layerId = "BE301D28-E982-4416-937B-B9987FF5461D";
paths = (
{
closed = 1;
nodes = (
"259 -171 OFFCURVE",
"271 -153 OFFCURVE",
"278 -128 CURVE SMOOTH",
"280 -121 OFFCURVE",
"282 -109 OFFCURVE",
"282 -102 CURVE SMOOTH",
"282 -83 OFFCURVE",
"268 -66 OFFCURVE",
"230 -66 CURVE SMOOTH",
"190 -66 OFFCURVE",
"178 -84 OFFCURVE",
"171 -109 CURVE SMOOTH",
"169 -116 OFFCURVE",
"167 -128 OFFCURVE",
"167 -135 CURVE SMOOTH",
"167 -154 OFFCURVE",
"181 -171 OFFCURVE",
"219 -171 CURVE SMOOTH"
);
},
{
closed = 1;
nodes = (
"311 765 LINE",
"178 624 LINE",
"217 591 LINE",
"354 708 LINE",
"450 591 LINE",
"496 618 LINE",
"409 765 LINE"
);
},
{
closed = 1;
nodes = (
"461 0 LINE",
"547 516 LINE",
"469 516 LINE",
"454 426 LINE",
"451 426 LINE",
"429 493 OFFCURVE",
"376 528 OFFCURVE",
"300 528 CURVE SMOOTH",
"118 528 OFFCURVE",
"56 326 OFFCURVE",
"56 188 CURVE SMOOTH",
"56 56 OFFCURVE",
"113 -12 OFFCURVE",
"217 -12 CURVE SMOOTH",
"308 -12 OFFCURVE",
"360 41 OFFCURVE",
"400 122 CURVE",
"403 122 LINE",
"383 0 LINE"
);
},
{
closed = 1;
nodes = (
"172 57 OFFCURVE",
"135 103 OFFCURVE",
"135 180 CURVE SMOOTH",
"135 193 OFFCURVE",
"136 207 OFFCURVE",
"139 225 CURVE SMOOTH",
"151 297 LINE SMOOTH",
"167 393 OFFCURVE",
"224 459 OFFCURVE",
"323 459 CURVE SMOOTH",
"400 459 OFFCURVE",
"453 418 OFFCURVE",
"441 346 CURVE SMOOTH",
"422 232 LINE SMOOTH",
"414 184 OFFCURVE",
"391 143 OFFCURVE",
"365 114 CURVE SMOOTH",
"329 74 OFFCURVE",
"287 57 OFFCURVE",
"244 57 CURVE SMOOTH"
);
}
);
width = 600;
}
);
note = uni1EAD;
unicode = 1EAD;
},
{
glyphname = uni1EA7;
lastChange = "2017-11-24 23:49:52 +0000";
layers = (
{
layerId = "BE301D28-E982-4416-937B-B9987FF5461D";
paths = (
{
closed = 1;
nodes = (
"200 713 LINE",
"248 731 LINE",
"196 905 LINE",
"125 879 LINE"
);
},
{
closed = 1;
nodes = (
"309 755 LINE",
"176 614 LINE",
"215 581 LINE",
"352 698 LINE",
"448 581 LINE",
"494 608 LINE",
"407 755 LINE"
);
},
{
closed = 1;
nodes = (
"461 0 LINE",
"547 516 LINE",
"469 516 LINE",
"454 426 LINE",
"451 426 LINE",
"429 493 OFFCURVE",
"376 528 OFFCURVE",
"300 528 CURVE SMOOTH",
"118 528 OFFCURVE",
"56 326 OFFCURVE",
"56 188 CURVE SMOOTH",
"56 56 OFFCURVE",
"113 -12 OFFCURVE",
"217 -12 CURVE SMOOTH",
"308 -12 OFFCURVE",
"360 41 OFFCURVE",
"400 122 CURVE",
"403 122 LINE",
"383 0 LINE"
);
},
{
closed = 1;
nodes = (
"172 57 OFFCURVE",
"135 103 OFFCURVE",
"135 180 CURVE SMOOTH",
"135 193 OFFCURVE",
"136 207 OFFCURVE",
"139 225 CURVE SMOOTH",
"151 297 LINE SMOOTH",
"167 393 OFFCURVE",
"224 459 OFFCURVE",
"323 459 CURVE SMOOTH",
"400 459 OFFCURVE",
"453 418 OFFCURVE",
"441 346 CURVE SMOOTH",
"422 232 LINE SMOOTH",
"414 184 OFFCURVE",
"391 143 OFFCURVE",
"365 114 CURVE SMOOTH",
"329 74 OFFCURVE",
"287 57 OFFCURVE",
"244 57 CURVE SMOOTH"
);
}
);
width = 600;
}
);
note = uni1EA7;
unicode = 1EA7;
},
{
glyphname = uni1EA9;
lastChange = "2017-11-24 23:49:52 +0000";
layers = (
{
layerId = "BE301D28-E982-4416-937B-B9987FF5461D";
paths = (
{
closed = 1;
nodes = (
"414 834 LINE",
"529 834 LINE",
"458 734 LINE",
"500 707 LINE",
"556 770 LINE SMOOTH",
"579 796 OFFCURVE",
"593 820 OFFCURVE",
"593 844 CURVE SMOOTH",
"593 872 OFFCURVE",
"573 895 OFFCURVE",
"526 895 CURVE SMOOTH",
"425 895 LINE"
);
},
{
closed = 1;
nodes = (
"309 755 LINE",
"176 614 LINE",
"215 581 LINE",
"352 698 LINE",
"448 581 LINE",
"494 608 LINE",
"407 755 LINE"
);
},
{
closed = 1;
nodes = (
"461 0 LINE",
"547 516 LINE",
"469 516 LINE",
"454 426 LINE",
"451 426 LINE",
"429 493 OFFCURVE",
"376 528 OFFCURVE",
"300 528 CURVE SMOOTH",
"118 528 OFFCURVE",
"56 326 OFFCURVE",
"56 188 CURVE SMOOTH",
"56 56 OFFCURVE",
"113 -12 OFFCURVE",
"217 -12 CURVE SMOOTH",
"308 -12 OFFCURVE",
"360 41 OFFCURVE",
"400 122 CURVE",
"403 122 LINE",
"383 0 LINE"
);
},
{
closed = 1;
nodes = (
"172 57 OFFCURVE",
"135 103 OFFCURVE",
"135 180 CURVE SMOOTH",
"135 193 OFFCURVE",
"136 207 OFFCURVE",
"139 225 CURVE SMOOTH",
"151 297 LINE SMOOTH",
"167 393 OFFCURVE",
"224 459 OFFCURVE",
"323 459 CURVE SMOOTH",
"400 459 OFFCURVE",
"453 418 OFFCURVE",
"441 346 CURVE SMOOTH",
"422 232 LINE SMOOTH",
"414 184 OFFCURVE",
"391 143 OFFCURVE",
"365 114 CURVE SMOOTH",
"329 74 OFFCURVE",
"287 57 OFFCURVE",
"244 57 CURVE SMOOTH"
);
}
);
width = 600;
}
);
note = uni1EA9;
unicode = 1EA9;
},
{
glyphname = uni1EAB;
lastChange = "2017-11-24 23:49:52 +0000";
layers = (
{
layerId = "BE301D28-E982-4416-937B-B9987FF5461D";
paths = (
{
closed = 1;
nodes = (
"266 894 OFFCURVE",
"231 868 OFFCURVE",
"209 842 CURVE",
"237 801 LINE",
"260 819 OFFCURVE",
"279 830 OFFCURVE",
"300 830 CURVE SMOOTH",
"319 830 OFFCURVE",
"341 821 OFFCURVE",
"364 807 CURVE SMOOTH",
"384 795 OFFCURVE",
"407 779 OFFCURVE",
"440 779 CURVE SMOOTH",
"482 779 OFFCURVE",
"517 805 OFFCURVE",
"539 831 CURVE",
"511 872 LINE",
"488 854 OFFCURVE",
"469 843 OFFCURVE",
"448 843 CURVE SMOOTH",
"429 843 OFFCURVE",
"407 852 OFFCURVE",
"384 866 CURVE SMOOTH",
"364 878 OFFCURVE",
"341 894 OFFCURVE",
"308 894 CURVE SMOOTH"
);
},
{
closed = 1;
nodes = (
"310 745 LINE",
"178 616 LINE",
"217 581 LINE",
"352 692 LINE",
"450 581 LINE",
"497 606 LINE",
"409 745 LINE"
);
},
{
closed = 1;
nodes = (
"461 0 LINE",
"547 516 LINE",
"469 516 LINE",
"454 426 LINE",
"451 426 LINE",
"429 493 OFFCURVE",
"376 528 OFFCURVE",
"300 528 CURVE SMOOTH",
"118 528 OFFCURVE",
"56 326 OFFCURVE",
"56 188 CURVE SMOOTH",
"56 56 OFFCURVE",
"113 -12 OFFCURVE",
"217 -12 CURVE SMOOTH",
"308 -12 OFFCURVE",
"360 41 OFFCURVE",
"400 122 CURVE",
"403 122 LINE",
"383 0 LINE"
);
},
{
closed = 1;
nodes = (
"172 57 OFFCURVE",
"135 103 OFFCURVE",
"135 180 CURVE SMOOTH",
"135 193 OFFCURVE",
"136 207 OFFCURVE",
"139 225 CURVE SMOOTH",
"151 297 LINE SMOOTH",
"167 393 OFFCURVE",
"224 459 OFFCURVE",
"323 459 CURVE SMOOTH",
"400 459 OFFCURVE",
"453 418 OFFCURVE",
"441 346 CURVE SMOOTH",
"422 232 LINE SMOOTH",
"414 184 OFFCURVE",
"391 143 OFFCURVE",
"365 114 CURVE SMOOTH",
"329 74 OFFCURVE",
"287 57 OFFCURVE",
"244 57 CURVE SMOOTH"
);
}
);
width = 600;
}
);
note = uni1EAB;
unicode = 1EAB;
},
{
glyphname = aacute.alt01;
lastChange = "2017-11-24 23:49:52 +0000";
layers = (
{
layerId = "BE301D28-E982-4416-937B-B9987FF5461D";
paths = (
{
closed = 1;
nodes = (
"479 740 LINE",
"411 779 LINE",
"303 613 LINE",
"350 585 LINE"
);
},
{
closed = 1;
nodes = (
"300 -12 OFFCURVE",
"356 32 OFFCURVE",
"386 91 CURVE",
"390 91 LINE",
"375 0 LINE",
"451 0 LINE",
"505 324 LINE SMOOTH",
"508 342 OFFCURVE",
"510 361 OFFCURVE",
"510 379 CURVE SMOOTH",
"510 463 OFFCURVE",
"442 528 OFFCURVE",
"329 528 CURVE SMOOTH",
"230 528 OFFCURVE",
"161 479 OFFCURVE",
"126 428 CURVE",
"176 384 LINE",
"211 432 OFFCURVE",
"254 461 OFFCURVE",
"323 461 CURVE SMOOTH",
"393 461 OFFCURVE",
"432 428 OFFCURVE",
"432 364 CURVE SMOOTH",
"432 354 OFFCURVE",
"431 343 OFFCURVE",
"429 331 CURVE SMOOTH",
"423 295 LINE",
"308 295 LINE SMOOTH",
"135 295 OFFCURVE",
"61 228 OFFCURVE",
"61 120 CURVE SMOOTH",
"61 39 OFFCURVE",
"121 -12 OFFCURVE",
"219 -12 CURVE SMOOTH"
);
},
{
closed = 1;
nodes = (
"177 55 OFFCURVE",
"140 78 OFFCURVE",
"140 119 CURVE SMOOTH",
"140 129 OFFCURVE",
"140 134 OFFCURVE",
"143 152 CURVE SMOOTH",
"152 206 OFFCURVE",
"201 235 OFFCURVE",
"297 235 CURVE SMOOTH",
"413 235 LINE",
"400 157 LINE SMOOTH",
"391 103 OFFCURVE",
"323 55 OFFCURVE",
"238 55 CURVE SMOOTH"
);
}
);
width = 600;
}
);
note = aacute.alt01;
},
{
glyphname = abreve.alt01;
lastChange = "2017-11-24 23:49:52 +0000";
layers = (
{
layerId = "BE301D28-E982-4416-937B-B9987FF5461D";
paths = (
{
closed = 1;
nodes = (
"450 595 OFFCURVE",
"497 684 OFFCURVE",
"526 746 CURVE",
"476 767 LINE",
"449 733 LINE SMOOTH",
"406 679 OFFCURVE",
"389 658 OFFCURVE",
"347 658 CURVE SMOOTH",
"302 658 OFFCURVE",
"289 683 OFFCURVE",
"267 733 CURVE SMOOTH",
"252 767 LINE",
"204 746 LINE",
"213 685 OFFCURVE",
"239 595 OFFCURVE",
"345 595 CURVE SMOOTH"
);
},
{
closed = 1;
nodes = (
"300 -12 OFFCURVE",
"356 32 OFFCURVE",
"386 91 CURVE",
"390 91 LINE",
"375 0 LINE",
"451 0 LINE",
"505 324 LINE SMOOTH",
"508 342 OFFCURVE",
"510 361 OFFCURVE",
"510 379 CURVE SMOOTH",
"510 463 OFFCURVE",
"442 528 OFFCURVE",
"329 528 CURVE SMOOTH",
"230 528 OFFCURVE",
"161 479 OFFCURVE",
"126 428 CURVE",
"176 384 LINE",
"211 432 OFFCURVE",
"254 461 OFFCURVE",
"323 461 CURVE SMOOTH",
"393 461 OFFCURVE",
"432 428 OFFCURVE",
"432 364 CURVE SMOOTH",
"432 354 OFFCURVE",
"431 343 OFFCURVE",
"429 331 CURVE SMOOTH",
"423 295 LINE",
"308 295 LINE SMOOTH",
"135 295 OFFCURVE",
"61 228 OFFCURVE",
"61 120 CURVE SMOOTH",
"61 39 OFFCURVE",
"121 -12 OFFCURVE",
"219 -12 CURVE SMOOTH"
);
},
{
closed = 1;
nodes = (
"177 55 OFFCURVE",
"140 78 OFFCURVE",
"140 119 CURVE SMOOTH",
"140 129 OFFCURVE",
"140 134 OFFCURVE",
"143 152 CURVE SMOOTH",
"152 206 OFFCURVE",
"201 235 OFFCURVE",
"297 235 CURVE SMOOTH",
"413 235 LINE",
"400 157 LINE SMOOTH",
"391 103 OFFCURVE",
"323 55 OFFCURVE",
"238 55 CURVE SMOOTH"
);
}
);
width = 600;
}
);
note = abreve.alt01;
},
{
glyphname = acircumflex.alt01;
lastChange = "2017-11-24 23:49:52 +0000";
layers = (
{
layerId = "BE301D28-E982-4416-937B-B9987FF5461D";
paths = (
{
closed = 1;
nodes = (
"321 765 LINE",
"188 624 LINE",
"227 591 LINE",
"364 708 LINE",
"460 591 LINE",
"506 618 LINE",
"419 765 LINE"
);
},
{
closed = 1;
nodes = (
"300 -12 OFFCURVE",
"356 32 OFFCURVE",
"386 91 CURVE",
"390 91 LINE",
"375 0 LINE",
"451 0 LINE",
"505 324 LINE SMOOTH",
"508 342 OFFCURVE",
"510 361 OFFCURVE",
"510 379 CURVE SMOOTH",
"510 463 OFFCURVE",
"442 528 OFFCURVE",
"329 528 CURVE SMOOTH",
"230 528 OFFCURVE",
"161 479 OFFCURVE",
"126 428 CURVE",
"176 384 LINE",
"211 432 OFFCURVE",
"254 461 OFFCURVE",
"323 461 CURVE SMOOTH",
"393 461 OFFCURVE",
"432 428 OFFCURVE",
"432 364 CURVE SMOOTH",
"432 354 OFFCURVE",
"431 343 OFFCURVE",
"429 331 CURVE SMOOTH",
"423 295 LINE",
"308 295 LINE SMOOTH",
"135 295 OFFCURVE",
"61 228 OFFCURVE",
"61 120 CURVE SMOOTH",
"61 39 OFFCURVE",
"121 -12 OFFCURVE",
"219 -12 CURVE SMOOTH"
);
},
{
closed = 1;
nodes = (
"177 55 OFFCURVE",
"140 78 OFFCURVE",
"140 119 CURVE SMOOTH",
"140 129 OFFCURVE",
"140 134 OFFCURVE",
"143 152 CURVE SMOOTH",
"152 206 OFFCURVE",
"201 235 OFFCURVE",
"297 235 CURVE SMOOTH",
"413 235 LINE",
"400 157 LINE SMOOTH",
"391 103 OFFCURVE",
"323 55 OFFCURVE",
"238 55 CURVE SMOOTH"
);
}
);
width = 600;
}
);
note = acircumflex.alt01;
},
{
glyphname = adieresis.alt01;
lastChange = "2017-11-24 23:49:52 +0000";
layers = (
{
layerId = "BE301D28-E982-4416-937B-B9987FF5461D";
paths = (
{
closed = 1;
nodes = (
"296 619 OFFCURVE",
"309 636 OFFCURVE",
"315 662 CURVE SMOOTH",
"317 671 OFFCURVE",
"319 680 OFFCURVE",
"319 687 CURVE SMOOTH",
"319 706 OFFCURVE",
"306 723 OFFCURVE",
"267 723 CURVE SMOOTH",
"227 723 OFFCURVE",
"214 706 OFFCURVE",
"208 680 CURVE SMOOTH",
"206 671 OFFCURVE",
"204 662 OFFCURVE",
"204 655 CURVE SMOOTH",
"204 636 OFFCURVE",
"217 619 OFFCURVE",
"256 619 CURVE SMOOTH"
);
},
{
closed = 1;
nodes = (
"482 619 OFFCURVE",
"495 636 OFFCURVE",
"501 662 CURVE SMOOTH",
"503 671 OFFCURVE",
"505 680 OFFCURVE",
"505 687 CURVE SMOOTH",
"505 706 OFFCURVE",
"492 723 OFFCURVE",
"453 723 CURVE SMOOTH",
"413 723 OFFCURVE",
"400 706 OFFCURVE",
"394 680 CURVE SMOOTH",
"392 671 OFFCURVE",
"390 662 OFFCURVE",
"390 655 CURVE SMOOTH",
"390 636 OFFCURVE",
"403 619 OFFCURVE",
"442 619 CURVE SMOOTH"
);
},
{
closed = 1;
nodes = (
"300 -12 OFFCURVE",
"356 32 OFFCURVE",
"386 91 CURVE",
"390 91 LINE",
"375 0 LINE",
"451 0 LINE",
"505 324 LINE SMOOTH",
"508 342 OFFCURVE",
"510 361 OFFCURVE",
"510 379 CURVE SMOOTH",
"510 463 OFFCURVE",
"442 528 OFFCURVE",
"329 528 CURVE SMOOTH",
"230 528 OFFCURVE",
"161 479 OFFCURVE",
"126 428 CURVE",
"176 384 LINE",
"211 432 OFFCURVE",
"254 461 OFFCURVE",
"323 461 CURVE SMOOTH",
"393 461 OFFCURVE",
"432 428 OFFCURVE",
"432 364 CURVE SMOOTH",
"432 354 OFFCURVE",
"431 343 OFFCURVE",
"429 331 CURVE SMOOTH",
"423 295 LINE",
"308 295 LINE SMOOTH",
"135 295 OFFCURVE",
"61 228 OFFCURVE",
"61 120 CURVE SMOOTH",
"61 39 OFFCURVE",
"121 -12 OFFCURVE",
"219 -12 CURVE SMOOTH"
);
},
{
closed = 1;
nodes = (
"177 55 OFFCURVE",
"140 78 OFFCURVE",
"140 119 CURVE SMOOTH",
"140 129 OFFCURVE",
"140 134 OFFCURVE",
"143 152 CURVE SMOOTH",
"152 206 OFFCURVE",
"201 235 OFFCURVE",
"297 235 CURVE SMOOTH",
"413 235 LINE",
"400 157 LINE SMOOTH",
"391 103 OFFCURVE",
"323 55 OFFCURVE",
"238 55 CURVE SMOOTH"
);
}
);
width = 600;
}
);
note = adieresis.alt01;
},
{
glyphname = uni1EA1.alt01;
lastChange = "2017-11-24 23:49:52 +0000";
layers = (
{
layerId = "BE301D28-E982-4416-937B-B9987FF5461D";
paths = (
{
closed = 1;
nodes = (
"269 -171 OFFCURVE",
"281 -153 OFFCURVE",
"288 -128 CURVE SMOOTH",
"290 -121 OFFCURVE",
"292 -109 OFFCURVE",
"292 -102 CURVE SMOOTH",
"292 -83 OFFCURVE",
"278 -66 OFFCURVE",
"240 -66 CURVE SMOOTH",
"200 -66 OFFCURVE",
"188 -84 OFFCURVE",
"181 -109 CURVE SMOOTH",
"179 -116 OFFCURVE",
"177 -128 OFFCURVE",
"177 -135 CURVE SMOOTH",
"177 -154 OFFCURVE",
"191 -171 OFFCURVE",
"229 -171 CURVE SMOOTH"
);
},
{
closed = 1;
nodes = (
"300 -12 OFFCURVE",
"356 32 OFFCURVE",
"386 91 CURVE",
"390 91 LINE",
"375 0 LINE",
"451 0 LINE",
"505 324 LINE SMOOTH",
"508 342 OFFCURVE",
"510 361 OFFCURVE",
"510 379 CURVE SMOOTH",
"510 463 OFFCURVE",
"442 528 OFFCURVE",
"329 528 CURVE SMOOTH",
"230 528 OFFCURVE",
"161 479 OFFCURVE",
"126 428 CURVE",
"176 384 LINE",
"211 432 OFFCURVE",
"254 461 OFFCURVE",
"323 461 CURVE SMOOTH",
"393 461 OFFCURVE",
"432 428 OFFCURVE",
"432 364 CURVE SMOOTH",
"432 354 OFFCURVE",
"431 343 OFFCURVE",
"429 331 CURVE SMOOTH",
"423 295 LINE",
"308 295 LINE SMOOTH",
"135 295 OFFCURVE",
"61 228 OFFCURVE",
"61 120 CURVE SMOOTH",
"61 39 OFFCURVE",
"121 -12 OFFCURVE",
"219 -12 CURVE SMOOTH"
);
},
{
closed = 1;
nodes = (
"177 55 OFFCURVE",
"140 78 OFFCURVE",
"140 119 CURVE SMOOTH",
"140 129 OFFCURVE",
"140 134 OFFCURVE",
"143 152 CURVE SMOOTH",
"152 206 OFFCURVE",
"201 235 OFFCURVE",
"297 235 CURVE SMOOTH",
"413 235 LINE",
"400 157 LINE SMOOTH",
"391 103 OFFCURVE",
"323 55 OFFCURVE",
"238 55 CURVE SMOOTH"
);
}
);
width = 600;
}
);
note = uni1EA1.alt01;
},
{
glyphname = agrave.alt01;
lastChange = "2017-11-24 23:49:52 +0000";
layers = (
{
layerId = "BE301D28-E982-4416-937B-B9987FF5461D";
paths = (
{
closed = 1;
nodes = (
"334 585 LINE",
"385 605 LINE",
"333 779 LINE",
"259 752 LINE"
);
},
{
closed = 1;
nodes = (
"300 -12 OFFCURVE",
"356 32 OFFCURVE",
"386 91 CURVE",
"390 91 LINE",
"375 0 LINE",
"451 0 LINE",
"505 324 LINE SMOOTH",
"508 342 OFFCURVE",
"510 361 OFFCURVE",
"510 379 CURVE SMOOTH",
"510 463 OFFCURVE",
"442 528 OFFCURVE",
"329 528 CURVE SMOOTH",
"230 528 OFFCURVE",
"161 479 OFFCURVE",
"126 428 CURVE",
"176 384 LINE",
"211 432 OFFCURVE",
"254 461 OFFCURVE",
"323 461 CURVE SMOOTH",
"393 461 OFFCURVE",
"432 428 OFFCURVE",
"432 364 CURVE SMOOTH",
"432 354 OFFCURVE",
"431 343 OFFCURVE",
"429 331 CURVE SMOOTH",
"423 295 LINE",
"308 295 LINE SMOOTH",
"135 295 OFFCURVE",
"61 228 OFFCURVE",
"61 120 CURVE SMOOTH",
"61 39 OFFCURVE",
"121 -12 OFFCURVE",
"219 -12 CURVE SMOOTH"
);
},
{
closed = 1;
nodes = (
"177 55 OFFCURVE",
"140 78 OFFCURVE",
"140 119 CURVE SMOOTH",
"140 129 OFFCURVE",
"140 134 OFFCURVE",
"143 152 CURVE SMOOTH",
"152 206 OFFCURVE",
"201 235 OFFCURVE",
"297 235 CURVE SMOOTH",
"413 235 LINE",
"400 157 LINE SMOOTH",
"391 103 OFFCURVE",
"323 55 OFFCURVE",
"238 55 CURVE SMOOTH"
);
}
);
width = 600;
}
);
note = agrave.alt01;
},
{
glyphname = uni1EA3.alt01;
lastChange = "2017-11-24 23:49:52 +0000";
layers = (
{
layerId = "BE301D28-E982-4416-937B-B9987FF5461D";
paths = (
{
closed = 1;
nodes = (
"278 704 LINE",
"393 704 LINE",
"322 604 LINE",
"365 577 LINE",
"405 619 LINE SMOOTH",
"438 653 OFFCURVE",
"457 683 OFFCURVE",
"457 713 CURVE SMOOTH",
"457 743 OFFCURVE",
"437 765 OFFCURVE",
"390 765 CURVE SMOOTH",
"288 765 LINE"
);
},
{
closed = 1;
nodes = (
"300 -12 OFFCURVE",
"356 32 OFFCURVE",
"386 91 CURVE",
"390 91 LINE",
"375 0 LINE",
"451 0 LINE",
"505 324 LINE SMOOTH",
"508 342 OFFCURVE",
"510 361 OFFCURVE",
"510 379 CURVE SMOOTH",
"510 463 OFFCURVE",
"442 528 OFFCURVE",
"329 528 CURVE SMOOTH",
"230 528 OFFCURVE",
"161 479 OFFCURVE",
"126 428 CURVE",
"176 384 LINE",
"211 432 OFFCURVE",
"254 461 OFFCURVE",
"323 461 CURVE SMOOTH",
"393 461 OFFCURVE",
"432 428 OFFCURVE",
"432 364 CURVE SMOOTH",
"432 354 OFFCURVE",
"431 343 OFFCURVE",
"429 331 CURVE SMOOTH",
"423 295 LINE",
"308 295 LINE SMOOTH",
"135 295 OFFCURVE",
"61 228 OFFCURVE",
"61 120 CURVE SMOOTH",
"61 39 OFFCURVE",
"121 -12 OFFCURVE",
"219 -12 CURVE SMOOTH"
);
},
{
closed = 1;
nodes = (
"177 55 OFFCURVE",
"140 78 OFFCURVE",
"140 119 CURVE SMOOTH",
"140 129 OFFCURVE",
"140 134 OFFCURVE",
"143 152 CURVE SMOOTH",
"152 206 OFFCURVE",
"201 235 OFFCURVE",
"297 235 CURVE SMOOTH",
"413 235 LINE",
"400 157 LINE SMOOTH",
"391 103 OFFCURVE",
"323 55 OFFCURVE",
"238 55 CURVE SMOOTH"
);
}
);
width = 600;
}
);
note = uni1EA3.alt01;
},
{
glyphname = amacron.alt01;
lastChange = "2017-11-24 23:49:52 +0000";
layers = (
{
layerId = "BE301D28-E982-4416-937B-B9987FF5461D";
paths = (
{
closed = 1;
nodes = (
"210 638 LINE",
"487 638 LINE",
"498 705 LINE",
"221 705 LINE"
);
},
{
closed = 1;
nodes = (
"300 -12 OFFCURVE",
"356 32 OFFCURVE",
"386 91 CURVE",
"390 91 LINE",
"375 0 LINE",
"451 0 LINE",
"505 324 LINE SMOOTH",
"508 342 OFFCURVE",
"510 361 OFFCURVE",
"510 379 CURVE SMOOTH",
"510 463 OFFCURVE",
"442 528 OFFCURVE",
"329 528 CURVE SMOOTH",
"230 528 OFFCURVE",
"161 479 OFFCURVE",
"126 428 CURVE",
"176 384 LINE",
"211 432 OFFCURVE",
"254 461 OFFCURVE",
"323 461 CURVE SMOOTH",
"393 461 OFFCURVE",
"432 428 OFFCURVE",
"432 364 CURVE SMOOTH",
"432 354 OFFCURVE",
"431 343 OFFCURVE",
"429 331 CURVE SMOOTH",
"423 295 LINE",
"308 295 LINE SMOOTH",
"135 295 OFFCURVE",
"61 228 OFFCURVE",
"61 120 CURVE SMOOTH",
"61 39 OFFCURVE",
"121 -12 OFFCURVE",
"219 -12 CURVE SMOOTH"
);
},
{
closed = 1;
nodes = (
"177 55 OFFCURVE",
"140 78 OFFCURVE",
"140 119 CURVE SMOOTH",
"140 129 OFFCURVE",
"140 134 OFFCURVE",
"143 152 CURVE SMOOTH",
"152 206 OFFCURVE",
"201 235 OFFCURVE",
"297 235 CURVE SMOOTH",
"413 235 LINE",
"400 157 LINE SMOOTH",
"391 103 OFFCURVE",
"323 55 OFFCURVE",
"238 55 CURVE SMOOTH"
);
}
);
width = 600;
}
);
note = amacron.alt01;
},
{
glyphname = aogonek.alt01;
lastChange = "2017-11-24 23:49:52 +0000";
layers = (
{
layerId = "BE301D28-E982-4416-937B-B9987FF5461D";
paths = (
{
closed = 1;
nodes = (
"407 -207 OFFCURVE",
"440 -189 OFFCURVE",
"458 -170 CURVE",
"420 -127 LINE",
"401 -144 OFFCURVE",
"381 -153 OFFCURVE",
"364 -153 CURVE SMOOTH",
"346 -153 OFFCURVE",
"330 -144 OFFCURVE",
"330 -122 CURVE SMOOTH",
"330 -101 OFFCURVE",
"344 -70 OFFCURVE",
"451 0 CURVE",
"505 324 LINE SMOOTH",
"508 342 OFFCURVE",
"510 361 OFFCURVE",
"510 379 CURVE SMOOTH",
"510 463 OFFCURVE",
"442 528 OFFCURVE",
"329 528 CURVE SMOOTH",
"230 528 OFFCURVE",
"161 479 OFFCURVE",
"126 428 CURVE",
"176 384 LINE",
"211 432 OFFCURVE",
"254 461 OFFCURVE",
"323 461 CURVE SMOOTH",
"393 461 OFFCURVE",
"432 428 OFFCURVE",
"432 364 CURVE SMOOTH",
"432 354 OFFCURVE",
"431 343 OFFCURVE",
"429 331 CURVE SMOOTH",
"423 295 LINE",
"308 295 LINE SMOOTH",
"135 295 OFFCURVE",
"61 228 OFFCURVE",
"61 120 CURVE SMOOTH",
"61 39 OFFCURVE",
"121 -12 OFFCURVE",
"219 -12 CURVE SMOOTH",
"300 -12 OFFCURVE",
"356 32 OFFCURVE",
"386 91 CURVE",
"390 91 LINE",
"375 0 LINE",
"388 0 LINE",
"389 -5 LINE",
"313 -40 OFFCURVE",
"262 -77 OFFCURVE",
"262 -132 CURVE SMOOTH",
"262 -186 OFFCURVE",
"309 -207 OFFCURVE",
"360 -207 CURVE SMOOTH"
);
},
{
closed = 1;
nodes = (
"177 55 OFFCURVE",
"140 78 OFFCURVE",
"140 119 CURVE SMOOTH",
"140 129 OFFCURVE",
"140 134 OFFCURVE",
"143 152 CURVE SMOOTH",
"152 206 OFFCURVE",
"201 235 OFFCURVE",
"297 235 CURVE SMOOTH",
"413 235 LINE",
"400 157 LINE SMOOTH",
"391 103 OFFCURVE",
"323 55 OFFCURVE",
"238 55 CURVE SMOOTH"
);
}
);
width = 600;
}
);
note = aogonek.alt01;
},
{
glyphname = aring.alt01;
lastChange = "2017-11-24 23:49:52 +0000";
layers = (
{
layerId = "BE301D28-E982-4416-937B-B9987FF5461D";
paths = (
{
closed = 1;
nodes = (
"411 578 OFFCURVE",
"472 634 OFFCURVE",
"472 705 CURVE SMOOTH",
"472 763 OFFCURVE",
"430 804 OFFCURVE",
"371 804 CURVE SMOOTH",
"303 804 OFFCURVE",
"242 748 OFFCURVE",
"242 677 CURVE SMOOTH",
"242 619 OFFCURVE",
"284 578 OFFCURVE",
"343 578 CURVE SMOOTH"
);
},
{
closed = 1;
nodes = (
"314 625 OFFCURVE",
"297 642 OFFCURVE",
"297 669 CURVE SMOOTH",
"297 676 OFFCURVE",
"299 689 OFFCURVE",
"301 701 CURVE SMOOTH",
"307 737 OFFCURVE",
"333 757 OFFCURVE",
"367 757 CURVE SMOOTH",
"400 757 OFFCURVE",
"417 740 OFFCURVE",
"417 713 CURVE SMOOTH",
"417 706 OFFCURVE",
"415 693 OFFCURVE",
"413 681 CURVE SMOOTH",
"407 645 OFFCURVE",
"381 625 OFFCURVE",
"347 625 CURVE SMOOTH"
);
},
{
closed = 1;
nodes = (
"300 -12 OFFCURVE",
"356 32 OFFCURVE",
"386 91 CURVE",
"390 91 LINE",
"375 0 LINE",
"451 0 LINE",
"505 324 LINE SMOOTH",
"508 342 OFFCURVE",
"510 361 OFFCURVE",
"510 379 CURVE SMOOTH",
"510 463 OFFCURVE",
"442 528 OFFCURVE",
"329 528 CURVE SMOOTH",
"230 528 OFFCURVE",
"161 479 OFFCURVE",
"126 428 CURVE",
"176 384 LINE",
"211 432 OFFCURVE",
"254 461 OFFCURVE",
"323 461 CURVE SMOOTH",
"393 461 OFFCURVE",
"432 428 OFFCURVE",
"432 364 CURVE SMOOTH",
"432 354 OFFCURVE",
"431 343 OFFCURVE",
"429 331 CURVE SMOOTH",
"423 295 LINE",
"308 295 LINE SMOOTH",
"135 295 OFFCURVE",
"61 228 OFFCURVE",
"61 120 CURVE SMOOTH",
"61 39 OFFCURVE",
"121 -12 OFFCURVE",
"219 -12 CURVE SMOOTH"
);
},
{
closed = 1;
nodes = (
"177 55 OFFCURVE",
"140 78 OFFCURVE",
"140 119 CURVE SMOOTH",
"140 129 OFFCURVE",
"140 134 OFFCURVE",
"143 152 CURVE SMOOTH",
"152 206 OFFCURVE",
"201 235 OFFCURVE",
"297 235 CURVE SMOOTH",
"413 235 LINE",
"400 157 LINE SMOOTH",
"391 103 OFFCURVE",
"323 55 OFFCURVE",
"238 55 CURVE SMOOTH"
);
}
);
width = 600;
}
);
note = aring.alt01;
},
{
glyphname = aringacute.alt01;
lastChange = "2017-11-24 23:49:52 +0000";
layers = (
{
layerId = "BE301D28-E982-4416-937B-B9987FF5461D";
paths = (
{
closed = 1;
nodes = (
"488 917 LINE",
"435 956 LINE",
"345 842 LINE",
"382 814 LINE"
);
},
{
closed = 1;
nodes = (
"411 568 OFFCURVE",
"472 624 OFFCURVE",
"472 695 CURVE SMOOTH",
"472 753 OFFCURVE",
"430 794 OFFCURVE",
"371 794 CURVE SMOOTH",
"303 794 OFFCURVE",
"242 738 OFFCURVE",
"242 667 CURVE SMOOTH",
"242 609 OFFCURVE",
"284 568 OFFCURVE",
"343 568 CURVE SMOOTH"
);
},
{
closed = 1;
nodes = (
"314 615 OFFCURVE",
"297 632 OFFCURVE",
"297 659 CURVE SMOOTH",
"297 666 OFFCURVE",
"298 676 OFFCURVE",
"301 691 CURVE SMOOTH",
"310 732 OFFCURVE",
"336 747 OFFCURVE",
"367 747 CURVE SMOOTH",
"400 747 OFFCURVE",
"417 730 OFFCURVE",
"417 703 CURVE SMOOTH",
"417 696 OFFCURVE",
"416 686 OFFCURVE",
"413 671 CURVE SMOOTH",
"404 630 OFFCURVE",
"378 615 OFFCURVE",
"347 615 CURVE SMOOTH"
);
},
{
closed = 1;
nodes = (
"300 -12 OFFCURVE",
"356 32 OFFCURVE",
"386 91 CURVE",
"390 91 LINE",
"375 0 LINE",
"451 0 LINE",
"505 324 LINE SMOOTH",
"508 342 OFFCURVE",
"510 361 OFFCURVE",
"510 379 CURVE SMOOTH",
"510 463 OFFCURVE",
"442 528 OFFCURVE",
"329 528 CURVE SMOOTH",
"230 528 OFFCURVE",
"161 479 OFFCURVE",
"126 428 CURVE",
"176 384 LINE",
"211 432 OFFCURVE",
"254 461 OFFCURVE",
"323 461 CURVE SMOOTH",
"393 461 OFFCURVE",
"432 428 OFFCURVE",
"432 364 CURVE SMOOTH",
"432 354 OFFCURVE",
"431 343 OFFCURVE",
"429 331 CURVE SMOOTH",
"423 295 LINE",
"308 295 LINE SMOOTH",
"135 295 OFFCURVE",
"61 228 OFFCURVE",
"61 120 CURVE SMOOTH",
"61 39 OFFCURVE",
"121 -12 OFFCURVE",
"219 -12 CURVE SMOOTH"
);
},
{
closed = 1;
nodes = (
"177 55 OFFCURVE",
"140 78 OFFCURVE",
"140 119 CURVE SMOOTH",
"140 129 OFFCURVE",
"140 134 OFFCURVE",
"143 152 CURVE SMOOTH",
"152 206 OFFCURVE",
"201 235 OFFCURVE",
"297 235 CURVE SMOOTH",
"413 235 LINE",
"400 157 LINE SMOOTH",
"391 103 OFFCURVE",
"323 55 OFFCURVE",
"238 55 CURVE SMOOTH"
);
}
);
width = 600;
}
);
note = aringacute.alt01;
},
{
glyphname = atilde.alt01;
lastChange = "2017-11-24 23:49:52 +0000";
layers = (
{
layerId = "BE301D28-E982-4416-937B-B9987FF5461D";
paths = (
{
closed = 1;
nodes = (
"463 612 OFFCURVE",
"498 638 OFFCURVE",
"520 664 CURVE",
"492 705 LINE",
"469 687 OFFCURVE",
"450 676 OFFCURVE",
"429 676 CURVE SMOOTH",
"410 676 OFFCURVE",
"388 685 OFFCURVE",
"365 699 CURVE SMOOTH",
"345 711 OFFCURVE",
"322 727 OFFCURVE",
"289 727 CURVE SMOOTH",
"247 727 OFFCURVE",
"212 701 OFFCURVE",
"190 675 CURVE",
"218 634 LINE",
"241 652 OFFCURVE",
"260 663 OFFCURVE",
"281 663 CURVE SMOOTH",
"300 663 OFFCURVE",
"322 654 OFFCURVE",
"345 640 CURVE SMOOTH",
"365 628 OFFCURVE",
"388 612 OFFCURVE",
"421 612 CURVE SMOOTH"
);
},
{
closed = 1;
nodes = (
"300 -12 OFFCURVE",
"356 32 OFFCURVE",
"386 91 CURVE",
"390 91 LINE",
"375 0 LINE",
"451 0 LINE",
"505 324 LINE SMOOTH",
"508 342 OFFCURVE",
"510 361 OFFCURVE",
"510 379 CURVE SMOOTH",
"510 463 OFFCURVE",
"442 528 OFFCURVE",
"329 528 CURVE SMOOTH",
"230 528 OFFCURVE",
"161 479 OFFCURVE",
"126 428 CURVE",
"176 384 LINE",
"211 432 OFFCURVE",
"254 461 OFFCURVE",
"323 461 CURVE SMOOTH",
"393 461 OFFCURVE",
"432 428 OFFCURVE",
"432 364 CURVE SMOOTH",
"432 354 OFFCURVE",
"431 343 OFFCURVE",
"429 331 CURVE SMOOTH",
"423 295 LINE",
"308 295 LINE SMOOTH",
"135 295 OFFCURVE",
"61 228 OFFCURVE",
"61 120 CURVE SMOOTH",
"61 39 OFFCURVE",
"121 -12 OFFCURVE",
"219 -12 CURVE SMOOTH"
);
},
{
closed = 1;
nodes = (
"177 55 OFFCURVE",
"140 78 OFFCURVE",
"140 119 CURVE SMOOTH",
"140 129 OFFCURVE",
"140 134 OFFCURVE",
"143 152 CURVE SMOOTH",
"152 206 OFFCURVE",
"201 235 OFFCURVE",
"297 235 CURVE SMOOTH",
"413 235 LINE",
"400 157 LINE SMOOTH",
"391 103 OFFCURVE",
"323 55 OFFCURVE",
"238 55 CURVE SMOOTH"
);
}
);
width = 600;
}
);
note = atilde.alt01;
},
{
glyphname = uni1EAF.alt01;
lastChange = "2017-11-24 23:49:52 +0000";
layers = (
{
layerId = "BE301D28-E982-4416-937B-B9987FF5461D";
paths = (
{
closed = 1;
nodes = (
"445 585 OFFCURVE",
"499 661 OFFCURVE",
"530 724 CURVE",
"481 747 LINE",
"455 715 LINE SMOOTH",
"413 663 OFFCURVE",
"385 647 OFFCURVE",
"346 647 CURVE SMOOTH",
"303 647 OFFCURVE",
"284 667 OFFCURVE",
"260 715 CURVE SMOOTH",
"244 747 LINE",
"199 724 LINE",
"208 666 OFFCURVE",
"233 585 OFFCURVE",
"341 585 CURVE SMOOTH"
);
},
{
closed = 1;
nodes = (
"489 863 LINE",
"424 900 LINE",
"316 734 LINE",
"360 708 LINE"
);
},
{
closed = 1;
nodes = (
"300 -12 OFFCURVE",
"356 32 OFFCURVE",
"386 91 CURVE",
"390 91 LINE",
"375 0 LINE",
"451 0 LINE",
"505 324 LINE SMOOTH",
"508 342 OFFCURVE",
"510 361 OFFCURVE",
"510 379 CURVE SMOOTH",
"510 463 OFFCURVE",
"442 528 OFFCURVE",
"329 528 CURVE SMOOTH",
"230 528 OFFCURVE",
"161 479 OFFCURVE",
"126 428 CURVE",
"176 384 LINE",
"211 432 OFFCURVE",
"254 461 OFFCURVE",
"323 461 CURVE SMOOTH",
"393 461 OFFCURVE",
"432 428 OFFCURVE",
"432 364 CURVE SMOOTH",
"432 354 OFFCURVE",
"431 343 OFFCURVE",
"429 331 CURVE SMOOTH",
"423 295 LINE",
"308 295 LINE SMOOTH",
"135 295 OFFCURVE",
"61 228 OFFCURVE",
"61 120 CURVE SMOOTH",
"61 39 OFFCURVE",
"121 -12 OFFCURVE",
"219 -12 CURVE SMOOTH"
);
},
{
closed = 1;
nodes = (
"177 55 OFFCURVE",
"140 78 OFFCURVE",
"140 119 CURVE SMOOTH",
"140 129 OFFCURVE",
"140 134 OFFCURVE",
"143 152 CURVE SMOOTH",
"152 206 OFFCURVE",
"201 235 OFFCURVE",
"297 235 CURVE SMOOTH",
"413 235 LINE",
"400 157 LINE SMOOTH",
"391 103 OFFCURVE",
"323 55 OFFCURVE",
"238 55 CURVE SMOOTH"
);
}
);
width = 600;
}
);
note = uni1EAF.alt01;
},
{
glyphname = uni1EB7.alt01;
lastChange = "2017-11-24 23:49:52 +0000";
layers = (
{
layerId = "BE301D28-E982-4416-937B-B9987FF5461D";
paths = (
{
closed = 1;
nodes = (
"269 -171 OFFCURVE",
"281 -153 OFFCURVE",
"288 -128 CURVE SMOOTH",
"290 -121 OFFCURVE",
"292 -109 OFFCURVE",
"292 -102 CURVE SMOOTH",
"292 -83 OFFCURVE",
"278 -66 OFFCURVE",
"240 -66 CURVE SMOOTH",
"200 -66 OFFCURVE",
"188 -84 OFFCURVE",
"181 -109 CURVE SMOOTH",
"179 -116 OFFCURVE",
"177 -128 OFFCURVE",
"177 -135 CURVE SMOOTH",
"177 -154 OFFCURVE",
"191 -171 OFFCURVE",
"229 -171 CURVE SMOOTH"
);
},
{
closed = 1;
nodes = (
"450 595 OFFCURVE",
"497 684 OFFCURVE",
"526 746 CURVE",
"476 767 LINE",
"449 733 LINE SMOOTH",
"406 679 OFFCURVE",
"389 658 OFFCURVE",
"347 658 CURVE SMOOTH",
"302 658 OFFCURVE",
"289 683 OFFCURVE",
"267 733 CURVE SMOOTH",
"252 767 LINE",
"204 746 LINE",
"213 685 OFFCURVE",
"239 595 OFFCURVE",
"345 595 CURVE SMOOTH"
);
},
{
closed = 1;
nodes = (
"300 -12 OFFCURVE",
"356 32 OFFCURVE",
"386 91 CURVE",
"390 91 LINE",
"375 0 LINE",
"451 0 LINE",
"505 324 LINE SMOOTH",
"508 342 OFFCURVE",
"510 361 OFFCURVE",
"510 379 CURVE SMOOTH",
"510 463 OFFCURVE",
"442 528 OFFCURVE",
"329 528 CURVE SMOOTH",
"230 528 OFFCURVE",
"161 479 OFFCURVE",
"126 428 CURVE",
"176 384 LINE",
"211 432 OFFCURVE",
"254 461 OFFCURVE",
"323 461 CURVE SMOOTH",
"393 461 OFFCURVE",
"432 428 OFFCURVE",
"432 364 CURVE SMOOTH",
"432 354 OFFCURVE",
"431 343 OFFCURVE",
"429 331 CURVE SMOOTH",
"423 295 LINE",
"308 295 LINE SMOOTH",
"135 295 OFFCURVE",
"61 228 OFFCURVE",
"61 120 CURVE SMOOTH",
"61 39 OFFCURVE",
"121 -12 OFFCURVE",
"219 -12 CURVE SMOOTH"
);
},
{
closed = 1;
nodes = (
"177 55 OFFCURVE",
"140 78 OFFCURVE",
"140 119 CURVE SMOOTH",
"140 129 OFFCURVE",
"140 134 OFFCURVE",
"143 152 CURVE SMOOTH",
"152 206 OFFCURVE",
"201 235 OFFCURVE",
"297 235 CURVE SMOOTH",
"413 235 LINE",
"400 157 LINE SMOOTH",
"391 103 OFFCURVE",
"323 55 OFFCURVE",
"238 55 CURVE SMOOTH"
);
}
);
width = 600;
}
);
note = uni1EB7.alt01;
},
{
glyphname = uni1EB1.alt01;
lastChange = "2017-11-24 23:49:52 +0000";
layers = (
{
layerId = "BE301D28-E982-4416-937B-B9987FF5461D";
paths = (
{
closed = 1;
nodes = (
"445 585 OFFCURVE",
"499 661 OFFCURVE",
"530 724 CURVE",
"481 747 LINE",
"455 715 LINE SMOOTH",
"413 663 OFFCURVE",
"385 647 OFFCURVE",
"346 647 CURVE SMOOTH",
"303 647 OFFCURVE",
"284 667 OFFCURVE",
"260 715 CURVE SMOOTH",
"244 747 LINE",
"199 724 LINE",
"208 666 OFFCURVE",
"233 585 OFFCURVE",
"341 585 CURVE SMOOTH"
);
},
{
closed = 1;
nodes = (
"339 708 LINE",
"387 726 LINE",
"335 900 LINE",
"264 874 LINE"
);
},
{
closed = 1;
nodes = (
"300 -12 OFFCURVE",
"356 32 OFFCURVE",
"386 91 CURVE",
"390 91 LINE",
"375 0 LINE",
"451 0 LINE",
"505 324 LINE SMOOTH",
"508 342 OFFCURVE",
"510 361 OFFCURVE",
"510 379 CURVE SMOOTH",
"510 463 OFFCURVE",
"442 528 OFFCURVE",
"329 528 CURVE SMOOTH",
"230 528 OFFCURVE",
"161 479 OFFCURVE",
"126 428 CURVE",
"176 384 LINE",
"211 432 OFFCURVE",
"254 461 OFFCURVE",
"323 461 CURVE SMOOTH",
"393 461 OFFCURVE",
"432 428 OFFCURVE",
"432 364 CURVE SMOOTH",
"432 354 OFFCURVE",
"431 343 OFFCURVE",
"429 331 CURVE SMOOTH",
"423 295 LINE",
"308 295 LINE SMOOTH",
"135 295 OFFCURVE",
"61 228 OFFCURVE",
"61 120 CURVE SMOOTH",
"61 39 OFFCURVE",
"121 -12 OFFCURVE",
"219 -12 CURVE SMOOTH"
);
},
{
closed = 1;
nodes = (
"177 55 OFFCURVE",
"140 78 OFFCURVE",
"140 119 CURVE SMOOTH",
"140 129 OFFCURVE",
"140 134 OFFCURVE",
"143 152 CURVE SMOOTH",
"152 206 OFFCURVE",
"201 235 OFFCURVE",
"297 235 CURVE SMOOTH",
"413 235 LINE",
"400 157 LINE SMOOTH",
"391 103 OFFCURVE",
"323 55 OFFCURVE",
"238 55 CURVE SMOOTH"
);
}
);
width = 600;
}
);
note = uni1EB1.alt01;
},
{
glyphname = uni1EB3.alt01;
lastChange = "2017-11-24 23:49:52 +0000";
layers = (
{
layerId = "BE301D28-E982-4416-937B-B9987FF5461D";
paths = (
{
closed = 1;
nodes = (
"445 585 OFFCURVE",
"499 661 OFFCURVE",
"530 724 CURVE",
"481 747 LINE",
"455 715 LINE SMOOTH",
"413 663 OFFCURVE",
"385 647 OFFCURVE",
"346 647 CURVE SMOOTH",
"303 647 OFFCURVE",
"284 667 OFFCURVE",
"260 715 CURVE SMOOTH",
"244 747 LINE",
"199 724 LINE",
"208 666 OFFCURVE",
"233 585 OFFCURVE",
"341 585 CURVE SMOOTH"
);
},
{
closed = 1;
nodes = (
"279 829 LINE",
"382 829 LINE",
"311 729 LINE",
"353 702 LINE",
"409 765 LINE SMOOTH",
"432 791 OFFCURVE",
"446 815 OFFCURVE",
"446 839 CURVE SMOOTH",
"446 867 OFFCURVE",
"426 890 OFFCURVE",
"379 890 CURVE SMOOTH",
"290 890 LINE"
);
},
{
closed = 1;
nodes = (
"300 -12 OFFCURVE",
"356 32 OFFCURVE",
"386 91 CURVE",
"390 91 LINE",
"375 0 LINE",
"451 0 LINE",
"505 324 LINE SMOOTH",
"508 342 OFFCURVE",
"510 361 OFFCURVE",
"510 379 CURVE SMOOTH",
"510 463 OFFCURVE",
"442 528 OFFCURVE",
"329 528 CURVE SMOOTH",
"230 528 OFFCURVE",
"161 479 OFFCURVE",
"126 428 CURVE",
"176 384 LINE",
"211 432 OFFCURVE",
"254 461 OFFCURVE",
"323 461 CURVE SMOOTH",
"393 461 OFFCURVE",
"432 428 OFFCURVE",
"432 364 CURVE SMOOTH",
"432 354 OFFCURVE",
"431 343 OFFCURVE",
"429 331 CURVE SMOOTH",
"423 295 LINE",
"308 295 LINE SMOOTH",
"135 295 OFFCURVE",
"61 228 OFFCURVE",
"61 120 CURVE SMOOTH",
"61 39 OFFCURVE",
"121 -12 OFFCURVE",
"219 -12 CURVE SMOOTH"
);
},
{
closed = 1;
nodes = (
"177 55 OFFCURVE",
"140 78 OFFCURVE",
"140 119 CURVE SMOOTH",
"140 129 OFFCURVE",
"140 134 OFFCURVE",
"143 152 CURVE SMOOTH",
"152 206 OFFCURVE",
"201 235 OFFCURVE",
"297 235 CURVE SMOOTH",
"413 235 LINE",
"400 157 LINE SMOOTH",
"391 103 OFFCURVE",
"323 55 OFFCURVE",
"238 55 CURVE SMOOTH"
);
}
);
width = 600;
}
);
note = uni1EB3.alt01;
},
